<mxfile host="65bd71144e">
    <diagram id="JXt3FSK0wFiVn9bEl19e" name="Page-1">
        <mxGraphModel dx="436" dy="263" grid="1" gridSize="10" guides="1" tooltips="1" connect="1" arrows="1" fold="1" page="1" pageScale="1" pageWidth="850" pageHeight="1100" math="0" shadow="0">
            <root>
                <mxCell id="0"/>
                <mxCell id="1" parent="0"/>
                <mxCell id="22" value="" style="shape=image;verticalLabelPosition=bottom;labelBackgroundColor=default;verticalAlign=top;aspect=fixed;imageAspect=0;image=data:image/png,iVBORw0KGgoAAAANSUhEUgAAAggAAAEeCAYAAADvm+14AAAAAXNSR0IArs4c6QAAIABJREFUeF7snQd8FdXyx7+7e1t6DwmhdwEBsfdewILd9+wNRXov0ntHQFF8CCr2gr2h/i3YC3YFREoKgTTSy227/885e5cktBSCRLn7nhrI3r1n58yZ8zszv5lROnboZBC8ghKoQQKqouxzh67rsJ+/Dwrz6JbAgXRFGBolqC9Ht3Ls9fb70xW/sCtBXWkUeqIEAUKjmIdGP4i9F7Iw9oYRxJaNfuKOwACDunIEhP4P/cqgrjTuiQsChMY9P41mdMJ/YMGBqj83mgEGB9JoJBDUlUYzFY1+IEFdadxTFAQIjXt+gqMLSuAfLQHhZQqGFf7RU/i3DT6oK3+bqGv9RUGAUGtRHd03CqSvB4390a0EtXz7oK7UUlDB2wjqSuNWgiBAaNzzExxdUAJBCQQlEJRAUAJHRAJBgHBExB780n+rBAT/Wv23vlzwvYISCErgqJJAECD8TdMtU7yqfFeQ6Pc3Cf5v+Boxt5oBumISOQVACOZ3/A2Cb/CvsFalgYKC+Ld5BWezwUUdfOA/QgJBgHAYp2lvUHAYvyr46CMkAbUKMBDbyd7AL6gDR2hi6vy1leDABHgWQAiCgzqLMviBf40EggBhv1PZcCcHy+xIMk7gD5YLOmh6/tnrSMynYlSCAjG9PgUcAjT8s1/tKBu9uTDlGpX/VbCA31EmiODrBiVQTQJBgHAAgGDGkg1ELSBVNRn88gfD9CMrhiGNifgrsUlYlyJ+r4jfVQ8p+BWk0RHgILh57Ct0kQqn6/5ASty+VRuPxLoV86/LWbaZzmax8YtJBJyGQXkgtCABnyJmVZPO6KDX4EjMVv2/U/gKLGhgrtCqsD4w8fV/fPCTQQn8YyWwD0CQOcuGcdRG3WQ8WW4LKoaiovh9eO021JBI9PBInJGRqA4XimLDMHSc6LgLCtBLCvEWF6D4PaaJMRSJJar6IoK8gwOvE01TkaWbzXq8cputbaFGmT8d2JhFZbaG8MyI56mGD5+qoOoamvAOhETgSWpKaFgMWkEB5TvTsemlAUDgRw8AhMYBb/6xNulvH7iCf1+GkCHWv+lTqM0lbIEi7EUdGQtVq5E2lO7WZrzBe4ISsCRg6aC0W3uVQq8GEC6++GKioiJZs+YV/H6xaI7OS3gHyjU7FbEpKN1OwtOuI2qTZHwh4Ria3SQwSS+C6VAQl8Ndhn13LuEbf8L31UfYCnNQxekzABLMk6WAHQp6ADYEN5Iq+mUYhIaFcsUVV7B+/Xr+/HNzrQvsCDn26tVLPuydd99tMKUVG4cfFdVQKWjbBU/v61GatUIxBFzwELF9E7anlqOV5QWoicEZbTDh/80PEt4i6SGSUEEsWuk/rPV2Hx4ezqW9e/P+Bx+Qn787QHKs3UtcfvnlZGdn880339TuA8G7ghJoQAl06dyZrl27suaVV/D5fNWeXA0gTJs6lSZJTRgwYOA+NzbgeBr1o4SBqIhOwHPy+egnnkdJaBhkZ2PL3oqSvQN/7m7wlKOohtzsfTggOhpSWuNr2gJ7QlMSS/PR3nsR9ZdvUXxu6ZGRJ2JxUpEeGvOkEbwqJSBOYNHRMcyfP4+XX36ZtWvXyhNZ7S6DGTNmSFA7efKU2n2kFnfpioFN1ykJa0bxbQNREpJRvliLOysLb8vWKGecS7sPXqfikxew+x0YikltawgPRi2GF7ylgSRg0hENKmxh0LYTLuEt+usPVL8n8A0Hn1GxlhMSE5g5cybTp08nLS2t1gBB6P28efPZtGkjq1Y93kBvFHxMUAK1l4A4XF155ZUMGTKYigr3gQHC1KlTSEpKYuCAgXj3QhK1/7p/zp1WrNgMK4BXuKfb9sB32X/IjW+CkrkN3wevE5K6jXCfG8VwY5cuAV1yEGyGgV9VEZhLx0GBPYKSTt0J6XUtrigXrb78mMK1a1B9FSb5ydhzPvnnCOlvHGlMTDRz586tM0AQrtlp06c1PEDAwKn72HXWdXgvux7H2peJ+PRtdN3HbkcoJQPG0zYsBmPp/SjFeTLV0eKa/I1iC37VIUrAUHS8hOC98DrKzrkAp27Q8ecvyFzzBIpe/US1v68SACE+IZ5Zs2YxffoMCRBqewndnT1nThAg1FZgwfsaXAImQOjDkCFDDg4QpkyZQnJy0lHmQTBQdAO/ZmN3t9Mxrr0d3G6UN57D9dt3hOnlaIqKLjZ38U8gPi64agIr+ETc0RChA/PyoZHniKbi2nvRju1C6+/ep+K157AZOn7JeDdhScNEyhtcV/72B8oob6CEc2xMDHPnzWXNy2t49713a+1BOBwAQWz2mqGQY7NTOnoxESXlOFZMw+EukjMo6IjbW/XEdu8oWr/1DJ4v3hCU1aBn6G/XoEP7QjNnwU9Wm5747hyBfcvvFFaUEdXteGIXT8CWlb6fNmXV/X+HChDmzJ3Dxg0bWblqVa3Daof21sFPByVQKYEgQDigNpgm3avYyOt2Jr5rbiUqJxPjmYcJzReGQcFmqPgFu16kKwRiksKJrMgch0pDYf5kuiLFnYX2KAqvuhmtx8k0++kLfC+uAqMCQ7HLT+6bMX90qmxjAQh7FzjSRJaK4iG9y/n4b72PJq+swPntOjNzRQI9H0W2SPJHLaB1YTa+RyZKrkLw+mdJQKxhv6JQ8J/7MDodR/jicWRpkagjZ9D+z+8pf2IRqu4LgL+9sxvMdw0ChH/WnAdHW10CvXv3ok+fPgwePBi32wqrBXS7Y4dOewJsR58HwcCvqLi7nU3Jtbei5e7E8dSjhBRsx6bbA6QlrzQBqmJmSAcoTHv5AKpHngUNEcNGfkgE+ZfdSPhxJ9F63bsUrX1enorNTLm68p3/nWrdEABBPGPGzBmSN1NfDkLVbBNzdgy8io+8++YQ2iQJ5wNTsBfskkRTM2at4DYUdlzfnybdj8O1YDRqgSCnBRkI/yRNFWA9MzQOfeg0InelEfrEAsoVjdxbhxHXthNhi8dD7o7AvIpApJkAvTdUOJQQQ9CD8E/SmH/XWIUe9+7dmyv6XBEECJVnfNPA+1DxHX8OpVfdjJ67C8dTDxOZtxND8aMaJihQdQWfLHRgGYaqvoLKjd7KaLCyGiRVzdDJD42n5KZhxDRrSuJzD1Cx8ffA9iM2miBVsSEAgpiFmQGAMGnSpFqHJqou9b3rU/gUnWJnNHkTF5Oy4SdsTz+CHb8ECFalA8FDSe15Ps4b7iHx5YdQ13+CYtiqWZAgXGjkBtXwk9bjDLT/DCTmtScI+foDmd74V1InnEOn0O6Nx/B89X6VWidi3Zr1Lqqu3iBAaNh5Dh6fGlaeB3paECDsJRlzYfskqTCnVUe4dTCOwmIcjy8gtEikJpolU8T/NVH8RqY+KWbywV7nBstImIwCY0/KY+UhUqQ56mTFt8XT936aGYWweCpqWRmKItJIgy7pxgIQqp4IxbwKUJia3BF92DRaPPMwrp8+MfWgiudHnD53xLTCM2wGrTZ8he/5pdhFVkuVSxbYCl6NWAJ+ttwwgPhup+FcNI6Q3EwJAQudkRSNXUSL7M3oKxaiyrRvk7Bohhcrr2CIoSGn1yJy730Qa8jvCD7LkkAQIOyjC6KGgZ+CyCb4+o5ACYsk5JllhG75BVkORxWnAz9+w4/NrGSAqmhmJcUq54a9Ea7lORBfJwmMe4IIBl7VYEeXc7Hd2o82n75O+Tsvo+reoAchIKNDJSk2hAfBUhNZDlvMtKKS3fs2fGdcRJMFI3Dkpcn0VAvUmZBQp9AeSfZdY2hlt8PSMdhrnZoZNFKNQQIGGtuHLyRFL0dZOhGH34tf8I5ssPO2McS3aU3YkmnoOTvkIcFa91U9CEGAcGgzWSlLeTSTFGAr9dRMDzdDu8Gr4SUQBAjVZGoSDStUG/7r7qao2+mor64g9rtPcMgCkgqqqsoKiQJEmJXNxD9CcYXS7v+qSjm07qmkNJpgodwWSvY9o4lvkULow7NQ07YEPQiNECAIz4GIMLs1BxUjl+DQ3ITMH40ial/sKcMbABHokuC6o8/dxHQ/mejp90It0uIafpkHn1hfCRTb48mbvITET14l5P2XUGVzDZOAvKVND0L6DqH5Cyvx/7Ruj/9o79qKQYBQX+mbmWBmPxMTHBRHJ9L0mC4U/Pwzauluk+8RxAb1F3ANnwwChGoCEr4BG0U9TqP8+ntwrf+UiFcfx2Z4MfxmqwXJJUAzSYnCUAiwEKAl7e0srm2cTPoeDJ302FYoI+bSOv03vCvno/qqM0YPmxY04gc3hhCDxT8Qnh+PanZeyI+KpmjMYzT95i2crz+JX5TS3QsiynONYbDzjD54+9xMk7n3Yc/LDlTVaMRCDw5tjwS2NO+G2n8CzZ9bivrrOsk9kjlKqkqmKwr32AW0+uVLlFdWYogiF1UbrwSeEgQI+ypUbW2j9LjKsK6fUlso7tuH4m/bhtabN1L8xBLwCzh2sHLXIvwbRBD1XdJBgBCQnNV5LzsiFvpPw+X34PzffJyFGaYLS1VRRC+APaVWK6PS+1N2ubEdxPFlgolAZrwoqCQNSyjbL7yK6PMuJPq5/6H/8pUsvGSGJ+qypOqrDo3vc40CIIjeI4oibb/YA8TM7uh0PP47xxG/fBYRW380Q0wyfFB9ngRAyEzqQPmIWZz66bNkvf1yECA0PjXbZ0QStCsqWy+9mcjTexH30CRsGRvNQ0Fgy/IoIWQMmEyrSBv6/PuxebyB02x1iuLhAgiV4YzABigzqUQIs/FviHVtSidgWUFiSwqHzMVnU4n2lxE1V2QG5dTYD6P2FVf/AYr5Nw8xCBACAheRLJ8SQtGN96F3PR7Hsw8T9euXyEY/YnOoMjENQysTsEOQHFV02enPTI7KDE/AP3AGSZ4i1Icmo7nddWoK8zfrz2H/usYAECz6qWiwJfIUBBUtvfeNhJ51KfEzh6OWZIqODFU2/gD8M0Q3T5UcZxQlExbTecdmyh+Zuaetd+M344d9ehvtF0giquoka8Qs4u02tAfuRysr3tNwSVRJ9aCx9ZKbSDj7fCIfngHpoj+I0IPqBOOGAwgrqzV8MoOb4ukqqi7siRfdZkfXTQhj6VfD2KuGmyoT2AjAXYW4fZDHy8Z2QE7nE6i4dTjlb6zBddV1tH1+Gf4fPjMJ4A03vOCTqkjgKAcIgfoEklykkN+qG6X3jCLsh48JefUZXL5yDEOEE0wVbKgzvPkcsdVYVRPMp4sukYL/sOPkqwi9/AZavLGS8q8+kFyHg/sj/r063VgAgmVuRR/PctVJ/n0TSUhogmPmUPCWSIBgmmWzRoJlsMRPxZqL3H6TSIyIJGz2YOmGluGHWrf6+ffOb+N9M4ViRxi7Jy6nbepvuJ+Yj+b1mYcF2c3W3H5TO56C445BJL29Gj57N+BFqv5WhwsgBPKnKLNH4ux5MtFJyeSv+xDb7p1SuRrrpim4XMLJYVaLqKkbppC1JiHXrnOuwnbBFRQtnUrIoGm0/v1LvC8+iqqbtjR4NbwEjmKAYJnoAPklNI7S+0YTERqGsnQy4QXZ6Iq2p+RJwyug2Q3TrLhgpkaJjcWDj3xnIiX3TaKl4ca7fApOd0W1DImGV4PG+8TGARBM+Zg6oFMYEY9n5GIS0/9AXzkXmy6qKlr3iDNdACgooOt+3KqTzD53E9LzZOJmDsDuLpO9Pay8l8Yr/aN5ZCrZUbEUj3+Mdh+9iO89UQ5dsuUCtS7MlNadYUl4R0yh6bZfUZ9ZhirAg8xmqbQYDQ0QqmqjULWczmej3XgnRZpGN1EKesXcPX1dGtsMljpCUVp1wp6+FVt5sSxjfaBLHKLMtaRRoULuTSMJbdEa34KRuAdMo4XThkdklpQUBrysje1t//njCQKEANM89/SL8F12C3GvP4Hj63el0TeUysyE6lHFhpj4ylPInsxp+SV+fIqNjJMvJbTPf2n+xircX3yIoR6dDunGBBDErKuGzq42nTDum0nka48T8uXbaLqGX7XIUlYdRRNSCCewbtjYduIlhF1zJ7FzB+IsyGq07t+G0Ox/+jNM173G1uQU/EOX0urZRdh++lwSkxVDlYXSTN+fQokaQtatw2iREIOycJTsqWIChMrrcAAEQWoWnkW3qpB1VT9CuxxHfnoGHVqn4J4zHGdpCXojS6kV0LnglAtRL7uOhD/WU/acSQCXodb9XpafRqPEppEzeC7N3WXoyyeyvdedJJ5+LrHLpqKn/xkECIdp0R3FAEGaewn08xOb4+k/EXtpFs6lMwl1C2SromsKwu6b4KDhIYI5p4GInGzuZBoe8Z3ZrhiKBk+lreFBf2Acin5gpH2YdKNRPLaxAQQhlLQTL8R29Z2EL76fqF1/oSsir8EEA1YPDhPOiUwXRTb7Sm1/PNq9k2n71Fzcv34lT5o1OVcbxQQchYMQp1qf4iTrpLOouLo/KYuH48hMk6Eh089X9VLZdsWtRJ94PvHzhuMv3rUPCfVwAQQxnryQGBg0H3tJFtmfrSPq5juIfuB+HLu2W5al0cygCM2V3z2cvA4n0LxwF+oDE3GK0/8BvAgWkVtwEIrCo8kdOZ82f/4Azy9jS/tTsN8xglYvLsP347pgSbnDNMtHN0AwFCpsDkquvhN/99NQH5lBfMYmswiHIpq0iMY7VqRYmHPhGG7Iy3QyW2bHjMiZhZpEeCPtlMsJ63MjSW8sx/jq46OyLkLjAAgWRBShBDtpV99L5LE9CZ0xhDBfkSzJLStpiuqagRIu1WKrus6u+GaUjnmInuvWkP/2s7LEVrC4S0OupYZ5lrX5e202Sq+/i/KuZ5IydyBGfj66KnhCe8f2ddKPPQ3lpiG0e3YpFb+sA0Q57UqPX0MCBPFcTRXdY4UuGmTFpsCQWcT/+Ck7vvkebdj9pDz9EMrPX1Y51DR8gLQ+0s62RaAPm0lZbDIxVBDzvxloW//Cp/gOUhROhGwgO7E57uGzafvZG/jeeYn0yETcIxfS+tv3MOR6MvaXYVqfYQY/s5f366jtxSDchTvbd0G/dSgxG3/E/txyNFEAKVCUozK90B9QvsMBEEwvgrmEzdil/JPhJye6GeUDptLUnY+yeByazPk9uq7GAhDE/Ajpe7QQskfMoam3HPWB8WiKTxbQkrnxsqqL5Reyzj8gklTyQyPJn/oYPbb+SMHKBeCrkLTU4NV4JFCVNFxmc1I+eBr2sDCiZg9F9/qqEOuqbrg6O8MT8I2eT+ct6yl+4gFQqpfTbmiAYOX1i5bjqR17EnLnGKLffJzi3/6gaNwcEj9/A9fbL5iItRFdqeGxuEYswJ+Xiy25Ba0/fZGKta/hU0TDO+GFE1flmM2zmcnS2tG2K+o942n26kr8X39Ekepk96h5NC/KQn90NjbdZ9ao2SvjrBG9/j9yKEelB0HmCgOlthAKbh6Cs1lLtBVziMnaHiANBkhnhpXeaDZiOpyXRVgz84MVCVTcqoMd51+P8/zLSHloMsaOzYdzCI3y2Y0JIIjdf3dUE4rHL6btT5/jffYhbFVSzUwBVkI98SdZPskQsWobuVP+Rxt/If45YzA8pftUXmyUE3CUDUrMFYqXIlckxWOX0bRwB8biiSA5SWYya1XvkIifF2hh5N43laYuH6ELJ6Abglx3+DwIFkAQY9l2xqWEX34jkY/OwrdzF9n3LyRpy3ocTy1D9VuliRvHJG5t0oLQobPQPnoH9xmX0D7tFypWLEDXxAHMamK2L6gRkkzrfibaDf1IWb0INv6EW4CGO+6nefOmMH8EWnlpIG3y8La4M0OJgbDwUdCb9agFCMKtv7vb6ej/uRvXZ+8T+u5L2BCVCw8v4+BgS9ViOchghiBMi+qKTdriHjqVHpl/UbR8JsimMEfnFRsTw9x5c1nz8hrefe/dWndlFEputXuuTzdHM2lRslLIateDsn4T6fj2atyfvCU7ch4oVFDpD1LxGwp/XTeIpsf3IHL2EIwi0frZLJUVvBqTBMQ8e8lJaEnZiIW0WvcGvrefQVfE35uJeYF2bUjesG7gUeykXn4X0SeeQNSc4dhEvYQqr9TwHgTriAOpV91N5PGn4po3DirKyBk1n6SKPBxLp6F4PJUN4hqBiLccdyah/+mPY/VSinrdTMuKPFg2DQUPimF50/bv9Ug94wpcva4l6qFJOHemSR/v9otvJ/HMswldPh0tY4tciwLEietwUboFIHRrYdgdTtTyIlnhcV9eSiMQdgMN4agECMIbkOcKx33vOMKdDmyPzsFVmBdIN2wsbnyTkVCqONh11d1EnXQqsUsnomSmHQW4df/afeQAgjkeRdHZefoVGJf+l6b/mwHbNtS4DK3zjBeDbd3OIvymoSQu6I+WsyOARYNhhhqF+LfeYM5YWrtu0Pd+kpdPx7n1J/yqI+AcMgGhrIwSyCQQ/JOtx55HyM33krRyDmz6qdqIGw4grABFnLQtj6ZK+p1jiGuShGvheDy6l+LB04mNicY2fSi6R5yzJatpT8WBw7Vx1jRFYttPPf96XBdcQ9Syyey44BqaJcSjLBqNw++RHhcLGlT3vRiIAETmpbcTfuIZhC4Yhau0CEX3kNbzIkKvv524Fx5G+VFwLnT8ouKt9NrVNKK6/d4ak0exUXLVLcQd0xn/48tQMrcdRjhStzEejruPGoBQSTUULkSVnJ7n47/udqLfeRrX52tlJTKzAtqRWkJ7T685DlECZFd8a/TRc2j/9XtUvLa6SsOfxjLWw6Ga+z7ziAIERTTzVdh1VT/CuhxH6PzhhFaUSFMtbVFAwfadkUCzb8Nge4tOOAbPIXnlVJSN6wNhq+o583+PJIPfciAJWHVJtp10PmqfO2g+cxC2sjz0QAvnym3Mjy4qaypgUyAzvg3+UbM49ou15L/2pOldCFwNDxDMUQqvRtp9k0nSFBzLZuLTfWReP4C4404kYtYwjKJCSYCxGh0dSWshRpx10whcnXsQMXsI23v9h4RjuuOaPxxnedker0z1eTEXVammUnDdIJwt2xK1+H4cngp0v5sdKV1Q+o2lxZdv4l8rSpibxE3hjTBTJ02PT8NgBfEkD1kRCTjGPkCRPYzm76yGT976V/sAjxqAUHW5FoVE4xs6G1Uvw7F0EmEVpbKksgkQGsOJzqrEZyp4keYkt994WiQ2QXtoOmpOeiA1qDGM9e/bbI4UQBBvKFKxypUQsvpOIDrERsTSSdgNn1nsaP89eswSuAG2uWgPXhCbgnv8MmJf+R8hX75XJbzQMCbs75uJf+83yRoIio1tl95M2MkXkDDjXlR3+Z7amCZAEI5lkeGkBYiLOrtdMRSMnkX3klIKFo9Hq9K1syEBgqLYZGMwASs9NheZI+aTkvkXtmceRtd1tlx0I4nn9yZu0RiM7MzAhmlyEQ5vdP7gOiHIg7v6T8cVGU3kAyPZdsrlxFx4JbELhqHl56IoBv79kipVilU7xX3H4nQ5iX5wMorgeOhedoYm4R8xh2abvoKXVshWKLqQjQxXNCxvTPLCcJPasjP2QbOpwEaH3z6nYvUSNF34OI4k/Dp86/GoAwg+1SZLdqrC1fXCg4T98pUkt+iKIMqIZdQYNl2LAW+dVzTSk1ujD55KytrncH78NoYiOgKI6Tt6YthHFCAofrJt0bhHLSR++y+EPbPMNL41rM2qTWnKQyLYPe4Rmv/5DfpTDwbK8lr01MO3yINPrp0ExFyKk2e5FkL67SNJSGlNxIz+0p1tOonERhvogCBOqYHJF+DRr4aw7bp7SOzajYjZo1DKCiWPyOqbFJ8Qz6xZs5g+fQZpaWm1G5BY3YrCnLlz2LBxI4+vFL0YRJUGHVVX2O2KpWDcQlr+/BnaG0+Ksp1s6nIh0bfeReKySWipf0ovg3kFvA5HaCvzKyo7hi4kXvHhfHAMmd0uxHHd3cQ9NA5HxpYAQNhXLCLTbLcjjNJBkwgrzCV61QKZ4WUYPnY7YijsN4mWIstrxRxsih9dcLRkXZKGvYQcbYaPP7ueinrLCHRDpU3WZnwPz8DpLvnXcomOKoAgcod3x6TgGzyDmNwd2FbNRa0oCUS/ZKJaA7mjGk45Lfd1heqkYPACElx+lCVT0cryjipwICR6JAGCAJCZCa1h6AJaf/wi/vdfwK9qdYp1VtjsFI1/lBRvId45o2BP8augB6HhVsyhPUl2DXSEUjR0Psn4cMwfiW5UOSEa+h7CYmV/FDOMtLnbudhvvZvmiyajZG7BZghIIYhzkHCIAGHjho2sWrXKrLchK3oapEY1wzdqNu0FkfL/XsHw+/mz/WlE3zWYJoILseUH2UvGrPloXkeq+oZbsZNz/yMkZW9BeWwOu5p3Qes/hZQ3H8X3+XuoIh9oP8QB0WI9MywOY9h0orf+TujzyyUZUUSEfZpGxi0jSYqLQ1s6HofuwZBryqyA23DhBWQpdck1ueg/RJ/dm/zdJbQMs6EvGY9rd06j7n1xKCviKAIIBm7NSf4lN+I/9QJCVy8kavNPskKhaMYklKqxmmlhYISLK/2UPoT3uYEmzz+C98dPUBtZKdVDUcTafPZIAgRh6rNPvhjf1f1IeWwK+qafMLS6AQSPqrGz70QSmqYQOmcElBfV5rWD9/xNEjA3UZ3d0U1wj3iApukb8K2YKTfjwCHc/O+edWf9vSpj/TuT2uIePotmbz2F/dN3TF9DYNNrCICwUgIEc+tT8bGtRVds/cbS/PXH8X39kdwQ/0rpSvjACTR5ZgnKH19IgGAVjLd8VQ19uq5pekTN0CJHJIXjFtFkw/fYX1pBXnQL9NHzaP7jWspfWI6qOPZ76hevmxHeFPvo2TT54WP0V58M1HdQpLN3e5++JB57AqGi2mxp3h6AYPlVG9Kml2s2dt4wgKZdu5Px1zZSWrdFeWgCrqwdDcZ0qEmWf/fvjxqAIKL6hU07UjFgAlHbN6A9vgi7r0KiUXPRNW5XvRj/jvAm+IZMo+3OrXgen4/WyAqhHG7lPZIAwa9C/vUDMTqfSNTsgTjLCmSvjrpcIiG15BFCAAAgAElEQVRqywXXE3/eZcQvnoievfUIOXzrMuqj614BBHOadcTTbypxn72B/f3nZahAxLZlFH+Py16kIYuuhFaYSacwNI6SMQ/RsmArnsXTUA23WQcDlYSEuEMKMZgehMfNqluyqJCb1JN74exzG4lPLYQ/fpQTtTWuFc4RM2n26iqM7z+QPSXqpqUNO9+mB9RPVng83tGLSPz6PbS3X6BI2LLhs4nftRFjxRw04wCEQkUnPaEj9qFTSHr/efj4jUrPgKqQfuZVhF9yFbFLJqNnbQdRlXFPymRDvotBic1F8YDpJMW42PrFV0Sf04vIJ2ajbf4zUBm1IeFIQ469/s/6VwAEq37AgcUgclcdFFx9F0b3M4l4cBKR2Vvwyg3WjM2ZhKPGOcHWqLyGg+zr7iTs+BOIeWAaZNc+lll/FWk8nzwSAMFyU5ZpKjn9phIVabZsdsoCSXUDlWKz2NzzLMKv70/KIzNQUn+pUkWz8cj5aB6JqHWxs/Op+G8dTsiqecT8KbJNxKHVLL8ecCEESH/m9m9yEwwqtFAy75xGUstYnDNHoJbvlq2KBb0tISH2kACC4CA8sfIJk5wsUx297Lj8dlynXELEI5NxZPwph7YttAnq+EWkvPscts/fPuIA1LTNfrZHJaKMXErzdS9gvP8GZc5ISvpNJioMXHNGYhN8jSpt0i0dFN7d7Z3PwHHLQJKfXoz++zcyrCeeKSqYpnU7HcfNA2m++kE8v3+LguBm1W1d1k7f/ZSExVIyfCGx2RtJ++J7wm66m+TnFqP//EMga6VufCJJd5UA00zL/Ls9O7V7b+jVuxdX9unD4MGDcbtNPo51KR07dNqza06ZMoXk5CQGDBiIzycmonFfFnPXj5/s1j2g70iifv2e0GcXy9kQ8UHZTlQG9szpaRyTVIVzHOgFIcMMhsKO5I74h46j0w/rKHtxlTzd+BRhhv79V30BgpDMzJkzpM7WtVCSBRB2hURTPnQ20RmbiH9qiayWZxVlqa3kxSbzZ5M22EfMoeXTD6L9+sWeumy1fUbV+6yqmw2VyFW3MVhmYe8VUzNcr9v3/L13i/TEv064mKgrb8W5ZBzhBwXh1ruaWQIqDjadfg0xl11GnKhZsmtrIDxhJ/4QAcIfAYAgdhKzZJefHbeNJLFdV4zF43Dl7ZR2INsVR8WYhbT96TP8bzwuG4UdilWrnqFjkjTrlg1h0jo3JwjPxjySXnwIdf1nlNlC8Nw1Hq1ZMhHT7sPm80oAJnhie8BBAD5nnHk1tkuvJf6hKWg7NssK0mYdCoMdCS1QR4oeDW9T8fbz0pabGWkNfekUx7aieORsmv+6jr+++AKt/wRarVmO79uP5dhr29CvkjYqEud0QSipQli2dqHGsBNpeFSdq669lsvPu4AhQwRAcP87AIKl2EJVyhwh+G4egad5c0IemUlEdmpgQQuIINt8NBJgYMneUnCTNLlH8RQo0ELJv30YSYnx6HPuJ0wXKVjCOJmpkaZLTzaea9RXfQhERxIgbI9rgWPETGI+eZPw91+S55S9+/rVJHCRJbMtIh5j7BJafrgG9ZPXq5XtrenzVX9vyc/SjarTXTVzoi7PrOlea6sx24uJtVPZDt3chKyc+38uXBVs9dRetxBz8hmETh+Ow1dSk1jk74U/yW5obGzWGdeA8TR7/kH8P38pT5bCuhwqB8HMYhAhBtNauVXYec8MmkZH4F8yjpCKMnmAKLSHUDh2Ma23bsDz3GLZtr6+l2lDLasiSk2bB6m6WUtz49zU8STC7hhO4qq52Df/SIWhkXnBjYSddxEJMwaglRajqEYAIMhj2x5CZealt+E4+VyiF45CKxSt0lVJGhRIITc0Fu/I+bT+6yc8zy4N6GT93/nAsjIoaNqZssETiH7jCbI3/oIxdB4dPnkV90ev7SlGVVswJobvszmJO+0C/Pm5FP72HYZo+xYw4HWTcX1nuKbPaZTZNO7s25eze3Rn8OBBeP8tAMFctCJsoJPb/XSMa+8i4ut1hLz1FBheaeBMRTOn4nCoVE3iP9DvrSoIlUpiEpMk6cmAHT3OxvGfO2j53muUf/qaVCqLDHXgnPz6jqbhPmf2w5SOtQCYMbkftcXKRwIgCHmK9tvbepxJ6A39iH7uIRy/flUvjrQwtnmai4JxD9Bp53a8jy+S6Vp1uUxZmXFvs6kXiBQy67J+Olz1QK06gmaRaKszgeV9E789HF1P6yKhQ7vXq6pk3DGWJvGxOOaNwyYzGA5+ybcPlPnNCk/EPXoenTZ9R8mzD8tNTEjpUAGC4CAIkqLgIKhoFGkKeQMX0JRyeHgaTp9XnpzLNTtZI+ZzjLeCwocm4PDWL0fftImVOQ9WK/PaboCVEjO3+k3dzyX2P32JfmwWjr9+wSOKPHU9C9fNg0haOAwtZ+eegk7WZ03nqUbmjQMJa9WJqMVjUMoqib3CkhTYXZTeN52mvlLU5VPQ/YZMDW3oS1iszI4not45jNj/zaYsO5P8YfNpu/4D/G8/L+2a2aWhpvCGCenFP1nHnIB6az+alJbA8rmQK8iO1tXw71BXmYgR5DrD6D94COe0aylDDP8igKDgN6A0JJTS+yYRbnPgWLEAe36G3JL2nM0Vq/mGeQKq+wKoq9jrfr9qmP4BwZEQIyxyxlA4dBrNPWUoi8bKHOL9XYfrJFmXN6jqiBam0q1qGGFhEpjZfB40dzmabtWgEE8+8AI7EgBBjEi4abdeeSdxJ5+HY8lEXFnbpBGq8yZsGJQpKrnD5tLUpqItGofir3kDqipvoaVeVcMfFoXuLcdVYZ5wRZzbBA3VGk3XZar2uVcaskAGjYDTojGVeaI0wYmArKJgkFhNld6UQ3NpH9KAG+DDZQ4n2aMeIDkvE/ujM2WWk1JDtpD0EItaCIqGXwthx7AZNHUo2BeMQ/d4pK051DoIFkCQiZOqjSLNRsHoB2mWnYqycg42AVBE4EGxkzF8Pm1cDsrnj5RVB60jUOVarK3vy2pLJBFQlVmvnaDN7ori7XU2n3k1Cb2uIfThyYTt2ILH0Elt2wP7PRNpvmIa/PVbAJCYz7b6n/hxsuPeUcSGxxH64DhsHnc14CLlcNNoIpolETF/OJoFiKpxRmo33oPdJWpPpJ7Um5CrbiFy9jCM8iJ2jVxM+60/4n1xeUD+5jo8+GWuUpH2WfDf/lT0OBNN9dN09QK0n78x0ykPfbgN8gSha5kRsfQbNopeKXEMGTIUd0VFtWf/QzkIZq10sWDzT7kE7+X/JeLdlwgTpB2/D0U1T+NmyROzRpZ5NZZKipU5vFKdAgVXzLO38BbYSD37OiIuupT4RyZjT9siN1zL82Bts3XewBpErSofYroBA5uWMwxvu67Yjz8Nb0orOTd2w4MrYxva+i/wbfodw6iQxCPhJhExPbEJW/FE8e4WQHj55TW8V4dmTWJE9eUgiM8K1216vykkxSegLBiHo6JAjq/uXiczGJRx2yjC27QjfPZwbIEN/mCir4xZmh6X3T3PIOKC3jg8PpSnl2Hkpct0tobwHpjeKDMsKlzKZZFNsPe+GjUuDvsv6/F8+zGqAKY6GLJKdHU/l7WVNLAq/S2PE9LdHR5Nwf0P0er3b1CfXYYu2gjXABDkrIhia0Icqkb6dfcSctxJJCy6HyNnp5yXuAaog/C48CAIm6XaybOFUHz/gyT//g3ONctRZFVPMRIbqX0n0LRZc7R5I9FE34IAUdASogDq+y/xValplh+o7jpufkslWDWB9JbL7yDllLMxFo8lMncXPkMnI7ktytC5tH9tJeVfvS/Tzc2IiPWtBuVqKFnDphNfUYbzkSnYZZ2Dypo15YrGzktuIeyUM4mZPwx7ScGej9c0b3VRKgGEt192B+EnnkWkCIn4PKSNXkrbnX/hffoBHLp1uKxpezfXS4EjAs/wWYQZKpkRkbT78i30d1+UDfos+dVlfIfjXnEYyIhryn0jRnNpfAhDhw6jvLz8nw4QAvXOFJ3dYQn4h83FsXsX2hMLCS/dLd1z5lI2AYG5UKqegGqa4MMxFft/ptjwzdGKBWOCGIsznZ3YAf+QCbTb8QfljywEaSAql319F3ZDvZ3EBrqBSA/0JLQirM9NZLfpREV5Be5d6RheD1p4NMQlEuPSaLP5V3a/uBKjNF+mj1UtQmONaQ9AeOll3lv7Xo2Gu+q71A8gmONwqy6yxz5I/M4tuFYtFNHDPVX06iIvcfi2KwoZl98CZ/QiZdEY/FkHz0SxAKIlkdK4FpQPnYzHXUZFZDgn7Ehn9/Lp4DEb3tQfFFomXeiQeRp1hyai9B1JdlJz9OISnFEhtPri/ygVVfsC5Wisk574s9VV4kjrXl3mZO97c5LbUDJkFu0+fQ3/ey/KvPqqqY0HerY5T+JQAlvbdEe5dwztn3sQ/cev5W7ZEB4ECyCI9NpMeyTlk5bS/Ou1ON59XpYeNpkhKhnX9yeq63FELhyLUZgrLYfMfhCphBLYVt3MzHm3bIdInbYAhOUfsrK7qnoDaytjqU2Kytb/DqJlx2PwLx5LaEEhum6Ql9CU8lGLaP/pW5S++zRaAJlahwKZcuqMpHz4PBJT/8T+3BJUkZZe5YwteDBpJ5yH6+rbiVk6EceuLXXkSNTuTURIJOOmoSS3boc+dwQ2r4fMQbNpVVGEd+UcHIJsWOORIRBeUHTyYpuiD59D8vefsbVTT9rlpOJ+YhGa12OS5hvBJfoTpaV0YODIEfQK598BEIQC+RVRLtVF4dX34Dj+DEIem0Po5p8D2QridGpFcSu31MYxJaZWVC5Ey2cgTK85Qun3UFTKFAc5V99B7ImnETlzBFpRtiT4yLCCOAE2oKu5froqRqCS07kn3HCnrDroeP9djC8/IMIoxqYLHraLHEcI7rMuwX7+tcSVZuFbMZfQ7EzsfgEuRHukypCDBRBeeukl1q5dexgBgiVrc7PMj0ym+P6lxL/zLK51bwY65NVPKpqi8NcxJ2G7axQdnlhIueQzHOwSNf9FwR2NCtVg92V3oJx8PrZHZpPfoj2hV91EixVT0f/8SVajqz9AqNQYsc1U2GzkXNkX9ylnE/nUQ5Rv2oDy33tROh1Dlw9fJP/9N9E0k7RmnvoC7qL6iaVRfEq8QWbXU/DePIzWax7B+906VEOkFdbGOohUabEN62x3RMGkpbT54RP0V56QBc3iG6AOggAIZqllSI9IxjdhESmvr8L51QdmeQQR6FAU0s+7htCLrqDp4vG4s7bLcWk4KOx8AvHt2lL80VpsJTmBQKv5blYN2VLVhe+YY3HZXDh+/g4F4dUT+mduy7WRxN5WzK3a2HHX/bRNbop74Qgc5WXy8FAUFkXuqIV03r6B0qcfQPWJ0tImr0bylBQfOyKbog2dS+L3n6C+/bRlAffoi6Jo7GjdBe4eQ7t3nqXss7dqOV91U7lS1UHuoCm0tNnxLp4iy29n3H0/KeEOlIemYfNWZ/fv7+nWMhG7zq42XVH6jqXVC4+y+cQLaJHcBN/8MabHp/ZCrttL1PFuofsZXU6l/9130ytMZ+jQoZSX1yrEMGA/aY6Wgaj63zqO6BBur9xGdLzY2NWuO/o940jc8A3qUw9i94kJ3P/J9BC+9jB/1IQKlVkWVhjBLNCyvXkX1EHT6PbZ6xS+9qR50pHadeTPcALZ53Q5Fe8NdxKVl4P/1aeIyPhVFncS0Ww/vsDPCqJCWUank1BvHkKCt5SQVQtQ0zaD7t0vQHj55Zd5773D6UEIhA8UcerS2XbM6ah3jKLpqlk4NvxY7xQRM8DgZ0tkM7T7F9L2vWfxffJWjQBB+o0MhV1OFxUj5xObn0PkozPJUqLIn7iIrtt/xvPkItPbZBX/r6dmWtAoq2l7/EOnE7vpW0JWP4Lf72a3I4H8OwfRJCYKbeFYQstLzTBQNY1r2CY59XyNen1MvHvq2ZfjuuRm4lZMwbFlkwTdhkktr+Gytk8v+bYQ8obOpVnRbmyrZmH3CQ5C/esgzBW9GDZsRHoQFBWfYZDZvieee8fS/Ik5OH77XhJGxcFArK6dZ1yOr89/aL1kIp4df8pU6HItiuIxs/HFxNJkzeNoX/9f4H0q302Ai4Ke51B+7a2E6iqhjy0gZOsv0mqK31X6mGqSRdXfi8Oag+z+s2gbHYZb8AQ8Hgy/Tpndyc5Ri+huVFC0aByqx2+SmGWYSwAED6nJPbD3H0/i2udwrHsjkFpcuYOKUWXHpVA2bCadf/iMkldWHZIf7UBvVuaKJGvEXFpn78D92ExEj4hdt40kITkZdeFYnN7qG+eBJWR6QLb1OAf7DfeQvGwC27ufS5NTz8L14ATUrIw6gLC6zEPd7xVS3n7mZQy68iouDffWDBCmTplCbNOWjJ42E6/Pg7cgD0OQYGR3LTPYbFFZDk+xigO/ZFWAUBwSQ8XdY3HHNyF02TSis7f/K044JsCxWlIbFDoiKBw8l6ahGvZF90NJQSDIUN1k1101avrE3kQ0a8EGOO7Cw9HmWMpvHoa/OBfb88uIzNyOI8CSECcqUZnOyrgQW0y5aiO1bU/Cbx1BUt6f2J9chpGfGQiymNoUExPD3HlzWfPyGt6tMwdhFhVoTJw6DUdFGYom8qhrek8dn6KR9d9BOLqcQsyiUdhzMw+hoJbpscoKiaF09Hza/PI5yqtP1DQI+XtNV8k69kSKbx9KyhvPYvv8dfyEkjZ4Eikx8TgWjUUtzg0QA2r1yAPeZAiAfdkt+E8/h9CFY4nP2YlPdspT2NnuBPQ7h9Bz8/fkPb5UutUlJJVkX3EdTh5Pdb1raCgs3iTz2r6EdT0N58LhhBYXYoiYcK1zhs31WaHayLxtFM1atkNdMgp7fjHx8bHMmj2d6dNnVWnWVDOhU1MM5s2dzx8bNsgsBkVVJfl658mX4L3uTlo8Mgn1r98QJ2lT/grbu5yO79ZBHLNqDmWb1mNXYGdUc9xjFuF1hNFh/Tvozz0q491i3iTfRHiNVCf519xF+fHnS/Jsx9Sf0FfMx6vrezID9rdkTOArelSogfCgdRAzVazM7qB4zEM095VRLgCCWHi6+D476f2n0iE2Et+C0ahl5ZJqK3hIIvtMFIPa1vVCXDfeQ/QLSwj7+XN0RJEo095IwKIosplT7tBZ9CgroVA0qarSSfPQVoL5afE9BaHR5InskPQtlD8zV1DZ2HXtQOK7dUedORxnhciuqI1GCh+TRuo5VxN24dXEzh1EWuvjiLnhTqJXz4UNv9QqpHUo72Xx78y5FDO3r2fIBIMaWy+/mYHnnsPlYW5JUqw4MEnRYOqUaZR2PI4Hft9KjiMCZ0UFjoIcHNv+wr/hO4yMNBBISnRGDPyvRht8KG9a5bMWQKhQVPJPPQ/jirsJeecFwj9/C7vfasv7d42mgV7qoI8x5Oa1teMZOO+4jxZrVqB8+5FEtmbMsGEzMir9QmIjqJrKVvVcIfvMURjfHO6YgK56sa9eQsTOzdVQscwA2Gd3NihT7WT1vBDtiv/SZsfv+FYtBW+5PL3YDIOYmOgAQHiljgDBYMbMueQmNOfhP7difLgW/89fYRh+OY6DxZhLbKEUjV9Ik+IyjKUTsHsr6g0QhAPap9gotrvIGzab1jm7UB+fbwLsKnNd9WfL6PsMhewb7kPtfiKxc0ZjK8mVzZ62dz2H8Bv70eLlByn/8bNasKhr1s3i0Fh2D5tJcnEetiWTUYUnJRBjL9FC2HXN3cR1P5GIhyaj7UoLxK8tUFp7/2jt7xTfbgZPhM6LcIsmzKzYCCRT0vSo1f8yPXNuzc7OW0cTF5+Ic/FYbD43WoA0Vpdn+3U/GWf1IaLXf4h/Zj76H7+TGB/HzNmTmD59NmlpGQGfi+VtObAkhMt93txF/Lh1O08tX4YmsyVUsi67E/WsC0iaNxJk+3fTAorw487Wx+LtO47WLy3D++M6+Zst3c/FeX1/SQ5uX5RO2YJR2AXjX8ZbxTh8FNhjKRoyiRCPTnlpMeFtWhM7YzBKean5bLFmA0OtXoxIlQBCOi91UUCsSl8bw6A4LJyy0Q/RJjeN0oenyrCNWHcirr+99500OfUMIhaMQi3IDSRzmwdN0SAt9cKbSTirN9ojkwjL2LanO6Y1HjFzbtVB2k1DaNmqA8rc4di95ngb7FIMcmOb4R4xj3bffUzZ64/h1w2yr+lP5PEnwYxhhJYWBKop1vytFYqNzMtuJ/a4kwmZdR+ZzboQdvdoYt9cge2bj+sUyKn526w7LB2rJOcbhpg3sZJM1knVS1YORSX15iHcd/yxXCE8CINrAAiTp0zF1qodU195k92OcJSYJPyxTXCHhqE6nURmpaF9+gGO7b8T4ikPIDw5lXt9ee1fq7Z3yipcIraT0JyyW4YSW7Qb1xOLCPUJD4f5FJPst7/rUIxLbUfYsPeZG7bCbmc0mQMn07owG8dTD+LwlO6J4cnV3EABLSlDqWNWQVSLFxGADiIfH53CkDCKr+0PKR1IemsVrt+/kVUHa1v4Q7gjd5zSG+PcXqR8+Rb2j9dgN+xy5qKjI5k8eQprXq49QDBHZzBzxhwKouMYnesj0u4i/MklODP/2kNQla+3l6wEhTUrMoHCwTNp/+MXaO88i6qbZND6aYzgx2h4FZW/bh1OC1cUrsemY/dVpjqaNMPKp4tFqiomWSvzttE0dZcSu3qBzPTQFC/poS3YPXAS7X75ENd7L5lpiPWYc+HNkT0HRFOwLidR0uceOv7fM6hff1T9BG1AelIrCu8YQ/MdfxDxzCNmZpC5hdTCuNVPcuLpFbYQcrucQEj7Tni3bST2l/U4vaJQmNic6vtc8zwlxp5vD2HnHRNJcucTuXoRdrlx7p/vf9DVrMD2xHaU3TmKjl+8jrruXWKjYxk/aSQzps8lPTUdIwC6TN/YQaCSojB33kJ+tofz+soVuLb8QZmqsu3GoYQ3b0XissnYSgvM0FIgJTUjOonC+ybT+dNX0L7+UG7sv5x7A4knnEXOrkySEmNIWDEDCnebryHXp0FWbBvy7hlBx1/X8+eWTRjX30unZxahbf2jWlGwvbV/Z1RTHO064vp9PeEVxaZnLqCDhq6THx5NzoC5tNr8Pc7Xn5B1aMQtogLI5h4Xol1+A61FNlaucK8HgI7wHwi+ztX9SGrZjjCRypmfgyYy0ASmEd6PgPdKVzU2ndgLxwVXkrx8GqF5FgALvJ6Yw3qsico51klP6UD5bWNo9/HLKF+tlbbur7OuI+qMc4l5bC62nAx5iKnJMIj1VaI5SO9zD4nNmhP9yDjSopvjvX00zb9fS9gnbxymSpCVbyNs8W5nOGVtOxNRmEP4zjRUQcYVt1RZR6Kl9aZbRnJ3hxT6hPsYJgDCwbIYBEBISW7G/x5bgVf34lfFy4aQExLJzpbtKGjRGacrnBYFO0nZ+C1hmdv2nN5r2h73xDLrgdiljhtQ7Axn4ykXURTXjC6fvUbT3RloIkVJkGwkO/dAV32NS01vdfh/Lzwmn3c7D3+7bpz2zXtEZvwe2MDEe++76dVvRJUhBCv/vXLpWWtCxS1cUt3OYHvHE2j90ye0+etH7KIQ0B5vwcGLiJglZEVxjhDWn9wHV0I8J3zxKlHZ2/H5ISwinNtuvZ1X6hBisDwfM2fMxLA7mPThd2Sc3YfmFbkc+9GL2CrcEsCIkIeVFmW11BVpfhvi27Hx/Os5/fNXSMrYKF+7No7EmuT8+WlXQpMWdH93JeHlZVVu35tmKLwnXv5s0p4/zrmWzhu+pMPvn0u4K4jT5YTy4SW3kUQZJ7z/AooheBvmfO3rpTnYqER+D1SoGt+e2puKuBac8H+riS4rChisyjVSotr4pvu5VLQ/jvM/eRVnjmCOm6fh6smf+5dUfUrhelQ7W485lS2dT8Tr86G57PTcvoHkb94F3YemiDRPy5tVk/Sr/z5A7SXDEcrPlw6gVcZPtP32PZyB9OK6UPOk3EVjOFsMn156C8fkpNL+i9eJjojkxpuvY+bM+VUAwsHHaxpsldnz5vBpWArf/PIb7b55n1LNxicX304TxaDr+0+heYTXNgAQBLHMFcP6Pv04/rfPaPb7V/gUlQ8vuIkUu4PcHWl4j+nK+R88j233zsDSFE5vnY0px7LhzF6c8+3HZOVlsOHiOzhz0zfE/fpZgN9iAcCAt8jQKba52HjSxWS3OIbj034h8euPsAUyqsQ8iztzwuL5svdd9Nz6A83Wf4RNMT0IYkv6o0knNl9wLed8uJqonHQZYrC0RtQK+PiiW2mql9PuwzU4fOVmgmbVhlmBn/+Mb8Uf5/+XE9evJWnz+n1OxHXTCOtuszmX8DT+kdKRtNOv4ZRvXiMm7U/Jkfi+4xmUdT2eHh+/RFSeADc11UAwvTB5zlB+OPdGmigKx7zzKNtD49h64c203bGZdj+8f1g4FJbdEqvUbdjY1OVktnc/hdaFubT/6FVcZcUmpgtU6hT3C2Lmxxffwu1xoVwd7mXwoGG43dW9M3vVQZhKUlISEyZMwC8qd1nmUjEQZ6DUkBh2d+iO7cxLiXGF0m3Lz5SsfQmjdHdgFxF9DyxDU31TNidCbvW1n8vAApaeLUWl8NxryT7xPEK/eZ+Uda9JXkTVLelgTz4kgFn7ETf4nWIJbg1JpLDvWNpnbSbyhUela05UIDNdh5ZqHNpXWyls1uIVYQaBmIX7X5hEn8iZ73A8O/vcjiN1C4mvPEKIMFwBo12bnGRVEuxMQ7c5oQ1FN/ajY0UhrhXzUP1u4uNiGDNuXJ04CBbPYcbMGRIEzF6wkF9bHofz+n50++YdjHVvVuHNmCcA6wCkqyrp517B7pN70+nRqbh2Z8rYqZToISiMWAIbTrkU7ZzetH12AWp6mjz5m/zCfbVUZOZsO/VSys6+kpYvPkjo1l/NMQhegDCyVw4ksn0HWv5vBkZBtskFqplgsZdCmGuz0BZCer/pxO3cRvLLD8uTuTwYGYHWVPOVko4AACAASURBVHJ4Cluioym+expdSnKxr16EUlGIH4eEeLVZwbUTn1U+XKHw2FPJ6n0T2tZN8NarFJ5yBqEnnsQxa1aibPktYDvqFrSosg1IUJ0aFk3hoDm0++odwta9WTdbVE2aKj7VxS/X3EOrpsmEL5tKSpST0WPHMW3aTFLT0gLFTQ4MPYQMpW9BUZk5fzqfhrbitawCkh+dTZmhsnXANJI2/0b0u6ux+c3aAMKHJ/QoMySK9L5T6fLndzg/eEG64Df3m0bHsnzSf1xP+UV96Pb8w6jbRXEisy67+J5tp11B+akX0vzxhfgKd7H9nqm0VUsJXbkApaxE6pQ1tyIbx2YopCakUH77SIrtUTQpzyL24cmEeDyyvoxQUEGuzYtvSca9E2n21mqif/oYe6CuhCBVpkU1Y+c9E+jxwZPYf/xaFpwyLQoUq5FsHT6HlF8/I/6D11EN0X3XErTZi8G0Kwr54TGk3T2ZY705GMtno8kCZFX1oe66Yeqo+blt3c7Ec/GNNH1qNq6daRIKbDvxItRzL6Ppy48Quu13RBiwpktIMC86npxbxxKTmU7yy0vICYkl+8YhNC3KJvLlR2UY6VAuM00cdGm0TYq7VTZb2J680EiKbxlMVlwbwg0f7V/7H9rGbyVxVMjTaime7wgj9Z6J3Bvr4vowDwMHD6fcXb30+L6FkpKSGDRoEB5ZscqaJNOwSxVVVPJCY6m44Cq00y4mpiSXkJdWoG38VaaGyEEf8mVtU4okvPgVg7wOJ+C+eRBRGVtRHp9PuHC1q1odT1GHPLAj8AADt6Kyq09fIk86i9jHZuPf9ht+nx+7Jgg9DXGJRsXiEucMa41Wgi8BSIoikynvOwFF04hcPg1XwS65gFW1BhfqXsMTHAoxn8I8bjvxAhzX3kqHj17H895LxMRGMXvefNa8/HIdOQggAII/0KypwBlC8YDJJEbFYxdNdfKyrAOYaZwCvSxK7C7KB0/BGZVI2PT+aLVmKh9Y5iK3WMgwvXU3bAPG0+HN1RSte8esIWB1drPcs7L4juhaZyPz9jHEdehG2IKhKPm50sUZiNSy7bgLcP23H8lPL0T99TszLa3OleRUVMNDZqtjKb9vEi1efxrtK5Fhsa/RMw24yl8nnIHt+oF0/fwNit98xuzFIAyMtAsKqi4Mk9m1QhBTratWng2RXhjYZPKdYZQPmE6oy4XtgalEVGSSFpaEZ9RCjtm9g9KHp2ATdSBqKGh04FkxOQg7Op2A/84RNHtyCY7fv5WbXG3Azt7PFadckWq97ez/EHPxFcSsmkN80S7mTJ/DtBkzSEsze8FUley+acni/W3SWM+aP4uvnMk8XO6gzeolZGSkUjFyHin/9xLKxyLt1moUJETmJc8RRv7wRTTL/B3bM8spDYmmbMKDdEr7jd/efRtvv7F0euNJfF+/K3kADt3Aq2jsumEg4Z16ELpoPGrxTrZ0vwDbjXcT/8pqlB+/INxdFuiWaNZKELq8/YzLCLn8FtzffYF+8okkPTIVV+pfewCbAJe7m3WgYPAMWjy3GPsvX2DsKYdsUBCWSO74xbT+8l2Mt5+R60AzNPIdTrLan4nrlttIeWEZyo+fycJdIgxW7RJeUsFn0FS2nXUtMb2vJfzZ5VRs20BYcT4u3b2HPF8fSyhsgeDfZ5xxGeGXXE/kQ2NRszKlJUxvfzKuOwaR+OoqlG/XBbzUB080Fu+XndgS36ApxP+xHsdzD1KhRZB9x3CS42MwHrgfm7t6MaL9jdtsDmVeAX9OIAKsyq6Tms+Hy1skD4niPpmII8NaGtlN28GAifg3b6aiUxda/fgJnhcflTUmbAE/nKjnsSMiGW34TO6J0Lks3MfQQcMp91T1dsJ+KykOGjgIt0e0fQz4EPZamKKrmEd1kNO6O9q1txMSGUHcN5+gf/gKtmKzCp1Mm9lzaqrP1AVQEgqF4fFUDBhPmM2BsXIu4bvSZFnY+kaK6zOaI/UZIQVhjDKatEHrP5WU37/D/+LDGH6vDK9UVaT6jtE0B+KqntIm8qvF6cOj2Ci4+l78Pc8g/JVHCV3/mekI2OsUW+tTbSBVs9AZTkXfiWhJCcQvnEACFcyaN49X6gEQRKEkv9/PpEmTJQBIb9MD/Z5RtF/3Nt53XpBxWBmD35OJo5ATHYt/zAPE//Ez2tOLJZnwUK49KB6F3MgmFI9ZSIev1uJ5c3WgcmRgsVcLZfooV0LJHbOYxJICbA9NMAvfKHrAGeeXHT7VwTNo+vlr6G89u2eIdd0whRHJvPw2tDPOJ/aByai7tu7jKQl4IeWJxKM5ybh9FFGtOhD75mp8330mq2NanTZE6p0Zj7Za8NZ8wjK1TOiOKLAjPGE+Ms+6Gi7/L9GvPU3Ilx9KIOVXfKT2upmIM3vTZOUsjD9/rZdXx+pqISLiWedfg3HxNTRZOB5NdHHcU7Dr4LO+954lCwwpOpktT0C5dxTJ//cKCT+vY+7MuUyeOY301NRqD9x/zRITIIiFN2/uPN5Ny+HJJj055rdP+fnLD7GJ/gOr5+LY8HMVkqgJ3QrVEAoHzqS5UYz+4FSK4lMoHzmf5p+9RurH/4dv/BI6ffkmnndepNww/T6C+5PfdwwxYeHYl4geDhXkO+IpHDIBNTGRxKICIl58DO+m9RiKCVxENkXGLSOJat6cshcep+Lu0XRY9xJewYURFjjg4c1r35OSO0eR+OhkQrb9LomlUjcU0UgvjLwxi2iXl07Z8png91MUlYjjnqHkx7clsTgfY+kUHMXZUjP2VwpMkO10xUt2RCL0n4weEydDIs2EB3v1I7j2OvXWbg1bEE6RxNhdvW/EdcLphC4ajbN4t0zUTu9wIq47RhL9+pPYvhbkwloUSzL87GzRDaX/OBI+eRXtvZcwFBc7bh5ETLtOuBaNwV4suCEHXyt7g2zLtuQ1bY96S38S3BV4heenOAcVewBICJuhkn7s6fKe8Ocfo+TCy2mq+vAsnYxaViLJplbdldSWxxJ513D+693FVSnRDBk0FLenFpUUDw4QTJakOHOK8hw745rivuQ6orqcQHL6Bnj9Kfw7tkvjJjgMdQop7DOzBqWhsTJHvbBpMxwvLCf8l2+xia5YtdOCf8ldOiWai9wr+xLTrQexy6ZTkZWKLdBJ7lBfsurGLgqmWMxusZm6dMjqfArlN/UjbMMPOF/4Hy6/VzJ6a3VSrDI4c0lU4mERTd/R/Bj8g2fT7cdPsa19lvlzZtTLg1AVIAh3QaHmIu/2kbRo0gTbg1PxF+fInvRCL6188uxjT8Zz8yDilk4ndMemQ9TVgKYrwiOg4VFCyZ64mJTtG1CfXIgmja4ujW71y8eukCaUTVhMwidvE/7B84FqeKIvgjnWna5ojFHzSM7cgu1/syTL3zrN12XuRZw//76phIU6cC6ehMNbVu0EbZksKz9GANDU6JZ47hhITGwiCWmbcOXtMk8tGVsp//MHfAVFiNCRLkFCzTFaa7ymT1KnVHOSN3wOUWioy2cQXmIy3QUpb1tMIurQuXTc8DXlL4hyw3U97wdCWnKL9ZJ70zDo2I24WcOxuUvNGqYmwqmLGAP36mSFxuMW2SDZGSS9upJ5M2cxeeYkMtLS9zzzwBYwkOEgSYpz+GzzNpY4WtHcZpC67n1c1/Ujafn92FIF/6NyMxMbd4niIO+eySS6bDgenEBuUnPKB00n+cWHKfj1R8ruX0qr3z7HeGWlBGKC+7PbEULF4OlE52fhEB0X/Tq6TSUjsjneY3piv6gPbTI34V45T+6DwroXOqIoHDKDmNxtuF96EveIBXTN20LeshlyzoXGC/7DrmPPxH/jvSSLFMT0jWhmVw8pJ7fmIGf4bFo7VNzzRuP3esk++1LUi2/C88lbhK//jJi8dNOei7Cp1KO9L6FfZhOrjOhk/C3b4ml7HPHHn0z8Kyvwf/9JjZ1XA3WmAqBbyNPKMBH9Y+zkXH8fIe07ELZgDPayQhMgtOqBve9YEv9vDUhPzsG9B/IwJ/obdD4Nx62DiHnuQWw/fyXX/tbzbyDs7Etosnwi+g4rLb92amdpvSB1lt84mOLuZ+HQPbR65zlKP31d8lP29OMQZePPvYbQ83thXzKZ3SeeQ9IpZ+N8bAZqemU5AMGn2N7zXKKvuYWrczZx7TGtGDpoCG4ZNq686uFBqLqgzLzv3a5wio4/D+eFVxHnLyH0zWfRf/rWLP9Zp8viG5tUuXKni/JLbsJ7yoVobzxB1Dcf/D975wEfVbWt8f+ZnmTSSSGhdwUBQUSs2AAFAUWxIAiiFOm9l9B7FxBFQAQL8FTEiiJWFMQuokgJKRBI75lMeb+990wKdUITvTnvd+/jwplz9lm7fXutb30Lg0PUFT+dLlWm1/wLbxZn/LhKddAGTKDOr19TsH4lDkFY03m/KHvz2cr5X8xtSPcJwNZ3KnqzDvPqmfglHUMngV/ZAYJ6v2dMKFd1vs6HuIf6ENT4JupuW8msnl3KxEHwfFNpgKCTBaION7wDc5feVP78XQo+eN29CKm1O19n4eQjz2K8tgFhk/qjkyybi73ENLXhwojTZeZwr7FUCfRHv2AYBhGyVZHbUrx5UQL20DW3oO82hEobF2P69Rt5AnPoFEAQ/ZGtM3HiycFUqlIFy/SBMpYoPQxldLknWMPQj56P/+4dWLeu9cK9LrZQPUnBlcm/5V60evUx+AfIVDuTUU9U5jHy31iH8dAfMh7tkgRK76C7Z9M72eA2crr0JfStdZh2f4pZSQbK7SUbMyd6DKdqlWhcQgciM/2COkg8y6bBiT6TCQjwJ3D+WFz2Asm/ELyVsgAbTwNk+wxmjj86kMhqNan08ixmTxFpjuNJiE1U5Yq9uMSGP2vOTH76Yz/TkjWsze8k88jfBFWvTaBI6csQiohqi5DRZlHRUdOR0HU0FStVRrd0LMnRtXD2GCHd/1kJh8kcNIvolFhM6+bJ06LokzhrBRgyg6CfvsF368vS1Sxc+qLui2Ddn7y7E6F33E3ICzNwxP4p35hY+Tp0vYZT4Yt3ydu5jeO9Y7g+yJfMOaPR5+fITdsmTt83t4P2jxMxazDGjOPonCotUs52nY5DTwymSs166JeOITcnj/ReYwj1C6Zw4UiC8nPd3JzzHSZFi0T0XnDj9JwMrkph/wlUT9iP7eW5pQqTn9/sxQBBnLiz9CYyuw3HNzwEn7mjMDht8vCVEFEbV9/xRH23He2DYs/duZ/vJLbJPfg90hPrysmYYw/Iw9TRRveif6wnNdbNIv+PH85ZtO7Mz3eQbPRHGzEXR3o62YFB1D4eS966+RidIsygQn2imFfsI/0Ir1kTbcE4EqvUJaD7UMK3rIAfviqRjaTjyL1dqHD7vbSP3UPnZg0YNHAABQUiclA8eEsBhCkxMURERiA8CIqDcP7L0602zcSJiOpoXZ7BWCGaCj/uoODj/8OSkSJfKN27TiWeI+KVJTXePUQ3T8xVbIZZfoHk3PswuptaEbJnJ9o7qzHYPejGy9l3/ub/a+4QQzpXb5Zkl6BatfFZMgGLKB9aapO4sMXuTEYQ/ZOvN5P3cE8KGjXH/7WX8P3la3kKlvBN5EIXnehKRsvOZ9KSp0CxA+pJ8g0hd8R87iSVcZWtZQYI4u2Sg+AOMYjcX73LQbLJSvozYwgPCMAihFqk5oILk9AcCI4mf8Bkwk4ewbRiulu4xVMk5sLHlwsxwUxoLgN/d+xF+A3NMM8cKFnEqu5dSYDgwq5zEffkEILqNCNgwQj0qQmI6p5igxFzRtS6EGaOvf8prLfcTcj0Aehzs0pVxjufxSWXSNM4XKsp5p6jqPTaIvjpKwRJ89zZgx6gqJOpm+I/QgsvX2/CXq8htvZPEKrXoXt1KT6H/5JpmU6nd+XVpffAFEjO4Kn4WayYRCGePEGQUimNYmwJOltci/tkDDzirefRdn8lJYHL4pX09GS6wUL6iDlEJidgeWkeLqcdQZ9RXjDvQM2pdrbr9By/sQ2GBx6nzsZFzBvSj+lTxnP0aIIX4Es9TWyks+bMYt++P5j5za/Yeg7B4dJRI/UYhfPGYnQUS/zKo5mUMNdx5NH+RDZogrZ8Isk1rkNr35XI+UPJyUglrcd4on30GJeMl2m7Ip5+MKIOhv4xVPh0M+bP3y4mF7vP0kmRtcgbMJ56+3aTu/F5yT+Iv6szAfe0xbx6PobDv3Po4YHUuK4B+vlj0aUlybVcVG+Na/UEwS1bEzR9oBRzk+Rx9yFChAL+uqcLYS3vw7R6MpnosT07iSp7d8CW1WWQDlfZ/A7x9S4nuboATnQdTHSUUDocIUMm3iesesToRL/rSDeYyO4ziRAKsCydLPcmgwBhYVVxPjeBiB+/xLB1jVep3GL0x97VCes9HTHNHoJvehKaXsexqk2wPzuc2h+to+DLD4WcBIU6E5iMGGx5SlzqHJc4tB0IrYz/kNn479jC8Uq1iaxUCdP8UbJirqeuRq7BSmKv8dTQO3A8H8MxvzCcw2dTefcH8MHr6J1ibjlx6QwceXwYUbXq0ObAVzzWsgWDBj5HQYHHNqoxFw0QSk4tMXnFYp/foTv6666nckoSum3rcfz9C9K36hALlTuOI93jqoPUpSCDGPw5IRHQuSc51erj++tXWF5/CbPQO/COGn3+9fJfeodwF8ZXb4iz11jq//U1mWuXSddp6UwOj0ehbAupxySeYSqyRk7WaEzBM8MJ+Hkn/lvWYSwQGywYZIxYLzcXT93M4tBB2YyrKDZwqOXD3HLnPUyL0i4aIAgGtlgsCl0u4hrfheGxp2nw8Ruk7diGXpYp1Eho3hqtw9P4bV6O/w+fyr+T1eYU5adsH+G+W0WI1UlHnNwOtbgP/we7EbZqGo4DP0lvT3GYRWWhFJjNHBv3PNHpIhY7BrPThhQ4cVdRFIBG9LvQjnA80p06z0/DdniflLL2/hL3Gkjs1AtDk9sJXTQG/Ym4ooOCJxPEm+eJbVsI5QiG+6GoWrh6DCFas2NaOQNXSoKMh0p1wnNcUtFEaOxXbYit/3gqbX0VwxdblfKfIFEV4TMbCQHR5A+eR50j3+N4ZanaVGXopSzhBo0ESyCOMfOouOdzDO+tlydxFSYrGxgsut0lNndIiKyNo/9k2sX/yIAmDZg2ZRJH4kpzEM658MsQw2z++OMP5m/YTFbnHlhq1Ma46VUCRcXJMzZPI67dE/jd1AbzSzM5eV1zTC1up8KUvtjtNk4+OZwK4VGYF43CWFCAXrPxd7XmmJ8dQdiWZRh++PIUr4lGtsHE8Z5jiQoJQj9vJCLvOK3vBAIDA3EtmYA1N5P9t3cmvHUHgpaMw3n8iJwlQhQo6fFBhF5TD9O0QZKAJ9cF2W5NltM+UKsJ1mdGE7plCSd8QtDadMG8YgLBCQfclDlvRp57l5AbqSiJbeRo664E3nw3oaKserooiiag0NkOKyXXQ094QYHvFKOFggHTiMhJQbdqhqpgKqpIWkNwDJxM1bi/sK9bVAR6zt5acXAycOihZwmu1wjz/JFYCoTXy0CiNYKCEbOo/8tX5G9ZTaFLR2bzVoQ1vxHjjncp+P1HBVbdBOqS75Aj3QlHbroX/4d64PfSTI5H1SXwvo74LxyB8USi9E46XBpp/pHkD5lB1cS/sK2ZTzp+ZI+aReUTh7GvnY/BXXRKeH7SBs4h0qTnjj+/5LG2rRk6oB95ttLZIRcNEDwf4jG/cKJmGawcr38jxgefIMhk4do/93Dy7Q0UZqbLhVOdPIVLUoECle4jmLZGnLUbwsNPkeQfiu6Ttwj8Yiv+QilRuFHKNpe9H3X/ojsLdD7EP9KL8IY3YJw7DGNqPAadKOIjfNjCBXlpQg7Z1gi0AZPI8/HFOGcYIdkp0rnnCT+IBd4jvKN2Gg+3oCzGVEVixHPifCK4qXcfJtWPvgQAwZ0U5oQUiy/5/acQavXHPG84upxMcgw+ZA6Iwdfkg37xeALzM7C7I2dicRPbuL2MdduFBRRnwM05d9k5Xq8Zjh7DiPrwNfj0bdCbBGxxh1mMcpNKCaxIzpglVPx6G/r31svTkfRjuPkHCjLriI+sS/7QqTT57C0y39+kCH7eXloheoeV42PmyjK21sXjMDkLi1I6S+2RxWJ6Z3x6cYDRSaHOl7iq9dH3Hk7duF8pWDEdp0Ns8OfbvIX3wAq9x5BTqTohU/uiCXKzO+1P2F8s4Q7NgU2zcPzpsYQGWQlYOB6HI1/aw+NS9QbMidPZgfBaWAZPIfSdFzHu3ukOU5aQ8PDClh4gVcQI0FykGwJJe24i9wVoDKwWzKzJMRyNU+qT3lzCg+ABCGtXv0Kcjz82ix9hGclYXacXCJLwU3iDGt+C8aHehL29lmNNbyWgYjg+M4aCw0ZCpz5E1GuMcfEoGZYxivogN9yLf6cehL44C+2gkPstsU4IT4Ag9rZoT0C7RwlaOZWMhDjyxi4g4tBvaK8tw+h0caD2jVh6jiL6pRgMB36SIzNfZyKp91hqhoWRN2soRluBCl+4hDSzArdHfCNwjZlFpb1fcqJCFYJCrTjnjiEAe5nTdWV5NVmcCuKa3IXxsWeotmYxBX/ukt5ITzCmtO3V+iT/rYhcrVIDxUBL8rGiHzWfigd+I3+jqCgpxrCOE75BFA6cTMWkWPRrF8pvOvcWJA4fJg51H0ZkeDj6heMwOkRmiJ6TRiuZQ2dRR6hivjybkxZ/dCMWkRLgR50DP1MovDR2EZ70UMVLQ4RCnYHUx4dgbdBQeg0SgyLx7Tmc6K0vY9u1Qx68BS5PqlQXR99xVNvzCYVvvwJOM0efG0tkkD+GJRPQuTVZ8g0m0oYvJjI1gbsSfuHR9u0YOuC5ywcQij9HdZFNZ5bZB9m334OpxT0EFhYQnPg3eZ99hP3oYfSOPHROsa1pOMy+2Ktfi6llK9Kia2FOT8WwdQM+B3ZjcIj66GLj82a6/bfvUbwgjcSK1SWxr+rRn3G8MEvyMiQhVJ46S27Wcskts1HyNDNZnXvjuP4mzK8sIGT/D8olK7UslIuzpODJhRcCVqcB6arEQmiD+iwa2K/MJMVTQwxi9ffoteWLjbpaIwx9x1PnyG8krX6B/NvbYLu3HWHb1qP/cisupyZdisKd71nXvbVaSQtLRo5LSAU7cbrsJAdVxDliEZEHdqOtXeoGD2LRV54zWXinbgtsTw8kev0CmXqnEkc0nDqloS88BQZRsMYUROboBVxz4gC2VQtkf3h/OcnUhZIyeQkVfvkS65ZVSvSoRL0M758lI51ud68mY8zxt3XC1LYTtd59mdyvPlEVEs8x7sR3J9RriqvHMIK/ehfr1ldlCMTjUxRtKfJkuZwcb9MFwx3tiH5hCgWx+6Rav7pH2fBsl3v9l5p+B5u2wtqpDxXWzUAvKmO6RcbKSrT1gAMJhzXRP2YS2jzGPTdcz/BqAUyfMpm42HOX+C7Z3pIAYc3L62QVRCUqJ7ytpy56ykbiX2MrVsXQfwYR33xIYuNbqJqfiW3RKMm9Odq6G0G33oPPsnHoj8dicOk42rEH/s3vwH/eOPRCibBEaFJ4BcXB7UREDZyDplHn0M/8tutbdE89R8SmFRj37JSQ7O/wOhiGzqTKuy+hfbMNp8tAnsmP1OEzuKYgn7TFYzE47LKsswCwijthlGJ7qUOn4mPxI9fiR/Vfv6HgtRWYikI8ZRl9wuujPFTHImqiDYnh2r2fk77lJSXL7T6FK3acGxG4+0o0pzhPy+Ml1JFgDUE/ejZ19n5N2turZd6jCIMnmwPJ7z+JsIwTGF+a5R5t51oZnOQafDnRfyqVbTm4VkxFLw4EwltgsJDScwwV/aywaCwnb7gLZ6dn0KclExJgwmfRBIwn4hHqhmJcKV+m+grJ1TL6kTloBn7YMS+dQIo1BAZOp+K+r9DeWKXUJVwujte/Be3JflR8fz32rz7C6NI4+EhfKlx/I5aFI9EnJ8mBm27yIXPUUiof+pl7M47QuUN7BguAUFCaWnDJPAindrHIkxZzXhTpSY6qATe1xNDgBpw+fvjYcjGmnMBQWEiB3kxhYAh2/0BMmalo3+3EsuczfNKOq9x1mUpzYS7fsg27q/tuz1Ih7JFnNJPUvge+N95B6AvT0B/+1a3+UxyuUX9RNruJgShcTzk33kN+x+5U+PlbnJuWqlrosi/ExFdzUNWgd7+2CJRciA3FJHCid+nwD6nAvDmzLh4guJuhprJTspQTbuuAvl0HQk+mkRkYRlDs32jr5mApyMTp1Mt4dPHp2Pvv8GCK4pOL4GaoNLgMo5XU3tOobLZhmDcWl06HwSVOCeKko1GoGcho+xT221sSNmcYJjF5ZTEbT3Ek4Umwy2qDuZoP8c+Mo2qw8OiMcW/C52unGgOiX+Oj61EwYCrRby7F58fPJVdArKeePcizEJ3viWrJVaEAle3gIt0SQkqfsVQMDsA8eyyG3ORTAILbY+hetLOFpPIzw7FGVCNo4ShMGckKPEls6waNkgSrYFR8eG20wdOo++1W8t59TZKfBXnSO/ArvFQujjzYh5Bmd2JZOAKzVPRTcMRRhsyIkk5qhVCEDQ3EV6/PXY/1ZHR1PyZPnUycEEry8irlQViz1l1auzRDq/hRxZtTkjWUnGFzCUk4SGqNutTb+wV5W1bJwk3xLR/FdO8D+C2PwZzwJ3qnKMc8msDKVbHMHoE+P+O0tUE8OcuoJ6XbKAKr1SUzt4BgIwQsnwTJiaq0uzVKZttU+eFjHG+uRKeZyPEPJm34TOr+fYCsDfPQOZTsumTbSNsa0OsgtnVXbPc8QGBuLsHr5mM48KuXVTRPN6SYXwLgnfQLxTZsJpWTjsj0d4fTk8InSnirxUn0sRrbatNVAEtlRIjWicj3yar1cfQdSdV3Xyd/1/vSsyZ4TBlmfzKeHk1FgxPd8ony24T36uyXk1RLIBlD5lA17k94daH7vS7sehNH2/ciqH5DdEsmYO8+j1byBAAAIABJREFUAr+QUE68+zaBjz5KwOurMPwgsjFEu9TKqtqsQGGGTyg54+cT9udPGDcslRVFc3tNJkzLxrJkHGh67E4Xx1u0w9juMYLXzkP/92+IYmBHWj6CT+sOVFgVg+7gX5ImftJXaGcso9LnW2lryKVTx46Sg5CfLzhUJUZc3Tr1imDqhZAUvZkHhZpg/BrJDonEVq0+ump1cFYIB70RzV6ILukEuvg/MB/8nYC0JJlGV9bq5N60479xj3KxxQVH4hw8i9op8dhXz0LLSQdNqUN4FnDvFlC15MsYltARj6pNQbfBkqVsWDOPAEGyOaXkb8kon7cnbW9sL6o5zrmAao6neRBOe5nGSXMwac1ux69BQ5zHk7Du+pSgpIPu2gZCvMmpTpUXAHaKT5WK5CjOlZJyozMR98CzhDRpSkhMbwqlUImabsLWuUYfsobOIdBkx2fOaAwFioQrt0g3OPbYvkDTONr+GYKvb4Z1ah8sQpvaq0st1gfbdSOwRSsClo7DnBQnQ3YiwK0AeBkKGp7yTvV0HUeqN0DrM4FGP+wgY9OLsqhPqdCTy1DEP8q4tgUFXQcQvPcrjFtWSU+izMoocgSLP7sXdrGAm/3JGzyDirnJmJ6f4uYNnJvnUHqV05PQdxKRUZVwzhyEPjvLLexUhme4H1gSRArALIBShtWfW3oOYmDDKkyPmUxsnEhz9A5ungoQ5NZwXtAi0p6tHB82Ex//IBxGCzU3LqTw1++k1eIatcT4SA8i33wB+09fS17I0cEzqKA5sSybhM4uct1Lb3QK+Os4UrMR2jND0QwmAj5+i6BPt0jVQjEOc8z+JE9YSnTCAbRVs8DuJKNCFNlDp3PN3m/IfGslekXxUePY7dMX/zMusBLODo/gmxiL/+cf4GMXNTbKfrmdqNKTmWX0JaPnaIKDAvGbNcT9TdInrTx0ThWO8aQ4FnsV1Jrnef+xOs2gRz+qvb6KfEHEljhCI8doIbXbSCpYfTA8P0HWVDl3zRknx0MqYx8yiyp7tmPfuk7NAYF09QYON29LwAMPo/u/deR1epaIXz4lYednmPuMJXz3drT3NyienduL6HGOiTkaH1Yd+/BphL/7Kuav3ydXbyLlsYGEVK+FeWZ/LE6RD+UkvtWT+LVoiXXpBIzJxzDoNA7WvAH/Z4cRvnkp2ndfSVXc45HVZQnt6m+t5r4QHzp17MDAQf2KAIKEJeKQfyUAgor/CCQvBo8Bu8sgXZOC6KZ3OqWev0G4YtyLitRcLyccnHH2eE4xds3Ikeb3Ymn/BNXfX0/hl+8rJbKiunieM/75JqF6opBVzvCrQMFjfbBVronva8/j/9detZC64+IlJ9jFbCpna1FQUCBz5wolxbKVez4/QEBuzg6dL4LrLMpSW12FsmKbFInSKQFhKe4iAZb3S1eRZ8e9ucnTkywhrE4C8Te1R9/xCaKn98GZmSJjv2JpFmJjaaHVyB81h2p7PsW2eZVcXGUmtaZIivLZOnEq0ijUuTjS/D782nXBPPM5grPEKfDsl0dYRdxhE168MUuIxkHuvNH4FJRWS1NP8QRLyrZpim8UIy3TaCSxcz/CGjQldM1CnH/9WLQIK6EgAUYc5Fv8SO0+HHNYOLqFkwnJTXNXEXSrtip45F7sledBeIDi23YjtGkL/OcOw5AtUuxEiMVzNjybHdRybhcVKkfPJyorGcfSyXKdkSJjZeDQe4CbBxAXOTvE83V6oq5rRszAZ5gVE3NRAEHWlDmvSqZTOJo52n0QrgY34S8KfM0fiT7lpOR/JNZsjKHnIKI+3kTBZ+/JEZ84fhmhiQfwfWWRLPVc+lJcILExitoLqVVqY46MwrJ3F4EFWUrdQogeGYykDJxOmK8Jy5xxOApySK5SD8eAiVR66xXsu96T64WseyINpklinwAKDoxkGfwwu/LwtRfKMNwFX+5Qp9BYSHrgaSyNbyRkRl+MkmAnLjtZPkFYG7ZAy8mAfXulAmXJ0aKwi8r6Sm7eCjo+TvjyaTjj/lYbuqZh0+tJemQA4VWroS0UhM+8Uoqhp7ffycm6N2B/ahiVP3wN2xfbpPdbjHsxh+OrN8bUazgkn6QwohJBL04iM+EIrn6zCTt+ENfGRRhFeE5szFITQo06ARAOXXcrli598F8xDb+4/VIJKP6OjgTc0xF/kf2UdkKym5IfHUJA9WroF4zCJy8XnV5HbER1LCKDZfvrGHe+h0uvJ7ZWI1xPj6Dymtm0rRnNgwIgDOwvAULJQ98VBQiqWI+sCI7TaZeDWSo7uQuRiLVBGFSEJ4rrDFzwMPrP/dDjzlbTz0m6wUpuv4mEBFkxvzQHY9whCbw8nABPkOF8253Y0PL0FjLaP4muWUv8t7+Lz87/U4JY7nQ7OZ+KXN8e38T5nly2LrhcAEGeyiRhSrRHqI3pZbqmy6lX5J4ioREVXy+9YZblG9SpUbhABZtZEA4TqzYkb8BErn93Demfv6vSQ2V8GY42vBPdE88SNmccprTDWBwaNhm7Ve5P6YvQlDNUyjfXagzPjqHO/y0n79ud5wYI8gwugIqTNHMwWTEvU3f/LjLXLpbFoYp6sMh74DlRln3hFm2VpDH/EHTD5hEmxI5WzkCXneO2pyJeirYk3dgK24NPUWn7JnQ7tim1VTcPRfVPScilPlF4KI42vgPzE72osXExeT996wYRHlBzdlOIr8ryCebE+OVE7voA47b1RU7nsgBB935XIiSj9ELkXoKO8PAopsyczOyYqRyJE+WZvbtKcRDWrD2P96BkkEMj7ra20PYxwpLiMCyaiFEcsHQaCQEV0UZMp97PO0jZtIYcYxAp45cR/cNOzFtfkeqVJS+l2ulOPXepol5yJrg3KFUkS4ge6Uh7YjDmaxsSMGMouqyTxNa7CVP3IUStnoXr7x9V2EX9Wq7j4peSHuXODBD/qE70ZR9nqlXiFSrOKUqrH25yD5ZHuhI2ZyimlESMmgmb5iThplZYHuyC2ZGL77LZGBIOFW18ChyoNVRmGNzTCfPtbQlbPBpnshACU2ma4qSd0GkgobXroJs3FIst/zweBBcJLe7F0q4HQRsWov3+vfK+anZ5Gk/zDSO731gKwqoRmZmCz4KR5NhtpDw1mopmHYblk2UWkwqfqfEl6qjqMHCozeOE3dwS05Jx0jMg+uTItbdg7jqQmm89T/b3n5GND+nPxRBGIdryqTJFVnxmon8EuoExROzbg+6tNZJDFntTa3wefJLIpRN5oGE92ndoL3UQbAXi/cXXFQIInhd6Tgclh6dS+pILwUW4Or2bjv+du9Qm4+Bo+DW4+o+nbsphcp6fgaFQDGJvuAfFgQKxCWXd1p6cNo/gv/9HzBuXYrELMp06Yyl3U7HrUFnR2yXQe5tfLoBQPPrcFH3BUnYvgups6/kaz/iUy5r3DS+6szjYIH4vwhZpJn/yxi2lbkYcBQsnyFpQou/sBiPHHx2AqV5dwmKGoDnyJblL/KYohltUKtgl89KTKkSTPXYhzX/6kqQNy85D3FUAQfxfYnRd8obMJ/K1xVj2CsKZOqEXE7Y8G62EUhfw3cqfLMbRobrN8e8+kOjvPsS+dYPMifckMKdHVCe/92hM6akErJyJuTBHVqw8d9aDUDvUSI6qRc7AqVz3/YfkbV4rPTDeCBwJkJYQVYv8QbOIfGMF5h8+cyvPlXQye/fJpwYNpPCVTJc0EBFRgSnTZzBtytQiDoI3liwbQFBbpEziFaEXYyD5jRtiTE4g9MhB2aMGsan5RWAbMYtrf99F2qbFHPOtin3MQqru2Izxs62Sw1E6jKHO1mquF3vRPCQ5D5i063TEtnwQn3sfouLyCWjxBzncrDWWDk8RMHMQvjknS5B8lcqXRzBJjvoiPpk3ljlzn3gAggCWQpPjSJ1mGHoOIeqVOWi/fYdBM5Elqlr2HI05qgaFZhN1v36PrHfXY3CX93bnzSkQrjMQe/8T+Da5nbDFo3BmJqMTWXMGoxzTRzsOILBBfUxzhuBny3dzRIrbpgieykLCfsfadcPa7G4My8fjd/woLpmnKsaw8BoaiW94B0F3tMT8zU6se3did+mIf3QA4bXrop8zHLMty52JpnhfYjPP0/uQ0nccVQICKJg/ArMAKg4niRXr4hw0lWv3fkTaOy+Sqgsgc9gcKsX/hbZhOXqH8Je6OOkbRmHfcUSmH0d7ea4CCIJjdsMdBC4aw/03Xs9D7dszcNAg8gtKZ86cFSCIWgyXXnfg1IFR0pnh3SQtv6ukBYSqmomE5vdg7fAkNX78koLNy3EIOn4RwfNsFlPxZ4GST1a7Dq3XUHSxBzFtWEZQttAKd5+GS0SSL7ftLxQgiHaVUlK84Iaefnot26NKbyFicubpjCR1HUJwnbr4xzyHXswr4f2xhlIwaDYhtgSYFyNloM9+Ka9ElsWfpHELaXIyhYzl49DJnOaz96+QlRH54vFN7yWn8zNEzRuF9cRBN3mrGDaV1CIp2/eefnemEPN6tC9+111Pg68+JPn9N6U0eobeirPnMDKr1MR39QKCD/1YFNIpDm94AEoxfPNsUhmi7PyIudS25+KYP1qegksC4ZKWl5ufB/Xp4EizVmgP96TSovHoEv4uWtfK6kE4/WuLx0t4eBgzZsxkypQpHC0zSXEOf+zbx8tr1nhlfg9gF2EBmY7rcrlr06iPTjFbSRsyj2uTjpCzdjZHIurhO3gqFd5cjO/ebyQI9e4qaVVxEnZxIKohvgPHUnH9PAr/+IHjDzyD9bomBAoVxbMUOyvp9/Duvee/S227OqV2OGQSDXa8Q9qnb2Cwa5yIro6zzwS0n74ls25DGjpyyVw6EX2eKGUsg4pFHBfhjTj+xEB8q9bEOn8kBlsumsOOplO5MgdaPUHILXcTuHCsVLUUWSZKJVOFIvVOnVxDxWKaozOS2nUEQZGhaEsn4ZebKZ/hqbYo6sHk6izkGXwILsxHrxWgOTQOtulCyC33ErR0PNrJOOWFke9QIzTDvwIFo+ZT6cgvFKxeKOWihIc9xRyMbeBM6pJH6oIRpIREScntKt9ux/nBmxidNplvlGUMIOPpEUT4GNAvn4zd7iK91wQqRFbEOX8UHW5rwUMdOjDgnwcI5+/48ju8t4DHDZ1l9Cf5/ofxuelOqn/+LtkfvKlO/e6qiac/UU1Zoe2dVqUxru79sDrzsK+Yif/JhKIccfU7NaGuxPXPA4RL/ZVCylfjUOPb0T/5HJVWTEd/aJ88mSRf0whn9zGEfLIey8dbxVGmqLZgSX6HzL2WOesORC50wpCZVLYEYJozFGfhuYleAogU6CykPDUKY906BMb0w5An9AbcSaAinCFPdUr06tJcTlLNQaR1fJqARo0IO7CP/IREbA0aYa8Qhn77Vvx2vqNire4v9oRUivNiREsUX9zTLCEHdrhNdwJubYn/lOfwsWWXdhm7G1/kF5M7iAunQU/i08MJrn4NllnD0WUklwAIl+aLRSvDw8OvLEA4xdfj3rNkxka+ZiSh33RqkI99+VQON2tDYPsuhL48HdPBfSpNsMxnM/EDB38HVMU8cjoRH28ge8/X2HtNwGJy4TN/rJT8vaKXqCQZEEH28BnUj/2L7LXzZeg6/tYOWO97BMPa+Ry75gYq3dgCy/yxaGkiG0MsjO6UJSGwriF1NsJDAzEuGCsJmSqlW5BqIa7lw/je2Z6QJeMxpCbgLBL7gxyDL65GN2IODMD+409kZeeSN3gUEYILsmYRRgrQhLKo29aeUIPH86VEx5QMs++jzxC9bi62P1WYxtM9Ijh3sto1OPtOpsJ7L2L+8lPskuOhkxmCSR2fIeL6G9DPGMzJSjVwPTOSyptfwrnnCwkkRAjMoTNwrHN/ImvXQrdwLAX5BeSNWEBFW46slNrxzjvo2EGQFP9xD8IVHT7/Ey9TGF8j2eJP7pP9MVetR9gnb+L45lP0hXln3NrFb3JNPthvuoe8Ox6QsSrTK4uwJhyUrjDhZFQuaHfs+AKY/Rdi/P8eQFDux6TQSuSMWUCd33aT98o8Wen0xKMDsdRugs+sgVgL0pV79xRirtMpuAzCG6TEh0Ry36G7niDkzjZETB+MQ/xOMp6LJZFL2l0oQ6YarWSNX0bNrJPkLxgrCWqyZwX/R5JPL42wlue90vHvgnRRkrj1I2iiZLTZiE9qEpad78NPX2MptKk4rxuVqDZ4nLQegmLxDqb+RSO+TnO0Z0cSsnoGvvt3F4WBPOfckidVKZeLRqbFj7SxC6mWmkzu0kkY3QQ9z9Mvzen2ygOEU31dxfhOzFo9h58ZQ6Vgf3QLxxPXsRcRYiNbNhFjkihFfSFoUIU2jpuCsI+cQ8X933Fi58foB0wh5M/v0W1c5pUU8YWsC6V/U6yCKP4+x2DlxKBJNDCayBSepUIHiU8OIiS6Ci4hKFSpLtY+YwhfNQXd4V9VWWT3yVx4AnL1FtJE3L4gC/OLMyWhUMwnSbYURMCb7sf4QBcqvRCD7eifkksgQ4SageSbWuF8oAsuvUZwdjrZv+3DdWNTIj7YDF+8LwtPiVLuaj0VZ3kPTdLDQxIVZvUcq90MR8+hVH/7ZQp2f6LSP6QLQXgn4MRt9+Nq8zghS8fgezzWLRpolFopsdffhfHRp4lcOpn4avUkMApdNQ1i9ytdCJGspIf4tk8T3PwWLEvHk5GdSd7wxVSPO0DOK/No3+recoBw8QPzanxC8fImYmHHKlTCJpiu4dWJ3vsZtu3/hy4zrVTVezG97MFhFLZsR3bTljgTDmF6byMhRw/IwSgkdIunkMdH4WEiXF4b/BcBglgSxCJ0YugUKvtVwLx4JOl6HzIGTSLkwD4sryxU9S1OWbOVXLE4fShJR7HoC1ntQ3VvxdizH9UXjceZICr9eTZWtaCUAgi4SAqrQuaIBdT6YAPOnW/LTdPhjsVKsrDIqihVfvrS9XGG3kyWkE23+mE6cYKQ3FRZKbR46/eML884Vou/bE9RWW7VHrG4ZgRUInXUXBrF/kzWi7PdSqzKH+Kxgrq5WA4yJTiSjFFLqPXVVmzvb8DgLFZ8uNiAUrGl/jmAULK3ilYDTc/fj/QmrN51WOYMI7HbaCqHR+BcNA5zVsoZBJi863Ph0xGFjU48F0NdPRz8/BNMjz1N8JvLMf34GTg9ElbePa+sd6kDi1qdPC6QQs3E0ScHEFW3PsbZgvTnIHPwVMLjjqJtnEuqX0Xyxi6k6vvrcXy9TfZ/yQy5NGMAmQNjiEyJx7h2oQTNAhooyTk9sY2FWuOzVF49hfy/flPzTYNUvyDsfcahw0z6x2+ju7sVhogqmOMPEPjqSnzSjyk5cCGbXjS5S4cg3QW/SQyrQcGAGK797kNy3n9VzXs5J3Wy/k5q18H4V6mOcfogrM4cd/6ooi7HR9WhcOhsar+/noTImvjXqIVeSGxnp6FpJlleW6dzcvjmdvi1e5yINTM5fuIEtjHLqPa1KEW/hnb330/HDu0ZOLDcg1DWMfmvul8M65M+/uR27I6lflOqZKei7foKW9xf2AqycZmsGGrWJa/ZrWRag9D/sgfDtjcIyj2J0ekuz+0u46pGaMlUsDL7JMtsu/8aQFAaAYKcZeBQpXqY+sUQ/e120kJCcVavhWXVTALi/pLhBbnBeVZ4GVYo3uzVZqkHp42ESvUpGBJDrS0v4Ppmu8yWEGldHuJVqQ1DuC/r34Sj21CiZg3BmJ6Azk2SlAQ7Kc2t3n0hZ0pvOthz+lcx29KnP/V7VaHQqVPZJSpfQ3nFPFuBAgh28vVW4gfNoJa/L445g9HniSI1SpZaMe6VhoAAVervNI7WqI+rdwxV1k5Ht2+3TCEViaYeyCtsrk6VF3NdOYBwvr7yAKUj9z5G8B3t0M0dTHLvydRyFlCwcDwmu6ieeGFzWRAOhcxXXKf+hDVsRmrsYfyqVsF3wUgsGUmXTOb9TD2hWuwZs2p8iLnldOk53Lw1poe7ErlgHOkBgTi6jyT6o03Yd26mQB/AsYnLqfnHbmybV2KQqfQe3Q8Hx3wjcA6ZSsj+7zFtflm65WVqtxwXOhKuuxW6DqDimlk4//heThQxH5PqNpMlnf12/J/MxhECSfn+FbBmpxCSk4ZeJ9rmgTGnDjCROSXCHMork2QKJn/UfGrH/Ur+WlXzQXgPxThN8Qslf9BkotOSKXhhCmaRgeKuWSLakuYXQsGYxYSnHCVRsxKRl4HrxSkYRZagyyBFn8Tciq/VBMPTI6m29UUOHT2Ka9B0qr6zFufXH9K2XVs6tH+AAW6AUHJ0XGGS4sVMwvLfemcBUYXRxPFajfBp+xj2iCiZZ+R0KPEQzVlIUGIcjo+2Yfn7e4yuAjkQPawuj7O6aIGWhJlyD4J3tj/1LiWXq3MaydWZSOnSD3v967DodUR+/TG8+4aUHBccAI/dz5YDL+4RudzZARVIH/8CYXs+xPLmaqnO6EkZK+mFEJNcxCgT73wY6x1tCZrSHb1dLBqiUl1xUaniFpc+3VzY957+K6WBcLZLLfOqCLbwbSiSovJklYQH4s+qSNSB1t1lZcCAeQPQnzwhD4OeW0XGhFr91RJXqOk50eZRHLc/QIWZfTGL0sk64TGReQCX6hNlm68kB+FcDVe5K3aO3tIBS/vuWFbFkNZ9JHWP7Sd/+XS5AV4Yp0jVwhFZGwkNWuLqOlBmkkTG7sO4ciYGV74b4V5Cs5Z4VElg5BlTHsnlpPC65A+fSfQ7q0gIDCXklvvwXT4VQ8J+7IIkPHQZVXV55M8fi8FZUKLnHcRVrIulzxj8P38Hy4535ebrAetidMZXbYCu91jpgcv58j33v2nEPdSb4CY3YloyBf2Jw5jcdYU8AE1Jpnk3xlIMfuQOnEZFWyba81MRlXWExLrRoSexch2c/cZQ+bP3sH/ypgxxeHRCRHZPvpjjj/TCcMMdUi477Ktt+Lz3Kg7JBxFpEC4hyUJSWFWppFrr24/4888/8ek9igoCSPz1G/d7AILgIOSXtM85qjleniyGyzN4yp9a0gJiaIrhpSfdYiUrIJzCiMro9Qb0hULiOgHf5JP4CwVLIeAh4mRyMKv0ptMXDxEf9uTNezfgL7Q//mseBI8d3AWySTUHk1G9DiZnHqEH92EVqaRyg3PrV0sJtVPDBMq9LjZHkclgM5rInbCaEFsarmnD3Sdu9YaSlzgVZ5r8yR84GYtBh+/sIbjcAkFuqbiikITaNNxeigvtvDL/TixgnjYrUS/5N+KEL//6VFCqCuEcqFIXn/6TiNowG/3Pe5XXxaPVIRbpIkaYkID2obD/FCwmM76zh4Kr0K2cKTwMp5acL/MHlPjB1QIQlDEE6Dpa60b0z47AuG0juW2foNp323C8vU4J+ZaxgqX4UMGAUZlROpIswRQMm4bFP5SQj99E98k76A0Ot3TNpV8jzuQ1kX8nPE84yfMNI3nUYkISD5Hp40OwXo/x+cmY8tPRRK2QnjFEVK2MNnckugwhVqaOQ0Jm+2j1xvj2Gk7Ix+vRffZhkRCSx4+VFFETBk6m8pdvUfDBJultEgqoJwbEEJaXiXHVfPTykKU8E8ozINwMypNVMhxythGWoTOT0mUY4RXDMM0bhclZIGeGwakR2/ROLA/3IPyVRbj+/F5WbDQIQrObCyH68lDlazE9N4ZARyGml+fiF/srTqdaR4QYnFFzkWIJImPYTGolHOHP/X8S8GBn/OcPx/fkce67vy0dOjwgQwx5BeUA4WJWgn/Jb9VWL6OzcgNy57yrcSs3E1WvXQw0JZpSPAlLcsdLLtSXfuKfasz/LkBQ3I5CQQCV87YYhqltUaitldjc3IbxnJTEgq+Jc4WseKoR/+QIwuvWI2jGUAqzM93+0tLndKlVH1qZwmHT8P/1a/xfXyU3T0V8LI7hqr730NYufx8X97lHkMpDklSSzWr0Fdf+8Nwv882dkOobQu6EpVQ/9AOulxYoGq0QoxEeMp2igwn+hvCKJVaqCs9NI+zHHRg3rZHFuBQxU31vMXvhYqf11QIQVG8KnkdiVD2cg6Zg+v1H0q69nirvvIjuu08QlS3PLRd8NluoiLmIp9uE6z26FvgHExT3J9bsNPRFnJHLNYbOAhNEyXSdhaOP9yOg4U0UuuwEfbMdy7Z16J02qZJ64NbOhLfpgP/KKehiD0gM7lH2PHL93Vgf64l142Isv+yWoT0JVKWdRKXHUArGzKPBgR/IXL9U0mkTxbwaOouK334I296QBy1VpbUY3JdlTuVqJk50eBb/xo0ImDUEU16mBBoOl57jbTrjc3MbfBeOxZJxXK7XBuFxLOKKIVMn42s1ws9RQNiRfZiEV9LtvRDfIUBhuqh/0nci4SYDaXHHCGzaBN8Zg2T9o/vaihBDOQfhYleBf9XvBeJXTq6SQ1VMC7Uge4qAeGK+Z/44da68MNGgspvrvwoQPABMbeHuUM8p7sdzxZY9AEHF2Z38dX0bAh/tRpX5Yyk8oXT/T+tHl4tjDW7D1W0Awa8twfrzN0rE+Lw6/2Xvt4v9hcdp6pE+lsqWp51yFZMyT28mrdc4rJUrETR1AOQr2Wj1bQL86OXJUI+euJb3Y2jdmZAVM/GJ+6OoCJZ7e7hAV/uZvvafBwhFmRxSsdBJin8YOQOmY/Yzk2M0ESmU9WL/lKEbBY/KSrxQ60BxGEj4KUXxMfHflwsUnH9kqXmjcSSiMgE9h0m1Q9YswydZFMwSkNPF39fcRmDXAYS+sRjdz9+5wwQi3OrgSKtHCLi7I+ZVU/E9/GfRQUnZ00WyOQDbuCVUP7KfgpfnSoB5tMmt6DsPIPKNZeh+/srtkSkN0M81n0/9KjtGmU7p06o1YfNHoRfFsXQaWZoPqV364R9VHZ95I7E4hIiRp2CUWtc9UucFmkGu7KK426mXuDNPM5DQsQ++TZtSmJpJuFGHaeEo9LZc7rv/Pjp26FhOUjz/cPsv3XGmmHJZ48yXjuftjWX/ywD5TUgsAAAgAElEQVSh+PvL2gcKFKjkU0Gwc7I/6hrMQ6ZQecUM9Id/VsSpIqJi8ZuOtnkK8+33EDh9MH65KbKA1NV9nXm8qcVW2U0sf7H178TU7Tlqrp1O3h8/KWFqTcMhQygiFOMkyxxAes8xBAf4Y5k7Gr0z181MV2WIFUC+VPoe/zxAKO5XZS2hJpjRYzT5dRoRaMsiaO4YdOlJ7vDNhQCEU0eOZxxfyHi+tKNQkCdFGaUs/whMOPDLSnLzXgT/x8mhsOqYB0wjeucW+GwryDoHygaxD/Ui9Iab0M8bgyX1WFF2hPoqJylGKznD51E99Tj2lVNx6jXi2/cgqMnNWBZNxJya4EXtjNO3bM+xTUmQa8Q1vgvTo90Jf2EGukO/y9zEVIsfOb3HE+KwYRFCT+45UAw+vJvQnvvjbmqP7eFuGOyFRAvZ5VeXoHfaJUDo0KEDg8qzGC7twCx/2qW1wP8GQCi7zYp9QOK3OuL9K5A/bjHVtr6Gftd7RTUmSj7ZpulI6DWB0MBQfOeOkHHSf+6cV/Zv9ngFPG32LHIiQBBrjoQxC6n7w8fkb12PXtSWkC5ZwQ5XBeBO1lVCVJZvtxPw3iuS4Kk8au5YcYlUuQtrXclfXU0AQWlm2ET9ilseQGv/BNXSYilcFIMxT4CkshUju3jbXJknSJe7rGOishBc7owYceKP96lA4bC5VPl9F7y9GoPLhEsnOBU6EoVYWaUIXLNHYynIOgUgQJrBl8y+E4nWOdEtGkuu0Uxmn4kEmnQYnp+GWWSHSb5BWcCmpyy1sI1SYUys0wx9jyFEblyO65ev5WEgKTAU+k8m5MhvmDcsc4cidSp9sgweIDF3RCG4+Kja5PefiMlgwP+NZfj/tEtqPtx3//10kLUYytMcr8xoLX/LBVmgHCCc2Wxqc1QuTOE8zzb6cnz8EhqdTCB3RYxgIp22YGRYAkgdOZfo2L8xrVuESwCEMi1iF9SFV+BHQtLWhxMDZ1HDasE+fwTGvAw3f8EhqwaK1LeTXfpiqNcQ3cIYglPjMUpFOQ/jQy3MshhZ0ZZwMU2/ugCC2HAEmTDRN5TcG2/FemQ/obH7JXC6wAzHizHOFfit8gYpFovimChWlQiBuEgRZaEHTifalo1rxWSMdpFwIWTH9CQMnEWk0BZYOROTXZRbV5BU8WSdZJmspHcbTEjFCCwzBpFs8sUxYh6hB/9Ae+N5LCKN8LzVN89kAg8JVydr6iRF10PrN5mqO94iXxQyEzUaIqphHDSF0F0foNu23l3EzROQK5tZBScp1WAi9db7CPUPxvz+G1icIk2YcoBQNlOW3/1PWaAcIJzL8p4FRaSd6jk8aA6VwgLxnTIQ+xnKNx+reR35z46n3pdvk//e6+icDlwy4f/SKide7rFSzE9QegVyC9AcHLq1oyp1vnYOBb/vwSiLY4kTJBwLrYp92EzCfvkG8xsv4nDa5L+Lk5esWigIj6ezNi7iU64mgKCkfcXJUIwYsQmKsJRHxc87p/RFmOIf+qn6LgX61PauNnrNZcOu85FiUUFVKxG4YDSu7Ey5qdsMJhLHLiXyzx8xbHoRo4zfl/CzuVzk6g2kdu6PsXYdQqY/R3xYFXSDpxK1dRO6b99HqJCULnzlrQEka0bxYDQHyQHROEYt5No/9pC6foH8t/jaLTA/PZSgresw7NpWxB8r+X3evM1jETHznS6j4lnoVMpzOUDwxoLl91wVFigHCOfqhuL4vCRlteqG5d7WRM0ehvNkYpFMs9BdEIvLidZP4rrtfoJWTsUsJGKlloVH7+Kq6G4vGqHKYpfUphfiRwLsHAuqSP7QWdT9fQ8Fby5HZHXpXXYKEQv6APT1mxG8eib6WKF+p/JB1PZRsqy1ePilCLxcTQDBY9aSfI5TYcGl+GYvuu8K3eLpReVHKymxJcIIhWhOIwmtu2C6sx2Ri0ZjTxLEXgcnA6PIHTGbyE+3YNi5VWZ4nAkgnGzzFJbmLQieNYCTDVvCQ12JXjkN7fC+C9bTUF4ORRp3anbSLRXIGTKLehnHyVwxRY7x2KZt8O/UDf918zD9+b3bS+KJSlyaPiwHCFdokJa/5uItUA4QvLfh3xXrYxwWQ5VX5sIv36kfyjXDgU3TSOkxGd+wUMzzx+BbmON2u5YlTup9Wy7XnRLsyL3NU4zYXWTKJcTADJzsMpRK1WvAiqk4TyZhkd6DKPIHxBCw/2csm1ZhdogKfuISD1IASbmiL6VY0tUIEC5Xr1zNzy29wStYJHgpQlHzeszPjKTWluVkff8tmmYnVvzds8MIXb8A4+97T0v/FL8v0HQcu7UTvq3bE7BwJFkdnsZUtRoBi0agS09z10wom01Uu0oCBBeZRitpfSdRx6iRt3CcFDVLuO9JrLfdjWH+CKypx9XYFUBfqp+WA4SyWb387n+9BcoBgvddeMwcQsGEZVTf/SHOrevcp2NVFjrT6EP6sEVUPHYA44bFUl5Ward4//ir4s5itrYnhUwJKglxGFGHJr7WDRi69aPSH9/j2rCMbEsQtm79KaxSm4AXZ2ESnhPpMxBCUEpd32ODS8u9LwcI//SAKa7ToECku5KJeyN2cMwnHPvwuVQ7uJfC11ZIgmLsA12JaHY7pqWiiJXwKpx66RAyckcb34Xvo70wvjQd5xP9CEiKQ//ybAyFghx7YV+uKrYKBozKTcjXDBx7cjBVqtfANWsEBls+Rx8bSEjNWhgWjcEnJ6Mom+mCX3qGppZ7EC6s/8p/9Q9YoBwgeG/0TIOJ5MELqJ6fimP5JKm97sIo46EnKlYnf+hcqry7Bu3rregEo9stBev9G/75Oz2SXacDGxUyyNfMHHuoGz7NWuK/aTXJlauh3XwPITvexfLha8UC4m6lxXM53S/ua8sBwsXZ7+J/XbLybDGw9IQcnGTrTJx8ajThFcLRlozH7tTIGDaJKLsT5/OTMeZmewo0uBujAhciZTb+mhvR9xiB6+NN6O56gJDPtmLavgm95lGUKDtKUABVAQRxCfbD4dZPEnHL3VhmD0WXm0V870lEWgywLAaLPa9Euy7eXp4nlAOES2fL8iddZguUAwRvDezAptNxvFcMEVGVcc0Zik92mixwLNzox1u2w35/V6KWjEKX8JfUJ/SUKfD2DVf3fWoLENrzCf5R2J4djiEiUqpMBh/5A+Mry7Bmp8piVCUXwsvnQSkHCFfTeCkNENyyytiJbd4OX8EfOPg7mdkFpDRqRsTObeg+el0C7DNdwvOWFF0bx4AYnCePYwoPx3/tQvz2fY9Lpxz9xSED8YSygAVBqtVL/pAQ+fq72f34P/g4wfPGUJiVzsmhs6mYHI/28jxMpxIoL5HBywHCJTJk+WMuvwXKAYK3NhYLk53DN7XB1LE79bauIfObj9G5DNg0Pcl9x2OpEEnAnCHobDmKoncB+vvetuafuM+zMAs2wTGfUHJq18ZkNxD694/42zJLMNnLsmBf6JeUA4QLtdyV+p1Id0wQaZ8PdsNQr4Gs0aA/dgTfV14gIOuYDDmcWnJdnutdBlICKpA1bAZ232Ci7dno5wpRpUS5uYvCYkLa2iGrkYqv8SZLyBPg8ggi67ALTkTtplieGUno8umknkgkb+hsqu3/DueWFzGImNpluMoBwmUwavkjL48FygGCd3ZVVTYcHPUNo2DcQmr9tBPXppdwOcwc8/PBOWYB0b/+hPZ/zyvJYhnrvBIbpXftv3R3qUVZaEPYRaEGuxOTqMfgdv16Uyjn0rSlHCBcGjtezqcoamqu3geb0YxBDy5bLv5CmlkWb/LISBf7nKT0t0tHrsFC6rMjyKt5HTUO/YrrpbkYbTmydLgqK67Sa73LEvIIdend3gdFDhLiVomVasPAqVT54HUO/vYzpoHTiPz0TbTP35HtuBxXOUC4HFYtf+ZlsUA5QPDerGITFDH4489NpZLVBLNHyAyGw3Va4P9UH0I2rMC07zu17LlOF1Ly/k1X852Keigy/lVtRkVEVJkKV/IqBwhX0toX9i4BEDzjw11fVRRmcnqqLp761OK0YFH9IK7W9fi3vh/jB9uwHvoZnbs4UzGXwNsUYlWLxVMeT/7eXT8jLTAS29glhP34JbH7fsb3secIeeN5DD99fdnwfTlAuLDRVP6rf8AC5QDBe6NL+WVN43DLzvi16UjltXPJ+etnkp+dhjE6AuuC8ZjTkkrESEsXk/H+TVfvnWeKNXsW3ivb6nKAcGXtfSFv84hFSWkjdd4XVUDPSt71AAT1rgLNQobFj6D8PFmuXbiuSpFehfiWV5lCxc8VKYvKwydZQuQI9dOhc4nIS+XYwf34Nb8L/xdnYjyyX9ZruBxXOUC4HFYtf+ZlsUBwcDBz5sxm8+YtfPjhh5K8IyaxuM7Hwp8+fRoOh4OJEyddlrZdjQ8VbtFjFSrh7D+JyKQ4ErdvQ3tmMIG7duDzzvqiGvWq7R49tavxS/7tbSoHCP+OHiyd3CrWFwkyXS6v5JI9HAW5p7s/2ANSvd++i9vg8WmIhwmIkGcwc/KZsQRVrszxhFiiQyMwLJuIMS1JaUNeBqn0MgGEmJjJVIysSP/+/Smw2YrU2f4dnf/fbaXYOC0WC4mJxYp5/7WvFUAgMCiQuXPmsmnzZj766COliyYmhbtE8bncxtOnKYAwYeLE//y4LV5iNGw6Pcdu7YixXWdMjnz8c1JxrJyLNTlRulRLX1fSi+CiYsWKhIWFUVBg4+DBg9jtZ2aK/xfGckREONOmTWPq1GkcPSpKDXt3iXE/Z84c9u3bx8tr1nj3o/+Ru1QRJHXKF5f486W+hP1PLYFuNpupXr06JpOJzMxMYmNjVUEmN84+FSDIv1Y1l857FdMTFWAvDokJHo3G0bsewXxPRwqdDqokHsaxYgrGEimOl9oGCiDcR/sO7Rk8cDD5BaKkdPGl1a1Tr+izpsTEEBEZyYBygHBaR0dGRqLTaSQmipKgV+YSnRdZsSJbtmzmxx9/pF+//lfmxf/AW8S3hoSGMGf2HDZt2iQBgpxC5ymE4lk8ZsyYTmFhIZMnx/wDrb+yrxTSP8XCMC6SLSHk3dEGv+hqFH64ichjh0qpIvn7W/H39ycxMeGKNFT05agxo3jowYeIj4/H6m8lKDCIO++8i5wcj7LhFWnKFXtJeHgYM2bMZOqUKRw5ckSy5L25xAY1e84c/ti3j9Uvv3xZNkFv2nE13iPmdpMmTfjtt9+wFxZeFl6JJ8zgKbhUuXIlNm/ZTH5+PvFx8dSoWYOvvvyKESNGljJRSZCu/uwFOigKbig2hLokQxKXS9QKgYN1m0OPoeh1GtV3fYTz/16WEuKew9KZAM2F950CKKKaY8eOHRgwYIAE82cFCE8+2YXg4BBWrliBrbCwfLCWsNQLK1eyefNmtn/ySZn7o2Ss9Gw/PtM9999/H9NnTGfY0OF07vwIffv09XIYlrmJ//gPBJEuICCAp556im+//Za9e/ficoo43/lLqYqDRdeuXeUJdeOGjZctXvePG+mUBqgxoySDbXo9hToNi6MQvSBeFdUcgCZNmxAcGMCnO3acE3CdD4yV5furVqlCQmJikddg+ycfM3XKVL744suyPOZfc6/gz3Tr2o03N73J8eNJXrdbLPhPdX9KAqnt28u+tnj9on/hjWI8vvPO2/To3oPUtFQluX0GL4JYO87nfj/b2D51wzUYDBiNBvLy8qXn0uJj4ZtvvuHuu+8hLU1ojZTkC3o2ee/AgRsOFD2j1K8EYdIF8YGVMQ2ahM7HgHndCvz/2OMuZy4qUGroz+DxuNCuFa13upzc2OxGmt/UnFWrVmGzFZ4dIFzoi/5NvxOu+pdeepHKlStLl/Tnn39OTMyUok+oVq2qdPkJj0GhvZCNG16jSZPrue3226S7KTc3l9mz5rBz504mTpxA8+bNpftfDJ6xY8dx4sQJNmx8lUce7kxWlqgvDkFBQaxf/wod2nfA6XQydepUbrn1FrlYf/HFF0yePPmMgz84OAiHw0mtWjXp2bPnf9qD4Jk8mq44wHeq6+/fNM4uR1t9LBYWLlzINddeIx//+2+/M3jIEOk5EZePjw9r1rxMZMVIOW5eXf8qqalpTJo8gZzsHDl2J8fE8M3X39Dr2Wd5sNND+Pr4yNOSqAW//8/9vP/++zzc6WFy85Rymxij69atY+GCBfz8yy/06/ccDz30EDq9jl9++YURw0dis5U+dZz67WIBf/HFF/nss8947bXXL4dpyp95lVug+Y03MmbcWEJCgsnLzWPNmjVyLHg2/Pvua8OgwYPw8/UjLz+PLk88ycKFC7i+yfUcSzwmx26HDh2pW6cO06ZPIzQ0VK7fH3/8MbNnz6FRo0YMGTKYp59+2hORpFq1aix7fikdOzwowwVLly2hVs1acrwvX76Cd95555xWE2NfeI1379nNfW3uIzk5pdT9pcHChXXAqUTbQlHOvUIEmq8R/4QTGJ2FUj5dHgVENVM3Jrn0wZYzt79UiOHCPvHf8yuBDt9//z02bNjA1ne24uvry5gxY2SMac7cuXIwfPDBB7zyyit8sv0TOajSREEO4NVXX2XtmrXs2LFDxmnEafXuu+7i999/JyMzg+7du9O0aVN69erN5198Tv9+/fjpp5/lbx944AGEd+bRRx+TG32DBvWZOWOmjH1NmDBexh9XrnzhNHTsQb0CoPwvAIR/z0j6Z1oqiJjiWrx4iVwcBw8ehBjTY8aMlQ7LDz78gDfffJP333tf3qfX60lNTWXO3Dls376dzz7bSV5enhy7NWpUl884duwYDRs1YsXy5fIkMXLUSBmOGDduvHxGZEQE72x9h5tvvoUbbmjK3Llz6dz5UfJyc5k0eRKZmVnExJw7rGMyGvlm1zc89VR3OV/Kr/8tC+h0Or7+5itGjhgp18To6CgJGJ94ogtxcXHUq1ePFSuWM2rkKP46cAARrjly+Agms5kdOz7lwY4PysNZVnY2Pj4WatWqxeHDhwkJDmHjaxt56KFO8mC2e893dHroYflMsaGKcOWR2CMsf345q19ezffff8+GDRsJCQnhzTff4MEHHyIh4cxht4oVI4mMrEiPHj3IL8iTQPhSx/9L1hX1ZN94AIPiPKgQgKhgKks1izktMiVKkCQv90j6nwIIFSpU4PPPd3LDDc3kQimu+vXr88ILK7n11tuoV68uixcvpnXrNqfZffPmTbzwwgunuQFFR/r5+crnCE9A27btuLlFC4YNG0anhx+WA3XFihUS6W7d+i5ff/0V/QcM4O+/DkhXuPBAjBgxnHvvvbcI+Ra93J2C07Rpk3KAcLlnwr/g+X/s38e19a6VLRXg0qDX89vvv9GgfgO5aL7y6ivccvOtpciAYoFZsHC+9AyUdGF7TiBmixk/Pz++/upr6l1TT47HiRMn0q5dO+ntWrlyJd99t5u1a9dK74QAynu/3ysXSx9fXz788AMaNWpcRCQ7kxl79+6NGMMiROZwXkmi5L+gU/8HmtitWzcaNWrIiOEj3IRAF+3bt+exxx6TIGHKlBhyc3KZNXt2kTWkmoWmsevbXbRq1ZqMDFGsqPgSY99qtbJi5QoWzF/Anu/3SNDx6ac7eP311wkMDGT79o+5/bbbpcdg7w97eaDdA9ITIU7+gpD/66+/sXr16jP2gPBwBAUGShf8Sy++JMH3pRYjOFNYWX73WUCA5++v5JD5nwEIYiOvU6c2r218jRuaNSuysTghvff+ezRt0pR27R+gXdu29OnT97wAwWIx06dPH1q0aCEXR4GSRQy9TZv75J+//W4XHTt0lIvsli1buPXWWzEaTez69huJdm0lyCDpaen0eLqHFO0ofYnKdS7pmSj3IFzJaXH1vSskOFiCzGY3NpNjyhNz3bNnN61ataJunbrMmTeH22+7o1TjPQDhvffe45NPPpX/JrwO3bp1lSBAeBHEAtqsWTOuveZaOd7Eaf/++++X4YkvvvicZ555hgMH/ubHH3+QsXIPMVQ8S/BEHurUST7nTNejj3am86OdeazzYxT+h7MYrr4Rc/W0aNmypezevUd6Zj2XCPF++NGHXNfgOp5/fhm7v9vNmrVrzwsQbr65Bc8++yx+Vis2WwG1a9WRnrRdu76VhzRBVhaegZYtW8psPBEOE1lgX331JQf/Pugue65e8+WXXzJv3vxzGioyMoKNGzcyatQovt/z/T/CARP6Cp7QgrfZEpeq9/9nAILMCIiK5NNPPuW66xoWLWjVq1XjtTde46bmLWh2ww2MHjtGsq9PdSed6kEYNGggDRo0oHfvPnLBbty4MbNmzZQAQVwbNrwqQxnVq1UnKiqKsePGyZCFAAhPPN6Fv/76y+s+VADhaZ57rp/Xvym/8b9lAeGm//mXn7n2WrGJF3/b/v1/UK/eNTRt0oQlS5dIT1jJDVzcKWK5297dJkmK4urfv58Etl26PFn0IPGca665VoYqBODo2q2rZDULYq4gaAkewa5du3jyya4yZfF8l2jD448/RufOnenUqdPp3rHzPaD83/8zFpgydQoZ6eksWLCgaBw0btyIRYsX0/KOlsydO0cCTxE6O/X67rtvuffeVjLE4G+1FoHXo0fj5FgVpNCFCxfJsSku4dEaMmQoYn3e8n//x/aPt+Pr6yPDC8LT5eHreN7jDTF31KiRiNTHKVOmXrY+ORvdsSjkcMn9F959yv8EQJDG15Bkwm+/+1aSVo4cPiwt1LVbN1q3aSU3bbPZxHe7v6P9Ax1kHKvk4Hn9jdd4Zd166aoV18aNGySy3LbtPRlGGDlyJHfdfRdtWiuAUKVKZZYtWyZjwOL/79mzR5763n7nLUkSE/ExwdDX6YQoeLEq15m6TcR+BfmmHCB4N6j/k3e5XOz4bIckZH2yfbt01d59911yMWzbtq0En7/88rMMEWRlZhXldoux36///7N3FeBRHV307MYDBJIgpRQv7u7uUIq0xd2hLV7ci7u7uxQp7lrc3Vrsp0UDAZJASLL7f+e+vM0mBNiEAEmY6dcPSJ7ed2fmzL13zvlFfHvMmLFimk6dOoH79nv06Cn/rlChAiZMHI9MGTNJFIs54tVrVsP/lb+snJhiYKtZowZatmqJypUqI8gUBDujpmUfXqtXrx5q1KiOn36qFSs/h3op2y3g5OiIU2dOSY2Lr6+fnMhasOHDh8uulp9++lHSDVL8agyhP6bvsp6LtVusleFOEUa3cufKjVev/MWHWRPGCBcjCByvOZmzWJdjcYnijKZpGwp37top9TPbtm6TtIH4bjjjLuvQhH45eEuinZ1R6tLGj59gGfttf3PbjnzXXgjZafCZwIFMm9Y8CLa9Tgw9issugwHp0qXDggXz8djLC85OThJJ4CDm4+MjTlGnbh107tIZXl5e4kRbtmwV5Msq20EDB+Hm7VtYuWIFLl++LACBf7KiliHcihUrSv2CHn1gcZed0Sh1CWJs5m1dXLBixXLEd4sP35e+cHZyxrFjxyyDdXjWZfi3cZNG+OXnX2Oo8dVjR4UFSDzEbV/c8mUKIntfItSuXRv//HNDLp8tWzYsXrJIBlMOi2vWrJW6mZQpU2Lrti04feo0pkyZgn///Q/r1/8pkQD64/4D+2WVVrJECQsxDXf3JEmSRAZ1FoexcRU1deoU6UPkM3BwdJDQMHfvWDcOqqdOnYL/a3+t1kenoDWb5T5hV3FRYRt1jehtgWZNm6JFqxZ4/Oix1AcwgsqCbj3axShC4cKFpdaAC7m6devhwYMHGDhoIEqVLCmcBKxl2LyFCzQDfHxeiB9dungJ27Zvl63RbNwlQdCwa9cudOnSVX7Ge7C+jPUGrEHgmM/dEs2aN8fff/9tMRyPa9/+V/z0008yH/DfLIRcv2E9hg8f8c46m49hfR18s5jR9o2UUfskXw5AsLJb/Phuss0xMCBQqlyJRq1b4sSJwdwTSSNYLatv4+I53LJ45/Zt2bnw9dfJkDChJ1hD8L+7d/FNsmTyp944oAcFBeLhw0ehrs8cMJm6ODjT0W/dui1pirc1dhh2KnYY1b5sC3CSTps2ray0btz4B35+WrGt3ghWmdLiIMjdOToxEX2X22Zv3rwl22+Zl/3mm2/g5+eLGzduyjnWFd38PY/n76wb70vfZYEYB1uyBvqHZV8zAKlSpQ6HPt6AmzdvqHTDF+rC3BmQMGEi8ckbNzRQqzf6FYEs67hevHgufsoJ2t7eDmnTfis7crjbi38SoHKxRf/mv7krRy865/VSpEghQCNsYSN9lvdglICRXQLlsI3XZb/gHMFIwqNHj+T/6NJs4dSJymf9IgFCVBrQtmtFxY5Z2+6kjlIWUBZQFlAWUBaICgsogBAVVlTXUBZQFlAWUBZQFohlFlAAIZZ9UPU6ygLKAsoCygLKAlFhAQUQosKK6hrKAsoCygLKAsoCscwCCiDEsg+qXkdZQFlAWUBZ4MMt8KkLAj/8iaP+CgogRL1N1RWVBZQFlAWUBZQFYrwFFECw+oS2sGp9ii/OrT4ODg7CxRBdnulTvLe6R/gW4NZF7vkmm1xUN/pX8uTfwOuxF16+ehXu5SluYzIFwds7NB9+VDyL8u+osGLsvwa397If/PfffzImkgH35q1bUS6gZG1Jivnx/8ePH8d+A7/lDWMWQDCbUb5Cebx44WOh1oyqL9e/Xz8sXLRQ9t9+7ta0aRNkz0750k4iyDN+wnh07NgplAhPRJ+R3Att27bB3LnzLHvjI3oNdfynswBpis+dPYeLly6JsAzJj6j4+THavv170b1bDwvZTNh7UEXSy+uJEIZFVdMYHn8WITNKU6sWcyzAb1e/QX3RMrh9+84neXCKfZFKnGJkbGQNfZ9I2Ic+WMUKFVCjZg2h07e1FStWDA4O9iIaFdXqj7Y+Q1QeF+MAApm1yNs9a9bsKLOD0WAQVi2yyz148PCTfliiYeqYT5s6Df6vX8s7WQMEMjH26t0LgwcP+SAmL1LxniMPNVkAACAASURBVD17RkRM+I6qRW8LjBk9GrNnz8aVq1cxYED/jw4QenTvIXS14bWPARB4n/PnzyFH9hwWWujo/UXU01lbYNWqlRg6ZChOnznzSQwTFiBcuHgeWbNk+6j3jgxAIBOjWzw3DB02VAjBwuqifNQH/ggXj1EAgcbu1u03oYhdu3adsBhyZUMZZ9Imez3xEq5vynSS8dDH11cYs3SWQgd7e8RziwcXF1e8evkS3s+8ZfVCgMDjvZ89Ewa6uHHiiKmpkECqTTJ1PfX2foMxzvp7kOnQzS2eHMNwrS5ry1QB5aCtw7OU12Xz8/VFwkSJsGv3LlSqUBGvAwLw9OlTNGzYENlzZEenjp3kOL6fFuYyS5iN7+TpmVCu+/z5Czx9+iQUWzffhbzl/J23t7e8PxnHzl84J/Knjx97fQRXUpeMSgvUrlULa9etxevXAQIQyKK5eNFi8V/6I5UW+afeuGpxd/eAo6MDfH185bvr9KyJEiXC/fv3YGdnL4czXfDVV19ZGD4ZQbAGCGSao88RVNIfe/TogadPNbEdNoJWD08PODk6Sb8gG6PGZG5AooQJ8ejxI2HM47P89+9/8nN3D3fEixdPKGwZAWQ/OXHiuKhIWotPRaUN1bU+ngVmz5mN3wcNkghC3Lhx5NuycfwlU6fQFHt4wNv7qfgCGRGfPXsu0UuOlfyf7IdMo+rjM/2E12FYnz7K8YtKo2y2AQQz4sVzw2t/f9jZ28v9Hz96hFf+/qDYGe9JFUim6p4+eRKKvpi+7p4gASh/Tv9k/6lQvrxEEKjuy2ekP7u5xYeX12MYDUbETxAfcePEFV/28fURVlOO3WRhnDx5yscz/ie8cowCCBxJWrdtg7Onz+DCxYs4dvwobt28JStifuB06b7F74N+R/ce3UXfvnSZMsIdz7A6nW/27FlCw3ny5EkUK1oMW7duxeAhQwQgkHueH/fW7dto164tChYoiPQZ0ksqI3369EItW65cORmwrRvDbRSwadu2rWgqJEuWDImTJEHZ0mXw/MULULVswIABqF69huW0jh07ws7eDhPGT8DYsWPkujt27hAnHDN6LMqWLWsBCEwNnDl7WtCyLsW7ccMG5M2bF7dv3UaJUiUwfNhwrFr1h1yf544bPxabN29BoYIFcez4cXTt0lV0Jk6dPoVixYrLIK1a9LZApowZcenyJdED6T+gPxJ6JkSefHlw9OhRkcjlQFa8aHERTSKv/J69e6Qf3LlzG4UKF5LV3R9/rJaXvHTpIrJkyWpZzVCZ8eLFS6JGyhYWIKxctQLfJPsGe/bsRZmypfHE64lIRRMgUGeBoWXSz968dROlS5UG/Xn37j0ysB89cgTbd+4QdUkKlP3W9TcsX7EcBMVnzpxB/vwFRHGPCnw7dmxH+XLlPxvPfPT2gOj7dByHqBA6YsQIJE36NebMnY09u/cIdTx9r1TJ0kJzfPjwIZw9e1bGToLZXLlzYcrkKWjcuLGks8qWK4dZM2daJtPixYuJj+3bv1/E7lKlSoWSJUoJqLAFIPC5Ro4cgfv376N+/fq4fu06+vXrh+t/X8ea1WtkQiddc8GCBbF16zb07dtXjEyAs2HjRpkHqBGRP39+FChQULRJCBDatmkLJ2dn7Ni5XeaXbdu2if4IxdLYH0n9TCBNbQkKp7nFj4dlS5d9RomlqPOdGAUQdNUrznZx4sTFiZPH0a5tOxmcCAAot5w5S2bUqFYTgUGByJQpk6jUlS9XQSzm7OyEly+JSM3i2KtX/4EiRYqKYxz46wAaNmiIGzdvol27dqhTpzYqV64saJKD4po1azBu3Djs27c/lPUpQbp953bU+rGWxmVvMIjUKIVuevboiRw5c2LgoAGo9n11y3lMKZB7nOp6HDiPHDkMSjrr4KNp06ahAMLZc2eQLUs2ARDHjh8TdbH+/QfIgE+BnvHjxklnY3Rhy5bNKF++giBgRlVWrFwh99m/f79EERghUS0mWCCEnps1CNW+r4aixYoJuOMKn4CWSouHDh1G5y6dkD59BrRq2VLUQRN6egrgLFOmjEQadClnPdxJgHD16lWRiQ4NEA6jUsVKaNO2jUg0BwYGyaRPn/rzz/UyeBcrWlTuW71GDdEZYf/p3acXKleqIhMEQTsHUQJW+qunhwe2bt+KwoUKi/YJ34pRNRZdsg+YTSYFEGKCO4Z5Rn47jiWUDue4MmHCBFGrZTGhrs1x9swZUWxctny5LFAGDx0siqF169aVyEDcuPFw6NBBFCxYSKIJXAxxHKdvGAzAypUrpe6Gwku2AAQ+4oiRw5Endx6RGafvs/EZqV/SvVt3uTaBAgWdOJnfu3cfgwYNkj7Vr19/mIKC4ODoKMfpKYYOHTpg4cKFWL16jTwT548dO3agceMmwfolZjg4aOfodQcxPbWgf+4YBRA4sIl8p8EgqJQhyuLFS+DhQy2nzvwPhTa6desu/+aAtW/fXlm1sPE8rppSpkwhYjVdunRBzpy5wgEIbZE5c2b8/PMvlg9OeeclS5aKaqN1o+MSTdasWUMU9HgPTvoEHHTU7DlyvB8gHD2MPLnySIqB7V0A4fiJ46I+eeuWVkzpFi+eSJnyHQsUyI8JEyeIrrqInJrNqPp9VdFC16V+Y+BY9MU/8qBBA2XgZRpATxsQhPJnlA2nhDlX4hQQY8SBUtATJ07A2bPnRMHOVoBAsNGkSWMULVoULVu2sth9xIjhEp0gQCBYYOTt0aPHMujT33v36Y2sjGo4OQlA4ApSF7jh78ePHycpvPnzF8jAzMFf9NdVi/EWyJIlC+bOnYNVK1dh5qxZoXbasOaJEUt99w0jTQkTeaJP7z7BaSUzTp8+jdKly8iChi1J4sTIkjWrpMDqN6iHuXPmYfXq1RECCBTPGzp0mGXs3rR5E0aNHIm9e/dqqTAAk6dMxp49eyTKtnHjBgwcMBAnTp4M9T0IEKrXqC7A9s7//oeRI0bIApCNqW6qT86dOxcbNmyItWmyGAUQrL8eAcLxE8dQrChz6to2FCJF5lu5utYAgrNI2ebLm19+PmPmdFy5fEVWT36+fjKwWQOEBg0ayC4GRhCSfZMMva1kbJctWyoAYePGjaGcqGrVqgIOmjZpKp5HB2Q+mOFUAgRGNJhiqFYtJILQo0d3BAQGSDpBIghHDyN3rjwWGVwpUsyRQ2oQiKoZQciaJauoizFqUqhgIVndsdEOe/bsRr58+VGuXFlBw/MXLAhWQRetU5w/fx4HDx2K8YPRl/oCAwcOxPMXz8HCRX1irVGjOipUqIA2bdrgytUryJiB0QDq2GsD2LDhwyTUSh17AoTMmTKHFAOazbhyTT8nJMVw5PAR/Nq+vSg7su5Ab3qR4pgxY3DmzGnMmzsPrwNYUBs8yZvNMjlQdfTYsaNSXW4dqeIKs2LFCqhZs6b0w759+0noWbXYYQEuymrXriXfl5MlFyNcTRMg0Bf0xpU45Zj18Zk/P3nqBMqVKSe1LH369sG3adPi0OHDMqY3bdIE8+bNjyBAGCEqj1OnTJXbEqDu3btHol4swtXBab++feUeU6ZOEdDKFPG1a9dDfRD2L0alucDy8PDEDzVrWgACr1u0aBGRhuaik+/E1Ftsa7EAIBSzFN1x21SiRAkxoP9ADSA4O8tKPm/efGDRF1fT9es3EKehFDNXQwQIbAcP/oX69epLDcLPP7cTKefevUN07t8GEL79Ni1mzJghIX6zSVvfpUmTWpBlqZKlBCCMHj0aFStWsjgsayGuXLmC0aPHWABCzhy5LIMqO0b2nKEBQpbMzCGbpH6iQIEClq1h1gAhV65cmDJlMooWLfZO+ejY5sSx/X2YYmCek/6pRxBmzpwhA9uKFSsk/cWoEVdEWojTLD+fPXuOhEK5JSx37twWUMkCVkYdNFARugahbp06qFixIho1biQhYzZGIyhJToCwcOECAZuzZ87SnsXMUl6tMR0RHkDQvw+frdZPP8lW5ebNW8T2z/ZFvJ/mbVo6jAujjZs2yvjL2i3WTnFcCwUQPD3Qv19/y88IEMqXLS9FrAsWLJCxSw/Pc6fE8uUrIgQQWIPAMVwHCLzRkiWLsf7P9Vgh6QFxWrnm+HHjceCvv8CxnSmELVu2vgEQfvihpoDwKVOn4t+7dzFkyFCLz+vPmTNHDixduhR58ua1FFXGlo8f8wFCkWJ47KVV5YcLEA4eQN7cefF9te/RskVLNGrcWHJmDBGVLl1aVt7MlbKgpm7deoI+CRBYbMjUgd7eBhA4QK76YxU2bdos6JlpjWXLl6Lbb93AFRkdf9v2bWjUsBHu/XcPiRInwqxZsyxImxGCo8eOoGnjprh9544U5DRs0OCdACE/nzm49NsaILBQc8f27Vi7di2WLlsmgIKV7VxJfgySndjSCaL7exAgMNTZpXNXAYis9F63bq3kcq9evYbvvquC9u3bo1Gjxgh4/Vr8ut3P7VCqVCkZuHv27CnFsu3a/Sx5/y5dOqN69erh1CAcAQHvkiVLJIfLqnOSKC1ZugTz5y2QFANXi9t3bEPtWnWEtIb+6+6eAFeuXA0XIBA0pE6dWnyQNQvff/89cuTIgS5dukZ3s6vne48FOEGmT5cOL3x8pIaANV7z581Hl65dpRgw3AhCOAChXNnysiNr1apVsiL3eeGD7NmzY+y4sRg6dKjk/t+oQbhwXtJaYRsLJ2/fCQ0Q0qZJIxw3TZs2w+PHj5AtW3YMHzEMJYqXlHqJevXqonbtOvj111/h5+cn/et///ufFHwzOkwehPhubpLK/fnnn3H82HFkzZZNth4HBgYgZYqUmDlrpoAbRk5iU4vRAIETKz+ynmJgaoARhIEDB8k3Yoph7769KJC/oBRGyeq6WFFxisaNGsug2qJFSwmU6kWKZOdiuOkbAoTevS15rEWLFmH58uVv1CDwPhwkp02bisJFCuP169dSpLVmzdpgsGpGwUKFMGPmDCE9OnHiJBYsmI+cOXNi7Nhxckz69Omwes1qGbzr1a2PXDlzSpFi585d5Nqnz5xCtqzZBVlzhVaoUCFJN7ARIOzctQMFCxSSf3M7EQt7ChYqKO/FjtqyZcuPwoIXmzpCdH6Xvn37yATLqm5WVXNrLqNM9CW9FSlcGLPmzBK/uHzpElq0aCETPBtrA+bNmys+x2pyFvbSH7mzgW3P3t3o2aOXhSgpV66cWLRwEQxGgxSIPbj/AH4vX0qRLht3Aq1YsVy2jdEnGUGbOHESXF1d5Bq5cuW2RMOYQmOVO4tpmf7g4Mp+6uvnF51Nrp7NRgtUqlgRI0aNkOJYFpx27NARu3bvlrNPnzqFXLlzW67E8ZYphgEDtAgv2/Hjx6SomtsOWRjLHTvc4TVz+kwZD+/8744ABEbAWHDOlLJc+/Qp5MmT941IKVMCXORNmzY91BsIwJg4UWphOPmzjovbMfVGYrKevXpKDc+t27fwQ80fUbx4cTCV17ZtOznM09NDonZ8XqaJy5cvL/MD09JMsfj4+NpotZhzWIwFCJE1MSdcrmS08JAh+E+zJZz61utqG73feVtem9cNu1OAP2PUwsnR0RKC0sOy2gXN0sHYIaz3tkf2HXne257lQ66pzv38FiDQpX/pe8etn4j+w9/rVeRhn5Z7wXmuHhrVo1DhvRV39nCgDuC23nD8ngOj7EYIDLCk1t5mHfYao51RBtMQ/1ZFip/fm6LmCeh3Mq4GBlr4XyJ7Ze4Y47hM/9aL0iN+rZAdQNbnWnw2IOANAiN9jOY4bWsUgO/M3Q8B3J0TS8k8vjiAEHFnU2coCygLKAsoCygLfHkWUADhy/vm6o2VBZQFlAWUBZQF3msBBRDeayJ1gLKAsoCygLKAssCXZwEFEL68b67eWFlAWUBZQFlAWeC9FlAA4b0mUgcoCygLKAsoCygLfHkWiDKAoFVxBjO5vafaPyaa2fJ+weQxn+8dwq/QteV5WBWsk9+Ee3ww6c2H6JjTTh9yvi3voY6JuAXe++0jfkl1RjSygDUNfTR6rCh6FG1M4X/v2nkTRTd762W478ZkRfcfkfvpuxw+9tiojb98sqjZJRRlAIFMb6RnvXDhvCi1Re+mTbI0pK27U7JkzowMGTJgzdpgfoPP8oJm4clPnSo1Fi1eHKEnoGNSnnXosGFCBhK25c+fD61atZI9xCNGjBQ+B1uaOKRAQyBlqpT48YcfLPwOtpwfXY5p/+uvSJEyBQ4dOhTCYRFdHi4KnuPQ4YMoUrjoZ92ORR+cNGkifv3lV8sbhd7u+/YX5ZZKEpiRiyE8kMvf9+nTG6NGjY6wWiknVxLllC5TGteuXpN7xLRtaz+TAyZxIiHS2rAhNB18FLjPZ78EGTyptvvOBc5Hfkry2FDDgYRj4W0zftftucW4dp3aWEh+kTALaDKbtmnbFmlSpxbGx41h9H4i8lr0g/0HDgi9flS0KAIIZhE+unTxErZsDaarDJ55aQzrQUAHN/y1bavNd6+Y9WvoeCnsgKNTgepAwPrjcK+3rYg0R/bsIuBEZTI2a6SmT5D6BwnvvUL/LPQ7hfe78N5H01h3F7bG//67JxS79erVs4neM2nSr/Dbb7/h6NFjQvhkbQc3t3hYvWYNWrdshQwZMwgByeDBg23yL/3Zv/++qshWp0mTBlWqfGfTudHlIE4Qm7dsQc0aNeDvbxswiuyzW39r/e8WH2ZfsUKsUbnquHzlEjJlzPzGY4fnu/r6Q7w0vGigFSeI9fkcNLknPrymvwvFfS5dvIg4ceNg1uzZqFe3nk2mJOUtiaKmT58OX9/QAJfaEYN+H4jMmbKA2ihewcyqNl0YwNdfJxV2vQsXLqBEiRLC2heTmB75jagDULJkSeGZsI528u/8X/sukY8+vs2WoX1Y95yQo3VBL3kOWz9IOMf9+ec6i55NeP3F2g/Dj5ZZ894Er6+Dfdu6z4UoBofui/JmBiBnjpw4QwnrOHHQvkN7EYWypbVr11b0dIYNG4b/3b0b6pQKFSvg/r37InBGUjRqr9y//8CWy1odYxb1YS7yqKxJqfaoaFECEDhxDvp9EB7ef4Cdu3aJalahggWFWZASyFRxa926FRInSiyEKWTSeunnh++qfodSpUrDy+sxLpy/IMJKZKPiREZDslFRa8/evUL+wgmobNky4vB//PGHMMnxuBs3/kGyr5MhvnsCzJo5S9gDOZH+9ls3ODo64Pr166J5QC3yV/7+cl0K0FBrQR/r+BxcheiNg8ypkyctTm0NEAoWKCADkYOjgzDHkTWRQjVt27YRKlpeh/fu168vevfuI5dkhKV8+XKYMmWKCCpRjTFN2rRwdXERUaiXr16Bk2z+Avnh4uwiK1kqjWXJklmevU7tOti6bavY4dtvvxUtBw6WBAnbtm1H5UqVROyECJtKaNRWX7lyleV9KGQ1depULJi/AO07dBD9cr0VyJ8fjk5OOLB/v0wIlIiuVau25fcEJMWKFbP8mx1wx46dofwvVcqU8PXzFaGoKpWrRIVvfpJr8H1//PFHdOnaGRs3bBRZY4p2nTt/DgXy5Ufffn2FgbDqd1WFOIgyxvw2/N78jq9evRT/onYHaV7J+965U2c8ePhQ/KBtmzaYOGkSSIPN40nSxc4/adIkGbRnzJiOv//+Gx7uHggyBQkLKKVwae/q1asJAc3cufPQoGF9/Na1m0UtlJoJs+fMERtxgsyaNUuosCKfkdLQetMBAu/JQYjPRr/is3LopioqJ2E2AkhSJw/o3x8dOnaUn/FZyFXvniCBUJqThc7D0wNej70wetRo6Sd9+/SBo5MjPDw8hLWONNC0CXn5S5cuhVGjRmHIkCFCCd27dy+hP9+wfoNIr3PVTjvwe0ycNAG//tI+1PcfPXqUSAdPnDAR9eoTVISEUHk/nrdu7VqRoQ4LEKhdQtZHvT179gxHjx4N41+cSCES8bzXd99V/ST+FxU3oUgS6bgpRTx79mw0adwE9+7fF7+ltHzFChVRrHgxODu7YPGiRTh1+jQSJkyIAQP6w8vriWh1OLu4YOniJRg6bCh69uxleSwqy86bN0+O/63bb0KGxLFrzpy5sooePPh3PHnyRES4OC4PGvQ7Xr18iRIlS6Jate/lu9DXmzRtKhoMPIcgkcqz9Gs2stZmzkL/1RqvwzkkhLDIjD///FMAAv2X46oj5ZUDA+X+JCoqV74cypUtCydHJyxYuECipGRmFO0EAN27d8PixUuEeZashyQM01kVOS9wodi1a1fEj+8m79KvXz/ppx07dsD/7vwPJUqWEPr8WbNnif/26tVTorkH9h+QcYGT8osXPgIi2M/79u1r8VGRuh48WIShyCLapw9/F35rUL++ABCCVb3RXqT+1xtp8znvWLd4ceOKKCCZJ8+dOy+6LFHRogQg8EH69e+HPbv3CJJNnDgx/lz/JyqWr4Bnz5+jWdOm8PH1EQEZUmbScTn5kZ6YGgUEDRx86tSpLQMPwzitWraW92vQoL5QbdLRxowZLbSXNMaGjRsEMVN0gyIfHNjZuTnwMBTFew0YOBCXL12W65QsWQIUM2L6I1++vMiXN58IcEiEw2wW/nqCCX0B98TLCydOnrB85OzZsoljM4JgR8bDoEDJiXHSrlSpsojbkE982tRpQnfL6660mmjJP1+vfl1xMj47UeKJ4yeFrpPUyiNHjbKwkdk72GP9+vVyXT5rt+7dUL9ufekw1apXl8lgxPAROHjwoHRE8qAPGzZUuPIpwzt/wXzpjEwXsCVJkhjDhg9Hs6bNwEgC7bZsmRYJYeMEuXv3LjzxeiLPPXb8WHTq2NnSWflepB3VkTZFqbZt3x5qdclOwO8+b/48VI4hAMF61bF58yZUrlRZlgnsfL///ju2bN4s8xCFWKh74GDvILoa1DggQO3fvz8uXryEGtWro2z5cvi53c+4eOECuCK4e/df8afBg4egW7duWL58GahmR9riAQMHyD0IskgZS3VOH19fUNb57t27cj9KKlMql00GmCGDBeD9++9/mDZ1qvQ3fms26iUQpOvhV36ng3/9JdfUmw4Q9BUdB2qq1e3YuUOYEDdv2Yzvv68mPsbzEydOhIULFqJS5cpyiZYtW8gAS7rZnTt3ip4Coy3kyqccNGmdKdbD8+kH1Fyg5ggH+rlz5mJxcEqMcuXse5T0HTFyOKpU/k6omwn8OWGwj1K2vUmTphb/YtqK34XiPez/5OwPL0pw4MB+VK/+JkCg6l6cOHHlPRg19H7mLcp+YRv7fqtWLeTbbdmyJSrG109yDfZZymwXKlhYIgjbt28TMLZ9+w4Ba/Q9ri6J4pYuWyrpFArGMSVMH2revJlMQL//Phir//gDNX+oafElKt4OGTxElESHDB0iYwTHZ4obMRpJuvuyZcrBz9cXvw8eDPaj8+cvYNq0aWjYsIHQgnNSJ708+wtpiUmHTAG7x481DZ0UyZMLQOC3oe/RN3fv2RMuQNAMqkVFfvn1Fxw9chQ3/rmBjZs3olSJUqIyyvE3b948oqHAFTUb5xqK4zFaOnzEcFD/QRZDK5ajW7fuuHPnjtDU038JEOi/VC2lhgMXYIsXLxJQcujIIeTNk0/msDp1a6NH957ImDGjAOCpU6cJDT59mbbUG3VN7t79Hw4dPCRqqQRyDx68GSHgomP1mj9Qo3rNUCnebFmz4utkX1uUWglwOX7oERm+x/z58+R7/vDDj7h48WL0BgickKj9rSNRqsBR7CKAFMcmk3yEJYuXoEjRIhhHPQKDAc2aNRWUSIDAVbauR0/hoj9Wr0bmTJlkYP33v39hCjIjXbpvUaZMGVlBD+g/ABcuXkSSJEkwdeoUEfzgqoWrIp12lgIcmzZtRIkSJbF06RJBupcva+CBzpYvX75Q4VF+BK7SxWkBWAMECtrUqFFDogVEkQUKFBQET/Ch60Lwuu8CCD/+8CNevw6QAZGokQInzEFRlIcDJgdgRjXy5M4tdLbsdHxOiuzoAOGvv/5CyVKlBC2XKlkSZcuVFaS6b98+0Spn52TjOVSr1CcUrpB69eol92ejeh850bkapLNNmDgBHTp0tAACcvmzQ+iNHfj48eOhBj9OPAkTJZKBICYChE2bN6JKpSrii4cOHUShQoXFFgwlLl6yWISJ+O8sWbOgRPESOHZckxrnap++xUFHAMLFC6hQvoKEEZ2cHOV7UGqWnXb//v1iU0Z49u3bj8mTJmHv/r1yHf68WbNmEvnau2cvfh/8uwBEfUCkL1SqVAn9+/XDwUMHJQ2kAzYOaKlTp7J8D/784oWLop8QFiDwfRj9ypEzJ1KmSCECNVwB/vjTj1ixYqVFDZLXfCtA2LUTGdJnlGO5wlq/foOsKosVKyrgM1HixLhy+TImT54ivkhwrmuhhwcQ+Izbtm1F1arfo3HjRjI5c5LW26hRI9G9ew9Z9bm5uWH8uHFo3uJNNci3AQT2XRdXV8v1OMYwyhi2ccVboGAB9OoZItL2SWb4D7gJo3mkaadGS+FChWVVvWPHdlSoUAkmUxCSfp1UAOX9B/cFCGbMlBGVK1XBmtWrLeCPEcKuv3UVDRlrgEA/YlSSAIG21Ve1BIDMpa9bt07G0nr16ss4Wb9BfTx6+EjGK47NFLvTU1RlSpdGWhECW4o5c7TUkp7epX5O2rRpLT7C+548dcqKljskgkB9HU64XAzyf0aqWDfC8ZiROr0xTUQVRn0e0QFCgvjx0blLZ0nNElBzVT9p4iTc+OcfibIQlCdM6CnRrAnjJ2DR4kWiPMp5hNG8I0cPvwEQGB3kmMFzuYpfumSJRAH0xeeixQvRvFkLmfcYLenUudMbKSxG9Bixo+IkRa6say2oDpwoYSIYjKQrhwj6nT933gIQOC5wkXjk8GG0bdcWFy9dws4dOyNcJxGeG360CEKbNq1lEmYbOnSIhP7v/O9/WkGb2YxMmTOJ/PLQIUPFGB06tJdVBjsvV0q6HCxDZDNmzESqVCllv5Ru9wAAIABJREFUtc1wEBuN/zogAGvWrEafPn1w+fIVWbnQEehAXF2XKVNWjKk35oEYbZg5c6bIPodMeEGCGq0bi/SoKqajNB0g/HXwoKx8GjVsLB1w27ZtElLv0aunhO9u3LhpucyKlctF9Y7vW6hQQRHaYQRh/YYNqFGtunQQAQgNGD7+Dev+XIeaNX+QzrZ953aULFEKuXPnEtBx587/ggFCNRG+GTZsOA79dRAlS5eSkB7DXIw6cOL/9tt0ElmxzmGHyrOFyXUzMkIn5EDPe1OylSFW/RyuANzd3a2KOs2C/q3z07ENIBQuXETen+CICm4ciHRpY/786JEjIvHNcN9XXyVB3379NIBw6QLKl2ME4X/iU4weECCcPn0GxYoWlUlb7wO03559eywCNDpAYDSNII4RjZC8rRm7du5Cp06dBPxNnzHD4mdceTDKozdelykkHSDy53oEgYJlXL3dvn0HTJsxBcjV+C+//IIJfMfgxkGbKx0CE05CTPtNmTLVEkHIkCEEIBDYJ/RMKMqlFLPh/Vu1boWpk6di1+5dKF26jNZnKc4TJoLAyYrHDxo4EGfPnpX0AVdB1k0faPVr0BGt/Vk/9m0AgWqTkkrkMxg1PYjnzzWhHj2fTdBExUtGfMK79gfM4R/91LARBCq6litfXu6b7OuvUbdeXZE21ltgUBA2bdyIylU02ydOlAit27bG74NCRxBoNwJIjuOr/liJOrXrWuoYuNALMplE/pspDVb3N27cBA8e3MfTp95SrNy9R48QW5rNEn1lNIP9glLkeuMEq/uvNjGaxX9DynFCAAIjnYyEcqHYqFEj3Lp5C5euXELLFq0kKquPSYxUs6i1WbPm8jOusLmqJ0Do2KmjRK7ZtwgQJk+aLOMz+zIXnBRsYhpNAMKSRWjYoJG8x9sAAt+D4k2bNm6SKCGF0qz1S6z9V5+7rH2Mf6dMNVPVb6a+IIsUJ2cni72YUnn+7Jncg8Di7LkzCAoMkt9TS4ILuA7tO1hEsz7EAT8eQGjdGoN+1wAClQU7tG+PPr37wNnFWVYC165dl5XZmFGjJZwyddpUWelyMlz9x2pBri4urqJFT/Ws1/7+WLRkMRYtXCgDSe5cubFh48ZwAQJX51QOc3B0lFQDB7uTJ09JR6BDUOkrojkaAgSGwQ4fOoTxEyeIg1Fmt0fPHsiXJx/y5s0rTsW6hqRfJcWJkycxa9ZMCUWfPXtOQn6379wKBgjrUaNajRCAEJxfZoSDwOW7qlXQsGEjlCtbTgDCo8ePJQ+mRRCqSbELdyMcOngQrdu0lkgHowE//fSjrDIZVgsMdhhbnIOhcA7kbVq3kQmBYTjm7sItUHvLBWM8QNi0UaudMBgkPF+kaFF5UwKmlatWymr6zJkzsgJj6Jbqb8z9M9SqqdR5Sn6xU8eOEsLesnkLOnbqFCwt3g1VqlSWmhwCXBZycmLmN92zd48llaADBA7mu/fsFrB39393JUrBnDJzp5Sg5XcKr7jWemNT2IIwHSBMm67VoTzzfiZ9jukl5qG5GmRfu3njJuIniC/9k6sihuw5yYwaPUoAt6QYwkQQCBCSJmWhXzYJ/7PO4MLFCwIQCBhKlS4dCiCwryRKlBgE0Iy2cCJgeHf5suU4dfqU1GFExPfeBxDe1weqff89KlWuJLUXHGg5gTICGVPauwCCs5OT+BjHpX/++Qfp06WXtBIndRdXF0n19u7VC4+9vCSfz4nlsddj7Ni+Q8vDP3yAwb//LlGCTJkyymTKPsD6EiqMMp3Ja7FxwiZA2LFjh9iSvk7lRCp3MqROmXFGdZlKfvnyVQTMqwEE+iL96bffusL/lT9GjhqJMaPHSO0aa24Y9Xz08KFEMLgwJMClf2fMkBGjxoxCg/oNED9+Aol6Uc1XBwhTJk2WOYqRFPova2rOnD0j0W3OUTyPx1oDBEar2V+oBsxFrYO9vdQ+bNiwQVKEEdltwRQdo3hMQXD88XnxAqfPnLHZPiGFwWbZYXH58iXs3r0nSoBulAAEOmjWLFmkMOvhw4dSwMWQEcOqeuMWQa5Ygswm7Nu7T4AAQ62FCxcSKWLmypiv5M8ZLs2bN5/8ndK1nCAJKohoCxYsJGHY69eu49ixY1LMdfbcOUF/vC8HH4be2Rj+T5kyhTjziRMnJCfM0HhpFkY+eWLzB+CBLHJimoRREKYj0mdIL6EtF2dnMKpARM2VeNZsWcVhtm7dJuFQVkVzxXLmjFYYdObMWQnFslaDaxquzFmdzVx0/vz5ZfK4euWqgCamTTw9PWWC0LcmMlfI4hralvYrU6a0REtu37oteWjWXfz4I6MQxghVDTNdwueio+7ft1+KJiPaGFIvWLCgnP8hFcsRve+HHk/gxe/EFAAbw6OUOdaaGW7x3FCocGEBmFevXdXSK2ZIXQa/KQsaCQYYQWBfqFChPFxdXXH8+An5fgQWbPT11KnTgPUtB/76SwYx1r7o90r37beyIiDg44qhTOkyiBsvLnbt2i0VztmyZZUCqBrVa7xXWTSsTZiD3rx5M75KkgTFSxSX/sIiX/oV/2fxId+HhYv0TaZImFslQOVEwIGe0TFGVJhG4LXYMmRIL3URr1/7S02DvZ29SKfTR//++x/JzXKwYiOAKV+hgkTdtKhaITn/j1V/SL3EylUrpPaI6b3ItLJlyohd36Zm+bZrst9ZRxDZX/mMethBK2SOmn3lkXmv953DRytXrrxMzLQr040cS/U+qNcQJXBPgGtXrkn4nhNayVIlpWiP+ezmzZtL9ISTZKlSJeU7c1wh8KU/cotf/gIFpNj68aNH2Ltvn/gviw1Zi8DGccw/GMzy+7P2g2Pgpk2b5ZtybK5fr56s4CMygfLaLLrev5/1bYnE/54/e45r166J73Le4dhM/+Xzsx8TUDMFkSdPHvHd58+f4fr1v6V/ZUifXlbqtA+fidfhN+dYyhU4xy8PTy3NULhQIRw8dEi+P/9noTlrEthY/MpUN2tz2LZs3SypBKYjI9L4HeK4xrGcwmc9cECbwyLa0qdPJ/Mp5+GoaFECEGx5ED2U97Zjufrl1gzrHP7bjg29pcUWYh5tiwvzUiw24xam6Njh32ejd9mZMqncasqBjRGWqCLKsOXbfknHhPeNGCIdN36cAISP1TgJdO7cWQbtI0fCVuB/rLt+uutmzJgBLVu2jFbbCzXyITZtcojOLdJjB3lMjEaJMNi6tTmydmBxItOY9OGotue7omcRfd7I2DJjhgxSqM66i9jUPhlAeJfR+EGI3k6dOg1vb++PYF+zhD3jxo0ngyyjEbGpMfrCLWBnz5zBpMmTBe3byu8Qm+zwud6FqxKmGViM+7HazBkzcO7CeUyeOCnC0YOP9UxRdV0SHDFdwxzygwdRs/KJqmeLrdcJC3caN2mM+fPnf5SFBUPgrH1hxJdb3mNajcf7fIBb5ll/w+3qrL+ITS1aAATdoJFBbrHpY0TJu1iR2ETJ9dRFlAWUBZQFlAW+SAtEK4DwRX4B9dLKAsoCygLKAsoC0dACCiBEw4+iHklZQFlAWSA6WUBFd6PT1/h0zxJtAAKrT5s3a4bJU6ZIRTkJViLTvk2bFoUKF8KiRRETM4rMvSJ6TrJkX+PJk6dCahEdWsqUKXHn9m2pVwhbNMQdCaywJ7kSd4BEpvGarKplFXREq5Yjc79Pec6MmdPRumVrYQQkAQoroSPaWDE9buxYob6Obo2Fl+XLlfsg4ZiofCfmzEnWdfLUSSEGeqOZzUL+xN09rEiPSOPk5+rqgpIlSwmjHsmurIt8+XvylbDWhD7NHSD06S+pkaVvxPDh8srfpvtWdgREppGhVKMhjn6tXLmyQjAUHs/G5wBIFAi8eIk7AUNXjJDngLvOuHOQNO83bt6M8qJP/etEG4DA7Takmu3cuYvs9aciGX9GnnFygdvSaMZs2bOjatXvLBzctpz3qY6hhgK3CHmHs42LhTzcR67tQAjdrAmP3vWsEXFiDnbz5s0VLnyyd1k3/o5UrNzKxgJIXnf69BBiHlvsxe103MfPrVWfW4VNf17NPlKT/oHbMM3CpEjK4CJFiuDVK3+cOnVKtqjevHnT5iIs7qvetXOn0GV/6hZWpCns/QnYuV993jwWrr3ZyBjHokJbC86042j/8MWc3vf+RYsVRZ3atdG+fYc3GOK4fbn9r+1Rv2F94Q7RKXzfd03LIAhgydIlWLfuT2TOnAk3btwQpkDr9scfq7Bx4yYhjXr48FGMomK21Q7vOm7O7NnCXklQS5ZXqkZy2zoBE7eZv7tpOhc8dvXqP94gwoqK5/vQa/DZ6O8rlq8Qnw67TZtzCjkOwk7WERlzbX1GjlHc/j537lz069cf58LYl9vRuUWY5IAlShQXrp2PtbMp0gAhdapUIpDh6OiErVu24O9//pF9p3QgSgdzgFmyZImQHFEtjXuh9RfldsM0adIicZLEsueU0pQhAKGz8IaTjObXX39BseLF5fqk6OSeagrq8OOREyFH9hyyH5fGJMkSq/dv37ktPAUk+uGeblJwkviHvPfXucqzbFcyw9MzoWV/Kx3Yx+dFKGVEbr2kamLBggWEOIYUsFydcGCvWLEC0qdPL3vdybtAut2cOXLA3cND9sZyQuX57u4eIoHN9+EEcu/ePRH4qVixkhCPcDBbtkzj6SdFNVcmFEJJnTo1iGi5H5n3JWKnLgPZ8XifeG7xsHbNWtmvzlciH0TePHmF8ITkPbQ/wRXfndz5165RCCfERcmVwEgGaZZ//TW0MA7369NuFJzigLhp8yb8UOMH+AdLQPP9aXPrxt0nIeIqEDYx7u8n6KO4ia0Tia2dKCLHEXxx/3KmjJmEBGbd2nV44eMjJCqkCKZfkXabfAXkYKdduLeZXBS1a9cWVkTychCta/v/zcKFIAChqAYQ/vv3X0ybPk00RchZQC4MRmeuXrsmPtakSRML0CWZFff/k7yLFdAkj2FjxCZ79uxCdKLvtebP+dlc48SRb2rdrLcEk82R7/dV0qRCZsQ98eT/YGO/ZDTg6TNv/LFylbA5Uj/i8pUrqFGjOiZNmizPw74WGBAgvAu3b91Cg0YNMHPGLJk0SdDEb8jIXvLkyWVX0NRp07B/7z7Zh05f5c+5guez81gOZAnc3YUm/cTxE0LGxX5G1k6OC+QtmTplihDbcB8/eTxIgcxnD9v69++HZUuXCRspBaCsB2pGqci7QkBao0bNN7ZKk+PBzt5eLslvQT+13i3F8SZu3DjCx8DIyZp1a4SOWG98F8pUk0RI3x0U1dv0IuLPthzLCYTjLH2Y0VT6dOlSpfDw0SOhviZTIcXcmjVvJhoja9euFfIucniQ10KLHj4SgiJyDcyZM0e4Euj7WbNmE52XYUOHCn8FSYUoU8ydKOQOYKtWrZqcSztxbMqdKxcuXb4k1MekwmcjhwJ5U8gSu3HjxlDjB+cD+oduZ66ayR9iHe2kT3J8zJAxPY4fPS7bJ/l7+mGlShWFLI7AjhwMHG8J3itVrKjdKzBQxPEEpO/aLXMQ+wIJw0h0RyEx9reDByl69gITJ00U8EAND/r4d999J2P0vfv3sEpE8cyiYku7cv6j5gTfn41cKFWqVBHCPvYNUlZzjipSpLBErAg8+Z1C/M2EESNGCm193Xr10K9vv1CfnOO4zjJJ2n+yXXYkNb4tjhHBYyINENjJHz96LICADFJ0CCoAUkGLK0ZSV5JPvl3bdoK4p8+YJiIUfDmuvurVqafRKgcLNvEXnExIJTt33lwhnCBSJWNdjx495bUomMFr0zhp06RB8xbNZd8p6ZOpYnb61CmhoOUAS9IP0oCS+evW7VsiHvLTjz+JEfWVJIWVqGIoE6cZwrtNwSl9JiW/OY/h+1FohB+Wan50pCSJk2DmrJlC28xrMxS/aNFCjBkzFvv37RM9g8mTJ+P0qdMyeHGioNMeP3ZcgFH5cuUxfsIEIXLiJJUhfQakSp0a27drJBw859Gjh/Ksf677E2XKlhVHIBtfy+YtZGXOVQ6Fg6h4Wb5CeRFoIsMXO+nKP1Zi+LARMtBPnzFd6KetJa/J3kWREoZOqQFBuWe9URfDPYE7xowdKz9av/5PWbnxOdk4EPw+eJA24AaHv0iZTZBo3dh5GYkgK+TnbAQIVALlxEOuf++n3li7bp3oT0ycOEkUGLl6/N//7qBr198EJJDkhcBpz97dmDNrjihcchsTiZIodHX8xDHkz5sfvXr3kpAzFesWLVyERo0bC/viuPHjha2TAy/vf/LkCeTKlVsGR+7557ZU+jKBAwECB2bqPIwdM05oW0mrfDw4tUMfoNIi6YD1RrpVXYiGPyOhEb/z91W/R2BAIJavXI7vq1YTwqKZM2fIz0kARfIjboXdv3+fpI64/52iSzt37hCwSKArpDAwYN+BfSKhTPGf6tWqyyRL9VECghMnCZDyi38mSphQ/I7hUPrvLz//Inbi9Vu1ao3z585h7769qFu3npAucRXJcYHKqg8fPpBvkyVLVpmE+TwEtEcOh4jRUHuELI7jx48XKvVOnTqHS4ZEquXwAAKZAhkW1xsZBTk+6I39l3LC27ZuE8pgEa767nuhEtYbKYI3bd4sFLfka+E3j77NLFodF86fF/l2bu2m+NWokSNlAcQwP4WOSHVfs0ZNmeg4Nvbs1VMYQ7nIouIuNWISJU4kIkdz581Bs6bNxbcbNGwgvk6lR46tXAiQtI0getOmTWKWFcuXo3adOkJDPmbsGBnPSTpEIbicOXJJiJzjfdu2bYU9lilNih1pvgeZRypXqWwBCKTGJkup9fZtbpsk9wtVd+nvHdp3xJ07tzFn9hwRuCNrIrV5CEbpWxzjqTpMcEgiO/Yn0uUzSkrtD10759Dhg/ih5g8iTMWx7uatm1izeg1qUjQsuFFg7/yF8/j5519ksUCtm33798l8wz7PNAptwQUkGXLJMUHwSwDq5hZflDRbNG8htuQ7h6Kephpwt99kkduyRQscPXZUFBrDNtqJz+Tn5ysLk4/RIg0QOPjTsGnTpsHAQQNFUpQflcxZM2fOkmdduGiBaBawUYCJnPacjOXv7X6WyZqDpK+vj6ywbQUIVOviBEqFOQpCcWLWJyGufjlp8oOQV1s49IMRLQ1O3nl9NUtVSB110fHZeYgs9bZv314R5uFDM0fJyYQrY04WFEBh43O88n8lsp8Mu5Iuly7OCblEqRKiNcGoAVf+OkAglStV1Qb/Pliciysaph8YYdABgpOjIzwTesrPSClaonhJkZMmpfKM6dNhtLMT0R4+Hyd77sEnGpUQrtmMLVu3iOIjna9ipYrSybkiYGNEhI5PlUwCPE4AFFgiiqXTNW3WVJTLdL5/AgTaWWfG5DW54tIbvwcZ1Phe1i26AATteeMiRYrkIoRF9kOuqtipixTRKJU5iRw5ekRWE6zNoN5G3Tp1haaWioOUTqYSJid2csEfOXYEBfIVeAMgNG7SRELg9LtQAOHUCeTKmVvSOgS19Il48eJKdKZ4sRLCdb944WI8f/EcmTJlRpXvqoSSzebAYi1Hzme21hkhQKBkMsXIGPWheNS5s+dkxZgmVWqZsPmtKUubPXsOHDt6VJjx2Hg8Kck5oDEqRdluaivoAGHqtCkix75gwUK5J/vPyVMnLACBAIgc96lSpxI+CEbPjhw5LKCJoX/2sbFjx8geeBLKfJP8G4ylSFtw27BhvQB8MsCRLbJY0WKoVbu2ReyG32Jg/4HC7knGQ7LxEVyHbW8DCJx8uErW+zq/j3UdECW3SQ3MiV/vO4zyWEcpyEZIKXo+HxVLixQqIlow0bWRyZP+yignxwYCMPL9M1176dJlGbcZJSQFPFlXSZncuHFjWWy1bt1aomIcqzmGEnSFBQj0BY51N2/eED8nQOSqmKyJbFRJpGokJ/U/16+XtA37IdUeKUJG7R3qKHCypj4Gx0vSBOuNvk6f1xt9TmeT1X+2cMECAdgEcuzXjFRwQUTtCdL1s40aM1qYJUeMHIHZs2YL1w4btU44F9BX+Qy8vg4QqJxqCgoSESceQ9BIO1Anh43vQSBNsbM8efPIv5kOIEDgPEjbcSGXKWNGmfjHjRsrIE1fTJGSnVoS9HeOt9Qf0UWleP2uXbuIlg7twyj42HFjBWiHbVmzZhXpdtr5Y7VIAQQPd3csW75M5DSfPn0inYurLqIZTrS6lDA7Ho+ho3E1TbTFv5NrniF1WqdOnTpCz7ruzz/fDxAWLULDRloEgasw/r13rz6ywie3NhupNRn+ZwiUnNhczeg5JUYsSJKk5426dukCBycHi223bdkmWul627tvjwgm8XiGu5iHa9CwoayodUBC5yCwIA0vVcIYhuRAHGSi8lx8SZMw5EWZWh0gkM6YkycdunuP7rKCYspFBwiczGjf9r/8iidPn0j4jsJAVCcjWqR8LtnPyBdfskQJARADBwzEo8ePBCDwedf/+Sc4WelNf3f+m/zsTJXoEzr/zfSBDpyIrBlZIK0vGxEww4vUR2fjIN2iRXOKrlquv2TREkl3WLfoAhAobsSUCt8nQfwEQjXM6MuBv/ZbhJJ69ewpka2dO3e9ARAqVagkkxPTWmRMbNq4KY4eP4r8+QqIvLh1BCEEIEyQCYerCYYxGXHITYCwYB66dOoiVN8cAHfu2qEBhFUrJaXj/fSpAFKubHRBIfos6W9JHU6bc6Ah4NRC7VqzBgj8N+W//77+N27dvo1nz7xFEpeN3/ipt7dET/Lly285nz5LOvR+/fpKTpPPTvswgsDUXfIUyaXmgACKhDqMiPB8Xo8y7CzuIsAaNWq0aJDoktn9+w+QY6jISFBGeloCIx0gcIDcsGmDAImnT56KRwUFBkoKSG/se+xjeuNk7evr98aYGD5AMItGQLJk3wTbDhJKZxqOAxDBUdeuXXHt+jVsWL9RnpWAuUKFiuGOuXxeiplxwOZ1omPLlSunRBtZWOjqGkf6L9MCBAgTJ0yUfkpab9Z1sMaE70RgQCZA/tm2TVvRT5C+v3Ejvqta9a0A4datm5I+Jhjh2EuAwDGRInoEFpzAeA/KmPPnHDs5vgwaOEjuxZA8G8EWQbjeShQvLsXmmtMCfi/9BHDy7/qoQ7DTrGlT+TfTalW/qyr3oSInI796Y4ph8tTJGD1qjERXddpkpp4I+E+ePokZ02eIdkOtn2pJxM/D0wN9+/XF/Xv3MXzYcKxeuxo1a2gAgeM8qfXnz5sv9PpUqSRg4nxRumRpiXJwzGHKjMCXaURrZcvu3buJBsbTYLp/LhCt/Z3gjuO8DlA5joalD+e1qUlBYBHRotyI+GykAAJzitQJJ20xFRS56mXHJ8LiAnb5shXyDNOnT0ObNm3fAAgMDTHc6ef3UkLQXTp3kQnKEkGYO1fUHJk7pZojOyM7LnMyvXv3kY7JMCzz8AQIRH4dO3bCv//eFWVHNq7OOThTSe/633/LIM2BJyJ5Gg6iDAMxx9agQUOZWOfMnSuRCyJLrrbY7B3sJcTGcFenjp3kZ8y9PiMrpAGCLhniY/6LEQN2Pq5g+E6NGjWUiZ6ok+JPFJIi6qe6HkEUnZgIPV/+/BaAwBoFOrEOELji5yQyY8YMqfCm83IQ4yBB/nxORAEEADZ6BnUnqH5GcRTm4dZKTraylbqabReKLgChfv162Lp1q+wg6dWrpwggLVi4UMLsev4/XIBQu66oLXbv1l345qm6yXAsfSs8gDBy5Ej07NFTgBc7L1MZs+fMkVoTglWmGBhaZKqKK5ycuXJhwsTxAhDo51zJ6EWBnESt1UTfZ3ECBIbKOTCx8X6//vKrhIgJjBhC5sBFZTjmjU+dOoncufNYLkvfZgQpdx6q4P0ik6YOEOK4uorPcvXPcDF9gRGUIoWLiq8xBEo9A/oefbVbt9/eAAhUkOSkzNz1xEkTROBHT3m1b/+r9CfWGbFx1WQdHXnfu+u/f1sE4V3nsw8ybcKIC8cQrsqGDB4sOWimXMj/zwgEwRr7GMEJQ+qM1ERU88HW9/jQ41q1aik2pPw8U70cfzJnziIAgQqFd//99w2AoEUQmkhalqk4Auh8efOK/HyfPn3DBQhauteERYsWyQKK4k48lgXK7G/07/Tp0omUONVnqaPAeir2A47tVPxlUTojOuFNgu+zA8dn5vZZx8VUAtVG//nnb6mXoIojx1jKQ1MYivVBY0aPlloujp18Xv6ef6dPM9KhAwS3+G6i9cBFGM9r16Ytli5fqqlZms2Yv3ABRg4fIVo59JUbN29Ivw0NEAqJzQmWmTKrU6eu+Dgbd+M0bdpEUmV897AA2IKKwuxe0O1BH+X5LGDU+8nHKJbk/SIFEDjZ/tyunRRf/HfvPwlHsoOxMIarm/0iRATJL3HQYqMzMJzDCIPIzd65LXl8hskpk+ns4gIO5Jz8OLERLbJjcoJnuIkrE+bKGT569vw5jh87hq++SirOyWhC/fr15YOfPn1a0hzUtk+e/BtRXXSLH18iHSNHjIwQBTEHAgKYLJmziELf9OnTJczIdANDW6lSppL0wKzZs+VDUU+eISV+LIbfWEDCQYXCG+x0eXLnxrXr15EgQXyZ7Pk75mSZe6NdmB/j9YYNHYZ2P7eTFA5/z/AZgU+lipUkncGCSzo2c4o9eva0FMGlSZsaL577YPiwYUj69ddo2LABEiRwl3dnuoHNVpBQRFbdP0p4japmHFQi2vjdCHQY+v6cjeCNq6kH9+9LIRMBHVc95IbX61t++vFH+TbcRcIISdNmTTByxCipQZg3dz7Spf8WT7yeSuqAq/uxY8dKB69V6yf59lw58T4EIByEGD3jJMuBj5Mid6h07tRZZLk5cZOalasZDpRM33BVwz6SInkKWelytX3lymWbQRnlbTkBsIiS/ZKFsxyM6YsMe7IAkYqJ/DmLovj8DHvqjTlT9jcfXx/JQ7944SNRCH4/Fv8RKHJC5MTB92nQoIFaSSB3AAAgAElEQVQIkxHosD+waOvB/QcSRWDxJIXM6jWojyXBQjbsLxQQYh0LU4AsaqQP9+3bT3ye/SFVypQINAVixfKVUjQW0cZUG9OIkakPIDgvWaKkFHBOnDBBin0nT5qE0WPGyHszLEz7cbXGFCoFgKJrY/i7Y4cOErpnYS3HZSodNmnSWLQQOFFRfZOrUF0ojIsRpp/mz5sn4JLqhowqMR3MGjIqII4fr6V1+P0IBLk47NyZC7N/MXnyFEkvsRCP39jJ0QlTpk6FndGIZi2aI0Xy5PJzro7Zh+zs7GW8LJC/gPg7F5l79+6LUDEz03XHjh5D8pTJceXyVaklYmSN0c+aNWvIwoiiRYxYU3587dp1Mp6yr3Xv0U1E2KReZ/lyqZ/hGDFy5CgB91wkcXxev3691BEwLcvxkNFcRiTq1a8P72dPce7MObwOYA3PLgwdOsSixcBaH47bfK9sWbPip1o/yfMQODEdTQDKRTXH4+1bt2HP3r02uxNTzVxE6kXh9ElG6qyLxG2+2HsOjBRA+JCbcyJkfUCv3p9D1EITbbK1cQsaiwM/qOlC9O+5b1QjwKi4nl7M+eHbAj/IglF2ckRtQk9hDQL3x0e2hb2nnsYRL5RqZAoBRfbqIecRIIyfME6iEe9qEbVBeNd62zuxb0cEhH74W0fdFSzv9Baqcq2OWYfXUfDBou7R33olToS6v9l6u0ULF6Jho7cXFUeF/4T/LBEbm3kNFqwydfu2Zulr7+hgkXkfa5tGdDdL2O+hF2WGx0Xz9m8WcVvZ+v3DHvdZAAJXK5QljqhxI/uSwWOxzatn/T5Ej6ytUO3LsgA7MSc7dsPNmzbJ6ji6i1+xqnrY8GGSO/+U/erL8gx9B1TMAAgC1sIhQXsb6KPPM03ZqnVrSR0xxB4tWzCIGztmDDp36WIpZo2Wz/pRHioWAwTdXrY67kexr40X1fabfrqPYeNjqcM+kQW0bx95cp9P9JiW2zBkz5xEdAczn9ou6n62W0An0HofkZbtV4z6I0NW4TGnb0a9FT7NFT95BOHTvFbU3CUmgJioeVN1FWUBZQFlgZCIQ3QGCPxOfL6IheXV142MBRRAiIzV1DnKAsoCygLKAsoCsdwCCiDE8g+sXk9ZQFlAWUBZQFkgMhZQACEyVlPnKAsoCygLKAsoC8RyCyiAEMs/sHo9ZQFlAWUBZQFlgchYQAGEyFhNnaMsoCygLKAsoCwQyy2gAEIs/8Dq9ZQFlAWUBZQFlAUiYwEFECJjNXWOsoCygLKAsoCyQCy3gAIIsfwDq9dTFlAWUBZQFlAWiIwFFECIjNXUOcoCygLKAsoCygKx3AIKIMTyD6xeT1lAWUBZQFlAWSAyFlAAITJWU+coCygLKAsoCygLxHILKIAQyz+wej1lAWUBZQFlAWWByFhAAYTIWE2doyygLKAsoCygLBDLLaAAQiz/wOr1lAWUBZQFlAWUBSJjAQUQImM1dY6ygLKAsoCygLJALLeAAgix/AOr11MWUBZQFlAWUBaIjAUUQIiM1dQ5ygLKAsoCygLKArHcAgogxPIPrF5PWUBZQFlAWUBZIDIWUAAhMlZT5ygLKAsoCygLKAvEcgsogBDLP7B6PWUBZQFlAWUBZYHIWEABhMhYTZ2jLKAsoCygLKAsEMstoABCLP/A6vWUBZQFlAWUBZQFImMBBRAiYzV1jrKAsoCygLKAskAst4ACCLH8A6vXUxZQFlAWUBZQFoiMBRRAiIzV1DnKAsoCygLKAsoCsdwCCiDE8g+sXk9ZQFlAWUBZQFkgMhZQACEyVlPnKAsoCygLKAsoC8RyCyiAEMs/sHo9ZQFlAWUBZQFlgchYQAGEyFhNnaMsoCygLKAsoCwQyy0QIYBgDjaGAQD/1//NH/Pv/Bkb/zQZAIP1AdHUkPoj2vGZo9EzGq3sK88VQ+wZjUyoHkVZQFlAWUBZ4AMs8F6AwEnebCAAMMPeYICjyQBfgwkGGGBn1oCADgpCjtVAAv+t//4DnjHKT9UBjDXCIUDgv62f1xr0RPlDvOOCxmDUYjKY4ADAwWCUR31lNsFkMMYI4PUp7aXupSygLKAsoCwQ9RZ4L0DQbmmGwWzC4HgZkdI1Plo9OglfkwkGA2ECYDYDXPFycuVql38PMAAO0TCCIOAgTJSDQMc5CAgyAq+MAMFC0GdcsWvAxIwixnjo7JEBHmZ7sedGgzdmPbqKl1HvB+qKygLKAsoCygLKAqEs8E6AoKUROF2ZYG8G5jlnQZo47ij19DBeW03+XPFqUYbg9AIBBQwWsBBdbK5PvBqI0UIffD8HE7DILSdexXFEq0enEGAKskRFTGazAKFP1QhM+DypAu2wOlE+vDQF4JH3U3jGiYf4Ti5YaeeNIV6XwRiOnsb5dE/3qayg7qMsoCygLKAs8LktYEMEQQMIjAbMDQYIxZ8eRpAJ4Lyp4wQjJ1IYEAQTzEYz7EwGmBkOt8rtE0S8WZfw7kD+u36r3dssEQv9OeR4Ahb+GWZil/SBmcdrEIFPRwDACMIvpsTwdzZiVuB9BHH9bjbD3d4R3kEBAiL4btbPwnchMNLrFsJO0pbahvdEUaxTNHpkg2+VPsAOteJ+g6l+N/EaJngEGTDOJROSuiVAVd8z8Hrtb1X18bndSN1fWUBZQFlAWSC2WcAGgMBpyywRhLkuWZDW1R3Fnx5CoMkMY3BuXE8rMFPuGBQEB6MduAb3k8nbKCtdfXLlpOrClITRAH+Y5H9Otk5BdnAyA8/ttBA/j3c0aWkKPztt0ncyaakLXs/JrK2gXxoD5WAdJPB4F/BJWCthlpW25XcENTAhQAAM4GR0wGszn8EMNxN/EwRfOy1tkssQF00TpEFXr7MCBIIMBtibDXhlp0VG9PoLB7MZjmYjXvJeBEDBz85j4gYBrTzSIZGDs1aTIf8F1zrADH8jsNrnLs6/fGp5Rv18voeD0Qg/c6Dc32wwozOSonH81GgQdBVnfbxghF2oQtHY5pzqfZQFlAWUBZQFPp8FbAAIQTLZ2pnNWOisAYSi3hpAMARHCDiZc8Vd2tEDrV2TI7nRBXcdTZjpdxt7nz9AoEFLVCQy26Ne3OSo6ZAYrkZ7XLJ/jUl+N3HW5zGaG5Igf+KU6PT4LHyCAmQCbmD/FQq4J0XHxydhH2TGELcseOBoxj2/52gaJwUC7IyYG/gfVj67hUCTCWnhjBZuaVDcLgH87AxYaXqIpU9vwdccKNerBHfUTpQWfR6fQzPXFCjplBh/2j3DjIeXMc4tKwJd7fHzw1PIizgYGT8z3MxG3LAPFHA059kN1ImfGtvMz7DQ+6b8jHUZvd3S42sXN/R+chFegf6WHRwECx4BZrSOmwpJjU4aMLCKaNAifkYDVvjfx9nXzyzAQgcIWuDBAEZmJBFiMKGrMRnqu6VEzRdncCuI8EtKK1VTFlAWUBZQFlAWiHIL2AAQtLW/0WzCQudMSOvqIQAhyCqCEGgAEgcAixPkxLMgfzz2forUCTyR0DU+mr44i0uvn8M9CBiXIDvymOPhVIA3nvv6IKlrPOx2eokZz/9Bb/M3qJAwFao8O4FngQEyYfY0J0VZj+So/PQoHANNWB4nBxK6xsHZV97Y9+QuijsnRL4EX6NdwBUc83uMofapkcPZA1e8H8Ld0Rm54ibGSNzFwhe3ZUJvGuCBdokz4K+gZ4j3MhBOZjsY4rqg0dOT2BUnH3xc7VH74VF0cUiBknbuiOPoiBM+D2EwGjHe9C962KdE0gSe+P7JCalTSBhoxuYEBbDe8AQDff6WlEVIRoEQwCTAJDhoALORoRQ9MaLVbRjN2iTPn1qnSvSfEWgQnDmbTJjjlAlurq744elJvObBCiBEeYdQF1QWUBZQFlAW0CxgA0DQwuYECPOdMyJtHE8UexoaIHAScw8wII9dHGyHF+xhwLe+Bqz6qhC6Bd3E9pcPUTkoHka6Z8PYl7cxN+BfuTmL8Zg28LcjGPgGpROlQjXvY3gRGCST5W/mr1DeMwUqPD0Kh0AT/oiTHdcdA9Hl+UX4GwxI8hrYHL8Aljs/w+THl1EQ8XDS4Asvownur01Y7ZYHl1xN6PLknITpCRC6embEmNe3MP/VXTgY7eEQZIafwYy9zjnhE8cJlZ4clWcaa0iDBJ6eqPPkZHDNghnFXzpiapJ8mGz/GDOf/I3f7VOhcpyvUN/3PC4H+Imh9HSLFncxSZpEr08gkCJAYLrEaDDITgmzwc6yq+JtTknYUcHshjHxM2NKwF1M97sj9gk0qAiC6sjKAsoCygLKAh/HApEGCNY1CHw0TohOZhMMZjOSu8TFL/bfoILBA78F3cRWv3v4xZgU9eKnQqknh+BndJAVvUyYrDUwm9DPlEwAQpVnR/GMdQwmA7rgK5T3SIHyz47CKUADCKdcAtDb+5Isv51NwI54+bDf6SX6PLmg7aQwM5Vhh+rxU6AtvsJ+Bz90fKLVETQO8ECHhBlQ1fck/gt8hUCjHWAi14AB++PlhY+zHSo8PirAZawxDZK4e+KnpyclEiC1EyYTptulg6enJ1o/OInN7gWxz/AcHZ5dDK6x0Ooi2EwGMzz9TRiROAdSGV0t9QmWz2gGXtgB4/xu4KCfFwwm1mLoOyu0oyRIACBBILAmfh48MgaiyfMzeGGE1ENEw12kH8dL1VWVBZQFlAWUBT65Bd4LEPRqfebCFzhnQhpXdxTzPoTXshtAjy5ohYi5EQe/JPgWL319sP/5v+iZMCt6mW5hm+99dLL7GtXcU6GE10GYDPYwBhcZcjVtDw0glCFA8D4Kb1MgDGYDeuArlPVIiXLeR+EaYMKqONlx2iUQPb0vyYTtaAZ2xs2Hv5xeodeT8/CEPbq6pUcasyOWPb+Fdq6pJIKgAQQD6gV64NfEGVHl+Qk8DHqt7Uzg/c0m/BUvH7xd7FDx8REhgxpnTINE7u6o9fSUTPay6ocZZV67YqxnTpyDL7IZ3VDX5wwuBPnBzrJtMhggwCyAoogxAeJKMSHrCLRUguzmkB0fwBmDD+4HBQR/+JC9EHoxI4sgJ8bNiOyOCdD62VmcM7+EndiOAIFRCtWUBZQFlAWUBZQFot4C7wQI+gqVk5C92Yz5zpmQKk4ClPA+DDNXvMGldfwzfqARi91z4yx8MMT7MjxeAxsSFkCfoJvY8vIBagUmQK+EWdDdfAubn9+T1TInXeboOfG2D0iIOkkyoNqLE7K6Z2i+r11yFHX/WlIMLgEQgHDGOQjdn12W8xh5IEA44PQK/bzO4zfHlCgYNzEaPDmGILMZK+LkwC0XAzo8OStQplGgB9olyojvfE7hYSD3LmjbMO1MJhyImxvPCBC8CBCMGGNIjWSenvjB6xhgMArAYLFlnCCzRBHyxU2M0w7+aOp1Gq+M2k4Jzv6c/PWmbbnkbo9gQin9d/px3B3Bp+CeUbuQdAELPrlFk+CgjkNidHJNjUG+17Ax8LE8M3dUaMWMCh5EfZdQV1QWUBZQFlAWoAVsiiDIRG4Kkl0M6V0TYDruwxRccCecA2Yzrj5/jEkumbDVyRdDfa6j5GtXDI2XASNwF3tfesHu5WvMjJcNnq6uWGR+hDu+z+BmdBByorVeN1H8lTMmJMqDmXYPsO/lI+QwxMXPDsng5wBUeHoMLoHAyjjZcdY5CN2eXRFw4WwOwnZGEJxfYdCj85jgkA5fJ3BHI9+zSBxgxAznTLjmYsKQ59fwn78fGgV5ok2ijKjscxIPA19byJIIEPbFyYUXrvao5HUERrMRPfENvnNPjhEv/4EpIBCO7u5Y+/gf8ZrWpsRoleBbNH5xDqfw0pIKsHapEMZGrchTJ50Kb2LXp3mLFgR/EBSEgsa4mOOWHf/ZBWGjnbekZOxghL8BmPf4GgJMesWDcmZlAWUBZQFlAWWBqLXAeyMI+uTlYDJhqkM65LFPgECDSSZXfV9/gMGEfgE3UPC1EyrF+QbeDgZcfv4IOZ0SwORkjwlB97DO519kfmWHfgkyIp0xDgzkQTCbsNreG2OeX0OcIGCIXWoUdU6Elw4GXAzywWPvJ8jhkRQ/+pyGc4BJiJouOgdhoO/fkhrgan6VazYcd/LHgOdXUCEgHvq6ZcArRyOuGl4hiW8AkjrFw1YHHwzyvoSGrz3Q3P1b1H55FvdNgRZLMjqy3ikLXro4oJb3KQQagayv7DHALSNS2zkLl8Iyx+cY530ViQKNWOGeF8+MJvzw7CReG4yhKKXDqwuwkElZEzoFRwn0bY1MmXBngqRtTCYkMztigVs2eAQXamhpDs3iL4xmVPc7DS8Dt2+qQkUXFxcEBgYiIEBP1URtJ1FXUxaw1QL0Rfoh/VE1ZYGYboH3RhD0F2SNgedrk2ys04GBzlrIan1ve63Izi2A2/3t8dTRgAQvgxBgbxTyowDW6huoeWBA/CDWHRgRaDbB20HTQBBhJ1MgPIPIwGiAtx0Q12SEvckMLwcSJhng/toMXzvghYMRjiazbBtM7G+Cv9GMpw7alkFyD/Baz+z5rEbEC+LfAX+jAfECzXANMuAhGZlkj4FJ0gKcpJO+MkhY/z9XA4ySPgFcA8xC6kRmxafMeQCobUiIvvEyouOrq9jj/+QNMSrRpIigV1iLXAlQ4K6QQDOcgjSuCZ0nUquD0NIY/zobYG8KKWS0vuWXVLzIAXnYsKE4dOgQVq5cFUHLq8OVBaLWAqNHj8KGDRuwb9/+qL2wupqywGewwHsBgj49aVRH+v+y8VEeV/bpW7bymWEycoLm77T8PncAsMk+f2Ek1N5SmAWD6RWtax2Ysydg0APz3DIpOXmTxlRoOVYurnE3B0/1Fk6B8BQZrbP11lLUsmIPpmbm5Vi7IE8uOwp4Nw0s8KA4gcDi+LlgNNrhB+9TCDLq9MsaLAhJK7z/S1pP4tYpBp1FUtsRaYadUbMz/x78GPIn7RgZMPL+J4tZRzg5OmLS5Ek4cOAvLFq0KGY9fJinDZ+KPEa/0hf38FOnTsGa1Wuwc9euL+7d1QvHPgu8V6xJn/T46gzFcxrUq/H1iV+fSrWJLkgmasoS64BCr8i3LuALz5T6dfTfWf+b07QugxxMS2glKR2S59fPtQYd+ope35Fhff3wjtfIjDTeZP39zQhCVYMHhsbLjFGvbmHp63tgEFEjk2azPW6gAQ7NPNbAxRpg6O9qrXdhbTPb7xb7nNb6jQgQJk+ZjP3792PRosUx7mV1UKB/ewJE6oMQABIcR1fJ9Bhn6E/0wAogfCJDq9t8Egu8FyBY8udWFfrvDmEHT64W8mBtEuSWPoka2PBa1qBEDg+eTHVegLcNmmEBhg5grFfa1mDG+vjwwIl2b03QydEUhOEuGfCVvQvavriA5zKDh7wNIx/vA0Bve/W33TvceobPKENtw6f75IfoAOHA/gNYsHBBcErmkz9GpG9oHUXTVVH5Z1w7B/iYmJjT/MzWtNG7fDrsQ+rea+u1I/2SX9CJCiB8QR/7C3jV96YY9EnWloldm8tD7863nkZDT6m2W/dt51mvvqwHuXfd563XCge86Ct9bTVvRoIArZaB4lHhDbZROdBah5vDe+bwwJDtFo09R1oAwoEDWLgw5qUY9O9o7cs/+sdHaZevsMf+BVb73xXP5NZWW5sOxPWEoH5eWPCg921br6uOe78FFEB4v43UETHHAjYBhJjzOh/vSfXBVh+mbR+uo/6ZzGSslBSOajEdIFgm6eDZ2znIjEVB6fBVkAMeutqhpekyniFQiLFsaWHBgR49k5+zBshIVtDguhZbLqiOiZAFFECIkLnUwdHcAhEECPo0GSz1zLB6uCwAH/utIxuLiPxzSfogTM1A5K/2YWfqREofdpXYcXZsAAj6l6CPfetnxBz7TPA1meFssEMjx2u4C00l1JYWtnBV0nsiCqaJh2nQQJND15sqdrXFsrYdowCCbXZSR8UMC0QQIJjA1WuZMmXQqXNnJPv6a9y6dRvLli7H2nXrPsneXy6kFi9ejAEDBuL69evvt3Jw9b8cGEpu2bZ6iPffQB3xOS0QGwCCJTVlAMq8dEEf+7TY++oJKth7orvLXeyHd7Ds97stbT3Rc6eOXtMgkQNDkOifsIWQpGs7YQggpBZCtQ+2gAIIH2xCdYFoZAEbAQJHDxOcnJywcOFCpEufHkuXLMHFS5fwTbJkqFWrNnbv3oNhw4bZWIb4YRY4ceI4GjdujIsXL733QtmyZsXIUSNRqVJlq7JJyw7J954fcoBmg2D1iQicF/lDq1X7HvXq1UPt2nUif5FYfmZsAAjWn6jZK3f8ZP81xr68hX72KbEuiQmjyRxqYwhB32Gkc2toBb9m2Jk13+UWXm1DLrfOaqkqA7cp8wYGfVNyLHeaj/h6CiB8ROOqS39yC9gIELgHAZg4cSJSpkyJNm3a4N69e5aH5SCTKFESPHz4MORnwX/jDgAZfPTNCPw39/ZLyDOklS5dCocPH8HLly/fMELYgryTJ0+gYcNGuHRJAwhvr8Y2w87ODqlSpcKNf24EX1evCg8mP7DwHciQ+cZeCz2cbzYHWQ3SIVWK4RUL2lZAGHbJ9uYMECeOK+LHj4///vtPdl5qZrRxpvjkrvR5bhhbAAK/KvU+OvgnRDHHROj44iKmOWbAfXcXtPa/gACz1gff1zRAEHb7bOidEDp4IH8JdUb0nRIGAQgqlPA+G7/r9wogfIj11LnRzQI2AwRnZ2ccOnwYXTp3xp49e8J5D23SdHFxRs2aNZEhQwbcv3cPa9auwf37D2RyGzJkiKQHatWqBbd4bpg9ZzYuXbqMSpUqYcyY0di0aTP8fH3Rf0B/mdgrVKiA3LnzwMfnBTZv3oKrV6/KdU6ePImGDRri0uVL+OGHH1G6zP/ZOw8wK4qsDb/dffPkQM7MEER0XVBX1F3XuGv6XXd11xwwAEoQcw6sICgqSjJhTqyKYlYwZ1AMiJJzHJgcbuzu/znVt2cuOMAMII46/TwKzHRXV52qrvPVCd85jI0bN/LsM1OZP39+St9M2rVrx1lnnsXoMWP4y1/+Qs8ePfB4vOyxRy9mzpzJS9Onq8wLn9/LRRddRPfuPVV/H3jgAUVONGjQQB577HGGDLmY7777lkceeYT99vsTJ510Erqu8fxzz/PFrC9o1aoV5513Pu3at+P7uXOZMmUKsVicDh06cuEFF5CTm60A0DPPPI1lWRx77LHKVSNjk/YXL17yk8DDffbZm0MO+YsCZtK31avW0KdvXzIzM5ky5WH1ngYfLZvayttF/fktAAQpPCZZCsLyeV2sDZ19GQwzF3OV3p69tXRONRZSSswpGb4V/Z0KSsVKkMCmjREgT/Oy0oxQZcfroGWSz2QvLZ323hCfx0op0wSAbJn3sIsm6XfUTDNA+B1N9u9gqA0GCHvssQfTXnyRgw48kJKSknoBQigU4tFHHyYSjfD+e+/xxz/+kb599+X0009j+fLl6sS/ZMkSRo8ezZFHHkmfPn0UWOjfv79SgOPGjaOqqopnnnmGW0eOZN++fZk+fbpSvv/3fycwbOhQPvr4IwUQTj/9dAUY5O933303AmBKSyt4/vnnNwMIvXr14r777uOQQw7hwgsvVNaP0aNuIxqLcfMtIzjhhBNYs2Y1r732GsXFm3hx2nR67rEHb775BhUVTnufffYZs2fPon37djz33HNKOY8ZczumGee6667jlFNO4ZhjjiEvP59533/PTTffwnn9z2X27NmMGnUb7dq158knH1f3XHHFFQr4XHLJJarfAmDOO+88DjzwQKnPtNl1/PHHcMEFF3D88cerfvh8fu6+e5yS63/+8x8OPvhgEomGnSx/q2v5twAQnLnRyY5pjDY7gN/LcG0FJ8ezGERrzvYtZRHVyWDDbc+kuA+8FhwYD3KevwOZtsE6I8Gt1kqK7Igq+CU44OBwgGHpXUmPWbycEeOhmhXEk6ykv9W1sjvG1QwQdoeUm9+xuyTQQIBg065dG2bOfIcjjjicNWvW1NM/neOPP47BQwZz9N//rk7f8t+ECRPYuHETI0bcogCCnJyXLl1Ky5YtlSWid+/etG7dmrfffpt+/fopgFBQUKAUsSjAmpoa9a6BAwdx9NF/VwrdtSD8OP9HZQX44osvGDv2TkpKyrbol4kLEP76178qZdvvwAM55+yz1X3PPjuVF198kU8++Zg333xTva+srLzWQNu9R3elmA8+6CAqKsrVeC6//HIKCwsZO3ascp3cedddylrw2quvqiBNcQk88uijvPH66zz00ENcfPHFnHLKqQwbNpQ5c+ao977wwgu8/sYbfPD+++rfArwO+cshlJbKu+uuLQGCWF8EMLVt24633nqbgw46kIqKqt21Vprke34rAEFSD/NjOvfQmeV+i2s8a+hTbDHRU8jlaev4nDLlOtiM72MLi4JkJsh/ncNwr15IiU/jg6oN9Pe15Yssmxur5hPzQHYUxlodyfcEKUpEaO8JcZZnGRv1GOJKa77qJCAlWETucakX0wDBNAOEBgip+ZZfjQQaCBCcIKaZ78zg6aef4uEpU2prA7gjFeUpCvjQQw9VgXXudemllyp3w6BBg/jxxx8VQBArQnp6Ol9++aUCCC1atFAAQU7RlZWV6s8RI0ZwxBFH1LYj94nC/dOf/qQAwllnOTEIHo+HqVOn0qNHTxUsKS6LuqsegNCvH+ecc4665dFHH1UA48vZs5WSlpN5NBqtfbx79+6qbQEukUhE/fyWW25R4EasHO61evVqZSG56667aNO2LYam8+Zbb6r+ilzE5fLf//6XTz7+hAEDB6hiLu+8804tYNB1ne+//55Nm0q3CRCeeuopXnrpJfLz83n/gw84sF8/KiqqfzWL7efo6C8JELYVa7L1uJitSUGnU1TnPquQD9OijGIVXatgCoVMyCzlxcQG9aALEFzWzlSXg4QgynVkLI0b7I7c6SvinXgJF1ZlcHygNZemredrs4ITrRwGam2Yam5kdWRbz14AACAASURBVHU5V3s7cX3aBj7XKjEV5+nv90qN4ciM2/zT24a4z8Or4bVUepzAzi1jPFKl1QwQfr9r57c48gYDBBm8nN7FEnDvvePUqdm9xP0g/nRR3OMnTODwww6jrKxMxRHIifett95i4sSJKQBheRIgzKJ3773Iy8tj5sw6gJCdna249QVciAIXJSu+/2gkysBBAzcDCFLNT5T6LbeMoEWLlsrSsHWAcCH9+h2YAhAeUUVV3nrzDVV97d//PlkpavfaHCAIcNA555yzOfW0U/jbUUfV3icKW0BHfosWXHvNNTz88MN88sknPPjggwr8SHxEly5deOXVV5WLRoCEWBsGDBig2hD3iPw7kdjcwbylBWFLgNDvgAOorHQsLL/X65cACKpomE2ysqkj+S3jA1JPmw0K+7N1ekQM7te68UxmDQ/FV5EbtXnc6sYrGWHuj6103pEMQqyvsJNYIeRdN1jt2d9K50J9CUW6SZcaeEDvxpf5Bk9tXMRlRgcSXp1roovx6gaP2IW8kRnnnuhSVcq9YUG2v90VZ6rsDo1jo5lcSQeiOkz0b+QVsxhdc8I4tzanzQDht7sufo8jaxRAEEUtSuv6G27AMi3Ky8sIhkLkZGdz773jeeSRh5UV4cILB7Bs+TLatG7NrFmzuf7665SroM6CkAQIs2ezZ+/eeDwGr7z6sspg0DWNG2+8USlW8d+vWr2KtFCI8ooKhgwerLInlIvhrLNYtHAhH374EStWLKdLl67cf/8DPPLIo/UCBCcGYUASIJyr7nn0UQEIM3nyicdV0OG1117LqtWr8Xl9TJ36rCohXGdBiKtnJM5iwoTx9OjZnQ3r19OqdWsFCsQtIiDhgw8+UFaOcDjCddddq+ILuhYUKJCTl5vH4YcfRlpaGk8//bRKGxWLiYz1sMMOIxJx3uFeLkA47rjjlFsiFSC89/4HHHRgswVhdwIEpThtm0wpSQ7qRKl4BFKyBlzluuWf29tcpL0DI0HG0IWxWeW8El9PRsTkYasbP6ZZ3BZZQthbB0Tqr/yokxeDyXYBP4Qs/htbqkqiSwDksZUBLvV1Iip5Ch6D2z3r+dQqId3UeSDRlY3pHq6IzCciZAlSer0h9vTtDepX+nsZe0bMYozVlZZ6CCOeYHG6xTWJJVi6C9HqH1wzQPiVTnpzt+uVQKMAghvlLKf2Hj26Iyd9sRQsW7aM8vKKWlwtqZCSWijZAAsXLcS2nNqDffv2VdwFkUhMWRf+8Ic/JM3sNl6vwQEHHKDaE9eBbdlkZWfRs2dPqqurFbiIxx0FKs8JSVK4JqxM+oWFBSrO4ccfF2wxSItQKEhBQSHfffed8t2np2eyaNFidV+3bgUK5BQVrVdbfIcO7enUqXPyfT+oU4S4R777bi7JIajnDENnn332IRj0q3iKdWvXoemaGp8ofElLlNgHATLiPthrr70VGJgz56vaNE6R4V577aXeIf0pKS5RKWepV15etrKKSGZGz549KCraSElJsXKr7L33H/ju2+9ImL/vuo67EyCIEs+yNM6hFT6PlynWWkoxa5Njd3SPcRk2jotmcJ3dgcszNvCFVYYnZjIlUUAsPcCVVfMo8dXmurqVzjd7pVgQ/lClcbuvO5N9G3lRK1ZRCSY6flPjxFgGPQjxlSfMW0YZtuI+0LitqhXd0nK4hMWs0iQOwSmt/nvFCGIj6FqtMcnYgzf9YVrUmHQPptNfW0SNOBiSVoT65rsZIOzoV9D8XFOUQCMBggyhfuNaXZ7+9oa5tW2nnnYbzahcX9tuI+6frhKuo412yRa3Tkbz03YdfgR3rNvzRm/fyOzIb8v3pD7303fU/8z25P/b+v3uBAgCxQ4O+7nZ0xXDsnkwq4pnw6tqS4O7km3ssnVn+fRYLhdZbTgntIKldjWmZXFndTu6pGVzGUtZQdhR6lu9dI4v93JJsJDrfWuYZZdjqswEHak2athOlIIwJ6psBgEPmsbJ6w0G5XZnRGAdH1kl6hNPHcPvy+WgKffR3yNpXKV35GbPerrHPPxbz2No+loWxSoxhVlqK1czQPht7S+/99HsAED4LYjs97Xl/RZmbGtj2J0AwWtr3BRuxT6eHMqtGHbAy0BtEdVWolZxbwlHGyJ7seqLyhkUb8mJdj6neBdRoscU4+G56/2cklfAtWnr+CZaphT+5pf7b00VYRpYk83/BVox1LuaRZYEsNoOd0KSJbHubk0BXAEO3cvg3uAePBYs5Ql7fa3lQJ5rfLBlQ0bclO/R8Fg612odOCARYoC2lHZRuMXThYdyq3ixapUik9pa8axmgNCU57a5b42VwO8UIDT2jNdYsTbfv7sksNsAgg0d4zr3041ZgQRLIuWcY+Uz1LeCH/SwUvBS+0AFMDaitoGyZyW19rXxthygZ3OqZyHVxJWb7c8bNW7O6c2toQ18EC9GCjEKO2md7cpEU2pcx2fpjNI60xk/ZxtLqLQSycald07svdgQUiGG/CtkeXki2pXv0+LcZC7DlJS+7Ru9dtcU7+b3aLSJexivFbDerzE8vohWMRhPV77KSDA6uhRLwNZWLDnNAGE3T1fz635WCfwOAYLrWmgul/yzrqzd1PjuBAj9on7GGAXcHShlaUUxdxldmRws4Rl7Pd6drGoqbIq3RdtR4M/iDPtHIsJsaEP3cpjs35NJaSVMszeqioyivN0gQl3FQIjiNwiYGvd7uiP5NgPNBSTUEnfBgTsh8kNNgRi5NNvEwMdEswvpuocLWEiNJlELTiBm6vX7sLtp9Kn2cYfelceC5TxhbyA/oXOb2YGY3+ASaz4xw5FhfVczQNhNH37za3aLBHYIIPy6N4odtR7s6HO7ZR5/ty9pCEBwaw/sjJDEOnBqJJNz9bYM1lZQaka53+7K5+kmd8SXYhqOQt3RwD4h5Lk72oHMtAwuSPxITLcUQMiPGTwaL+D19Bom2muRegluloFjqTCVe0OzDbITGs/SnTlahGv0lcmUPCcEUiwFTgKjU+pZ/iZlm6QiiqH5uKymBX/15jDYv5KliSoVD7PtCJidkWbTfFbGK/UpBkTy+Ye3JcOtpczzxUm3NK6KtqJ7IIMLrXmUewQ+NQOEpjmLzb3alRJoFEDo2LED1193vcomuHjw4F3ZjybdltfrVZUqZfzn9T+PyqrfN3thU5qsBgGEbeStN3QsQROuiLdmLyODcxOLiHt17o12IJiextDYD5R6dwwcuC6G9ATcY3ahOiPApdH5xMTMb0lhZo2nI11ZEbC4muXKj6EYFWvdGOJi0LE1nTZRnafpxtN6GQ96NiYTMAUOOLn7TjnolNOvWApsiUXwclSZj0uCnZkYKuaV+IbNgiF/3QeC7c2wo+o9ybjDLFPnTr0QzaMzNL6QCo+tQMNZkWxO9LVmgPUDa30Cq+oHhM0WhO3Ju/n3vyYJNAogCDOgFBcSemIhFvq9XDfccD179t6TJx5/UjE+uumWv5fxN+VxNgQgNKT/qUpQnZxTovPkr3kxjTvoQtzrYYi9hIhuMbgsi+PT23GZdzk/2DvGaCnqWqwT+VGNcVohi9Pg5vgSEpJ9YIGp2zwQ7ozf72OAtpi4sC6knO4dcmVHWfUOe7mHrtzh38QbemmthUBggTM+5+Qr/3KG5/xN1wy6V8DtoZ68Z1Ryl71Ktei6IRoiv1/jPbatEbSgj51GNz2IaRgE4hYn04KXKOUhY71Tn8LWOD4cYrCnI8P1JfxgxLC1umq0qbaEZoDwa1wJzX3emgQaDBAkJmfGjBlcffU1iiJ5d1xuqWV515Z/V3v4NlK+Uu/fmb7KOz7+5COGDxvOrNmzd6ap2meF0ln698033+yS9lLlU1eeuq7M9i57SRNsaFsAwVX6tQo/aTPf0jjsnKydSynFZPR+qsugUw3cY3RjTprNiPgyRaPYp1zjDn937goU8Yq5UZF8NfZSRn8JgAzr3OXtzuxgnNHxZbUxBqLOR0fa09WTxnnepVRYUXRVotlBMbrUPNGc/h9ZYnBtsIArgxv4krq6Hq6zQILrtCTbouNicE7COjpCKzwq1h5/ViZDa+YR8ToEULWxCo0dWBO+X8Zu2mJR0VTa6rBAF+WeiWo2abbOSiPOLdElrAzZJJKSPrDGz61GAbenb+Kt+CYQyuV6uCKaAUITnvjmrjVaAg0ECDYTJ05QpYdXrVrFkCFDFA3y4489zj//9U/FIjh48BBVaOnGG2/goIMO4s033+K220ap07aUV5YSyf/597/p0LGDUo5XX321Ig8aOnRoLeWw1CwQgqFbb70Vr9ejaiucf955rF6zRlVBFBZFqf649957K/riM844Q1VqfOyxRzFNIUUKccWVV3DMMceycsUKBg8erEpHv/rqq7z+2usYuqHqL7wwbZqqaZB6CXHTCf84QRWaKioqUtTOixcv5oYbblCVE2Xco0aO4sOPPk7yHzjaRp6TQlD/+te/VL0GoaAWumYBFlJ98YLzz+Okk0+mrLyMa66+VlEqP//cc6zfsJ7y8nJOO+10VbtCxrlp0yYuu/xyRUB16aXDOfvss7EsWzEvPvbowwwZOkyRJN02apQiohJa62kvTCNhmpx66ilqvCtXrOTSyy5VJFUi59/6tTWAkAoOlEJI6m6PJQF6dYrcUZKOnDY3paf8y4a9wgZ36YU8mRvj0ZpVGJpNVhwejxfwQbCGO+016lS5Q5cNe1Rp3BXak1eNMiay1oUrCHHf0Op8jvDmMSywmiVmlQIiVhL1GElFJU6Ei8uz+GewDQO8q1muhZVyc0JxJereSmZZGCkZCg4EUk4HW2NoVS7H+Fsx3LeKhVY1LW2HKrKIuFKejYc/OySNn/WhujRUnXRT416rCxmahwfDy6m2E7TEx7e+KKsDQjBlYSb5TnpEvDyg9+Dp7BoeCq/Etky1praUSTNA+Fmnr7nx3SyBBgOEzp078swzT6miQ++++y7Tp7+iGAdHjRqllKPUWrjzzrv4/vvvuPPOsaos8foNRdx0440MGzZMKXup4yCloqXCo1AQi0IfPWYMhx16qBq2lGPeb7/9FF2zKDuhHxblKcWbBDS4JZvl9yeffDIbizbx9owZDBo0QFk1nnjiCTIzMxk44CL23W9fFi1ayJFHHq6KPp1wwj8Uk+I7M9/h0MMOZ8MGp/iNq+SlvLPojWuuuYZ99vkDQ4cN44rLL1cMjC+9NJ1b/zuS995/XzElOpcT/PXAAw8otkehae7QoaMCFAKMHn/8cfW7jh07qlLWXboU0KZNGz755FMFaEReX301h0QizujRYxg6ZAjDLx3O/vvvz1FHHcX777+v2njwwYcYO/Z28vJylRw//vhjrrzySj766CPeefddrrziKhYuWMjMd2dwxOGH07p1Gzp37sL06S/v5qX0y7xuey4GN2dFcQ1oulKStWpccQOkKD4hE0JTSkE0s6tMRHn+M5HNRYmWXJJZxHexCrxJNqG7a1qTmZHBMHMJFZqpUuAae8kT+5Ub3JbRiyn6RqbaRWiaUxRITvD/rszkgkB7RvjW8blVqlLsrOTRXmwJKoHRhnuqWtMhI5fzWEyppEnWVg0QoKArUiSX28DpZZ2NRJrrEfFwj92VJQFYE63iz0Y2Pmwe9mziGatI0Tb/mi/XGiJrQPJFe4nS1wq4O62EF+PrlKwVbfYWliDXxfSM1ZMvskxujSwjZseStMubS6QZIPyaV0hz37eUQIMBgnw6H3/8EYMuGsTc775X5YalCJMUHpLLKdH8PKNGjcSyLGUduPa66/jD3nvz+RdfMHDAgNrqhVJeecCAgQ5AGD1aAYEtAYK0L0pywYL56oO9/IorlKKVCob77rsv5557rvr5W2/PYPRtoxTl8f+ee45D/vIXwuGYak822WAwwIyZM5SCl3oLlZVVXDLsks1ojeU0/tprLysgIqd6uc4880x18j/xH/9QhZcuvngIc+Z8nSI/0TQW33z7LSed9C9lbZBL6KIFGAjQ+fiTTzg7WXWy7kFNFaC6+aabVLuGx4Nlmli2xdF/P5obb7qJfv0O4MQT/8lFFw3i738/hk8++UgFhXbp3JmBAwcyefJkNfZu3bqx7777ccopp/Da66+xfv16Lho0SI1R04zfxWrfnotBhOCY40VFOhwCSs0pP74DHwQ8xG2LkKVzlJFL1OdhZrRI8QEo7gALhlltONJM51TPEio1yRxwPPqDqnM4xt+SG7zr+NqqUDwFjb2kF38tM7gyqxeT7XW8oRWr9l23x6Hlfq5NK+Q+30ZesjeqMcjbncu5y2frPBHrTE1mGoNr5lFj1FlGUl0oMnY3RTIVy4jSDFhwQSSHf3pbE0HjB7uGjqaHkkwP10cXsV5PbNOt19hx7877a+MplGtBghI1/i+ew2Vmawb6lvO9Xu0Efgr4+knHbNITOg9EOlGeHeTy+GIiSYCwJRxsBgi7c1ab3/VzS6DxAGHQIObOnafAwdg7xirlK5f41cXcL64HF4HLn1KPQE73onylzoJccgoWRSf1CO644w5lGZB7xYIgyl/+nDNnDuPHj1c1F9xLTPdiUZB7+vfvr378xhtvMm7c3axcuVJVTzz44D8n47Xlt07pWrFWnHXW2aq2w58P/nPSCuB4YeXq1WsPnnv+f/RJKfcsp/irrrqKI488MgkQLmbOHIkZqIte8/u8fPPtN2pspaVOqWYHbLymfvbJp59y5BFHKNdI6qUAws03q3alVoNYRKRy5KxZsxg+fLgq9pSRkcFnn32urC7i0pEy2lL98W9/+5uSu9DwykFHKlnKc1LwSSwMRx99tHK9zJ8vdSl2QFv93CtuF7e/NYCgzsa2UAlDum1Q6M1gtRmmxI47PAJifk+CBSnPLafrP0UDXGl0JOrRGKGv5kerSvnsJcL9jlh7Wnj9nGMsJqFqFTgn94OrfNwUKOSFQCUPWusUaGzsJX09pjzAkIxC7tbX8Y5doiwRorCEH6F3hcGYjD14RS/hPm2dcjsJa6Kj6J33ZZkGz1iFzM0yuKliPlGPAxDcVe6WKFaQKJkB4a5k15kigKdF1KZfIk1Bp8+MMIdU+Tgnuyt3BzbwVlziLH59a8qNKxE5ub0PxOFaowsHJUL8x7OQTZrUebHRdH0zIipnLm0kDfXWitZ0ysrlfJZQY0cx67GoNAOExq7+5vubsgQaARAsx4KgAIJjQRh7xx21ACEtLZ2ZM2dwzz338Oyzzyrf/LHHHssrr7zCs1OnMnvWLMaOHesAhE8+YdDAgSo+4cknn+Tggw9Wik6sEeJvF4Awbtw9KnJbYhTkvj59+qgiSOLOkKJILkB48803ufvuu1XlRckwmDhxEk8++TS6rinrQXV1lfLpS/nob7/7jjPPOCM5H3Un7NzcXD799CMuv/xypdzFTSF9jcViSjk7FoSfAgTbNlW7UmVRMjzEaiKVKKV/f//733n55ZdVdcdx48Ypq0q7du0UkJE+S/tiIZF7xd0goKB169ZMmzZN/V0uGeMVV16prALvvfceUlZb3iVAYfbs2apk9p///Gc+++wzBRCWLFmigEefPn057rhjJUKiKa+9XdK37cUghBI2F1tt+KuRzSofPBxfw2ytSrkWdFHmmqhF8Ng6w+ItOMrOxkDnxYwaJsZWOMo3pjPJ7spqn8k12vJkPINzdsyLaoy2OhIP+RhkLd4hCkJp6dSqDPr7O3KDZw1faGLFqnMCdAgb3OnvxkJvjBvtZSrATk7AjjvDuU9SHJ/SevBajsW9FYuIiwVBBSW66Y31i9sFB+6fUqPBZzmhiwKv24ZholbInECMkaz4zVR5zJM51bqRCHi5IP4jUSGc0gU8SS2Gze0Cwj0hKacXFmdyYlZHztCXsEnYM5NrJ1WyzQBhl3zWzY00EQk0AiDAhx99wMUXXZwECJtbEORkfdSRR3LzLTcpxe7z+Zj73XecdvrpKqhwzJjblb9dTr7du3VTgX9StVFO/YWFhWwoKiIei6lARwEI4rufNHkynTt1Jp6Iq1P4xRddxNFHH8O+ffel/3nnqc3x7bff4s4771QWjcMPP5wbbriRtLQMVXHxyisvV+b89u3b8/rrr/O3v/2dtWvXJ4MMN/enHvrXv3LjzTcSDPjx+nzM+eorBQ4EJIjFY/DgoT91MWApBT9y5EjyW7RQimbhwoWcf/75ahz9+vVjxIgR5OXlKZAzc+Y7qvS1xHGIJaCmJsxzz/2P008/XWWIZGVlqYBHscTIf6L0Z77zDgcdeBBVVZJGZzFg4EAlH5GVz+/n5enTuf/++3nu+eeprKigTZu23HLLzUyb9hLar/C015jvQrbxgM+nYlo++vgjHn/8ic0eFxCwZ8zHXVohK/UEbRIGy4IWNySWUqGrGH11v8xbWlzjnkRH0rx+tHCc8nQvQ6xFJHSbgmq4y78nb3sqmcgabEVilHzW0rg00oJDffmcbiyiXIvXY6Le/qguqs7leH9rrjBW871WURswqUoPJwzGxttDWoAh5kLFkaA7UYrJ8y30iHmZYhcyKa2C/8XWqfRI5QZJqafQUNtGXSCfQ808rqY9eYEgF7CAqLS7/eE0+Tu6xLxMtgt5LyPG2MgybPEjJbNBftp5h73yhLI0Lg125QLPMhZ6apyiVluEZTQDhCY/9c0dbIQEGggQGt6imL3z8nIoLi7BTppb3UqPcjJ3FOVM5WKYO3euajg/P19F8Nd3ZWRkKiUtFgZnK0/9It0TVOqWpZGXl6+UbzjsEBpddtllygIhpnd7G05iOeVLMGBlZYUCM5tfW9KrOkGK7pWZkUkkGlF93fISd4FstWXlFehJG2d6eoY6qYiFQ9wM4m6RoM+cnNyku8LZptu2ba8sJ3WqwFb3i9XDkVnd2HNz8yktLUbyu3eMtqfh89wU7pSRiwVhYj0AQUqMS7T/SfEcBlptuD6wjkPLPByU2ZrhnhUstGRt1AGElhGYSCE/+C2qSss4JLO1Ku9bpEU5rCbIlcHuTNY28qq2EUtiEGzHPiNMAn8LpynXxG0tq3m73LE6NObyahpXhFvxJ28uw7SVLNerat0LssIMy+Cmqjy6Z+Ryhv2DU4kxBfzJKA6IhbjD7sR1rOIzTzUJZUFwUijdL6ahACG17wIQhlTnc2SgBYMDK1kRq/zVLq26kEzoVxPgv0YXbk8v5Z3YBmKapQJU3a8p1bKiIXTUGgdUhRjlKeBG72o+MMo3o7x2ZdYMEBqz8pvvbeoS2OUAwR3wT3kI7CSXga1M9qkAwXlma+bw1M+6PnGmggT5rB0N7HzgpnJZfPb555zXvz9ffvlVUnnuqmlxQIIo5B05rdeVjFalfhql1HcVz8OuksQv1Y7P72Pi+M0tCLKZyxUwbW6KtqWjL41z7CUcVGpzVdYejA0W8Za5KaVcN/Qss1Sa4YueSjbUVDDc257rjVV8rldxdiSLkwIduVFbyddIFouplLRXSIdsjc5hjfFaIR/nwcjwglql7Crk7cX++zC4IdaWXp4MBmnL2KCHa1MRnRREg4HhHI7zt+AMYxFldkK5OdzgQ2n/2HAGl2ptuZjlLPTFMXWHHEkFJe7E5JiaztHlQS7zdWJ8RjGvJDbU9s1Voltrvi5aZyc6sAsfdfsr8vhPVToX+jtxrrGYdVpUzedW58k2VexFtxofk4xuPKBt4H/e4lqLQ+pzzQBhF05Yc1O/uAR+NoCw9ZFZSBZDHUCoU+q7Xhqmsh5IRoFE+iuCmd86PdyuF2KTbNGFjS5A+PCTj3jqsSccbkDbOQ2K//xuX3d+8MS4SVtFxyqT8UZ3PkiLMjaxQm3wrtI4ttzPsLRu3KVtYEO0mtG+LrxilHI/67kq1oo/erK5zF7OSvE9J61AzmlTJzemcbvdCY/XwwBlhndUxvaAgStYPx5uj3eglSdIf3sRNXqd9UoBBEvn6HgGV2htuSRtLd/Eyx2AINYBG7w2nBbL5QytJWckFlAUcuIT3DyNHZ1A6X/Uhj5VXkYGu/GBt5K7rZWb8UjU17b0TTJD5Dgu5alTT+Y72pdd+ZzIbEhVDkf6W3OGZxGleuIn4bwqm8F2ckUkHFViEzpG/TxCIW/6qhhnrWgOUtyVk9LcVpOUwC8AEKBDhw4UFW0gGv2pOX5XSklO2a1atVTkRKWl4vJo6Ja9K3vR3NaulkCqTUliXYTE6/2PP1YAwQ0wk5n+U42Pm4PdmMpGHtGKCKDzSKwLxX6NYSxJoUiCsyszOSXYkZv0NayIVPJQoCeLvHGuiC9W/v9c3ccQfSmVutQ+oDYHXtSwPw5Xxlqxvy+bM8zvKfe7Noztj1zFUWge7o92RvP56G8vUC4MueoyDjR6R7zcRyGTcqt4vGoZui6hlE6Wg0/iIOIt6adn8x8WUe0TaOD0c2cueT5u2bSPehlrdGWdN8519jKnTkQKi0JdzILzNgEuB1oZZAdDfBDdSLlYM1JcHTvTp13xrMjs1prWdPFncY6+mKguFTFTxvSTQEWncFbLRIApWiHfBuLcEl9EvB4BN1sQdsUMNbfRVCTwiwCEpjL45n78eiXgmtdVDMLEyXzw4Yc8KUGKSns79EcnRTM5z9eOW60VfOKpUoprrN2V9lqAM/WFqq6BS1l8c6QtfbzZXGkvZSVRxkc6YKSHGGwu5n6zM6s8ca5DTo2SIykpplIgSalDlVFwcnWQ8wIdOc9eyEqfqYowSx8b4iBzOAwK2OTTGMIS+AlAgBYxnUfNbszKMrk5ujjp0nKYEjPiGrcl2pMdCHGutZCYqizpuBhcoLEjM61EaduETINbom1om5bBhYkFhD1O+mRdDkVd6yLPDjGDkUYhObbBo76NPG9tbDL5NNLvkFTOjHdG9/oYzGJVV6O+wEt3/sQgJKml2QkvkzzdqfIZDI3PI1KP86YZIOzISmt+pqlKoBkgNNWZae5XgyQgdNaTJ0xkzXufM+qph4kJd4Ck6ek6l4Tz+VMgh2HWYlbpUcTXf5HWcZOq8wAAIABJREFUlqMS2QwIrmRNQtIdwdAMbo+0o40/ncvFRG9YXFaey5/TWnKFuZyxWhemeYp52FjvECcp07Om/NZSDdFja+wf9jLSU8jN6Rv5MCaBjA2L9VcWBEvn6VgBP/hNbmQFmgRBJgmN1MnbttU9o6LtaRUMcU58PjGfWCmcegAtYgZT4l1YkqVzVXSxKvTkoAOnDw3rSf3ilkBjGasEKv4t2IqztYUUa/F63QyCnYRP4oxYLmdrbTDiJp9lxLnOXKTa2Jl+NGgxbOcm5a7RNLJjNvdQQJFP5ypzMTE3klP133GPpIIrhQk1jVDcZqxWSLYnwAB7HlUpBZvcVzcDhF0xU81tNBUJNAOEpjITzf1olARkIxdTsVcAwvgJtH3nO25//ik+tsvRTEuZ3e+MtscO+bjEXkLMMDFMjb/FMhiud+am9CI+iRUppeXDy6REZ2yfzmXxRUR0OLQqwNWeTky3Sjje24JbfKv5EKmQ6KgO93Qpf9csjc5Rnce0HjyWG+Hh6uWKSKmhl6RYPm/2ZIa3iruMtWi2w1johq4qJW9rDAjn8U9PPheYi1gRTAbIalAY9fNYoitT86JMqlley8Kop5AtN7QvW94nEfwCEU4MZzHc05EhgZV8Z5arLI4tKYlFkaaZMCbRgUxfOtHKavxpPvrrooR3tAe77jkVtKnJXGnco3dnljfGSGuZSmVV9MvJq5Z50nbqVIh/RGQga+qmaBv29GdzIT9SrIulaPOrGSDsuvlqbumXl8AuAQhbM6Nuz7za0OG7zG8Nvf+3dt/vffzbmk+xIAjR1F5vzOWzl9/gsvhiME3FLPgo3ZjlC3ObthpbSyhWxP0rDEb5ezI+WMo0a61S937T4EmzkPVBk+HRxVKBi44RnQf1QrANEh6bgcZSllKj7nerNjoq2vG5Z8V1ppk9nEyGqgVUG0Lh3LAzc3bUZpq5B097y3jQu1GqQdSCEJcBURTUARUe7gx1Y1JmBU/UrEEAgPy3fzjEOLsTo7PLeTW2QeX0C03CzgYpKiBkO0WJ+kUyuIPOjMwq5o3YBnTTwnZzdlMmqL0iVurKB94odmWYw0K5nOlZquIQGiaNn/nr1TR6hw1u93RjulHOfaxDESHVa2mp+6mijtJ0Li3L5LBgGwZ5FrFGV8W3ay+Jf5k8eZIqoCb8Jc1XswR+7RLYJQBBnXCSUdUKcIMyvwpFrfy8MRvD9lKnfnrCaVz7v7YJk1OyW4kwte8i09RT7K9tXLuqv36fnwnjx9PzrbmUT53BKfZCIgb0SPiYQFfu821iqrbJIcKxLPaoNrjb24OXQtU8aK9VXB2BhMELsQLe91cx1lirMl1CCY0roi1VFcVXfRWMZy1hlyBJ1UJwLnUqRVO1ECZXtkXLzmCotYhy4g0KEpSWulRpPKrvwSTvBv7nK90sol7VXUgSiWSYOvfUtCErI5Nx2jq+SlRS47E5JZzNRUZbBniXswSp4ujWYWjMl7e1GXFUYIeonwfMLrybbzO6aiGGEJ6kBOk53Ivwt0o/l/k7c5evhEBNjKFGa4anb+C7eJmqf6H2CqGqbiB42lXrxG1HLAh/iaZxnd6BifoGXjaEtbJh1h7p/pnFQU5L78ylvhXM18JOHIaaIwvD62X8vffy4rRpihSt+WqWwK9dArsMIKQWhFEbpzJB1h/ItDWhqaColPSwLYOsUgOj5O+umXlb7e2KLbJpTHKdNByf6PYD4JpGv3/eXkia44TxE8j88HvyHpnBo509/JDr5bB1cY5ZZzGpq86iHDlnW+iWRusoDF6QYG6mzrQuHhWJnhc3uP6bMC+3spjR3qNKLKN5yI9DYY3GwpBFiUfWsxOWJ3+4CTHyd5WzoGmctjjOnuUwspdBVTCpDBsw/N5FMS5YofNIZ405LQz1fjcbw9GjOoZKtYNeFfCvlRYZEZNVIY2nCwIctyZB1yqb27rrRPxuOeuGKb3U7tWf9eBkQ6TFPQz7IUqFB8b18iaDDlW9SQUN4lLe3NY4a6VGt+IYd/Xy0S6mc/6CKM900vi8paEAhRrOL/hRynwdssHmmLU2D3Y0WZjvbcAMJWNfbZvD11sct05jcqHNgkw9pXS208xFF1/EtBdeYMaMmQ1qt/mmZgk0ZQnsNEBwN0tRWKmxUW7F1MbsBW5RlVR3ZX3Pu9HTyty7lf2msZaIpjJJW7plXAuCExbnKic3P7up9PqX64cABCnqVfTp1+x737vMaxHgocwqLtzopzDu4aaWlZT4HE4A2ebT4hbXrAtSEjCYmFNFVIdOYY3r1wWZ0jLKx5lxZbbX8Dhlla2ESmk0bFG8jina9VfXFiVLTtohm3TOLAny345RVvjlHO8A3m19A9LeYesszqrJ4o52EeYFYk5Pkx9QHSx0WpGAyPY1NoesMznaymZGHhREdGJmglHtokQMJ6XQ1syfKK/tzdKWACE1xDFoeRi41kOh5eeKtlWElV51DewOyZf46Eesy8C0LUa0CdMpAlcWpfFpdoKHc2ucfqlOyIl7e735eX7vtXX+sd7g0Hg6Y1qUs1JiOepHRpt1QO0nts1+ZToXl2YwuVWYz9Pj2KZktGiq9otcV19zDS9Mm8Y7zQDh55nA5lZ3qwR2ECC4Kto53ciHnxB++OS3lnrCauxoFDhImtXrSxNz95WtmdjV75NgpbHvbgr3bwkQHFk6BYVkVxUl5d6Tusc2YI9rCsPb5X0QHgSpxTD7g4/oPP51euW0ZnBiEbdY7alRUepLCMvpP7lkfTaMCbchJyuLIeEfqTbgoGovI/yFXOlZxWxdqIRFyTonSwk2FIm7VgJ1sq9d/infgaaxd8TPeAoY4V3DTKMi+dJtz4zERVxQls6/0tsxxFjGfK1GQcE6msekO0MqTyYnXr6LrCiMiXegiz9TZQ68aZRzt2RZSAqm+gYar4HrAwjuujMsjdPCmZwVaEf/yA+sTBdzgAOC5IOT6pJSMOohvQcf+GoYY6+kc9TDOH93FnuiXGo65dBT37FlkOMuXxz1NOixdIZU5HBwemsGIhkrW1Kq19cLx5EkgKhHjY8JRjcezSzn2fhalf6oPk0BkZrGvRMm8OIL03inOQZhd0xn8zt+ZglsFyDUbTM2IcOjPgLn5C5ULDbReIJYUoG5iss9vadGYTdkHKkuBNkEBXC4bSr+eVWeV05yW2w0W5zSUt0dbv+bor/eBTMyyNSNU6md5A8cq4x7/nVGI2WKZWsO6RrpHj8xy6TCjKuQtS03eWdbg5Cc8HRdsb85MpVyxxrlZizJdNcEwswbski2uEcRJU2ayIfvf0jJpOe42l/Ac7F1HOVvyUueMqboErQnC8kdn81V4ZYcHGzBwMQC1mtxzqnI5N8Z7blIX84SrRpNAILmS/qXpe5CchUpPSFJ8XaSh2BzJdwq4WGq1Z2pnhLu19aripHbU4ICEK6vzGffjHwG24tZoUeS3vyfCsP5PhxQIl9C7yqDYb4ORL0G97CO+XoEr1g6GuhT3/INW67B1N+LNeXgGj+3Gp25Q1/Hm94KtQO4pgAdnYOLDW5J68Gt/vXM1EoVYLjD14OYHae/vigJcNz1twOTvQse8WAwoqIVnUJZXMB8qpOcDttr2g1jbBnz8LjdnQ+zotxRs9j5npIbl/w5aeJEBRCagxS3J9Hm3/8aJNAggCAKKcO0GJXTmz6eLBXw5Ri8bX70Jbi9dCHzo5VKkak9NMWi0FAhuFut+3zt1is+YsvAMjRKkEj0zVusBRXJv9SmKyUrs9WWu21iR+zU8W5NRqnWkFSgpmPR0/JzR/4+tMBLlW5xX2Itz5WtSCKqOmUvzxm2xYlaLpfn9KwFHvLz2XoN12z8lrDrD2roZDWh+4QoadLESbz7/ge89/DT3Kd1IzuhKevBtZ6VfEWF4hFwnDKOyf/McDbn+tsz1LuCxYkqRla1oiAjjwvthZRoEZXjr2tObRBTcR64QYnbXkSZcZ0nfXuy3BPj0tgCp6jSdi5Zrw9GOhFIS2d47Ec2erYf7S+KSLmebGgVhwQo9sa4KlDVeMvBtrroAmsZS9cajSnGHryba3F71QIcOiinKJRhGwwrzeHwjDYM8S5nuVVDdlxjhFFAG1PjTI8wFu4odNmeFBv+e4meGF/dHkJ+hipSqYY9qw4rmtT30HnC7M7aNLg8+iNxXSIwJO/EgRATJ09SAGHGzOYYhIZJtvmupiyBbQIEZ3+TDcciYMJjaXvR1QjyYekafAmTlr4QPXJaUOo3GFQ5j/nRKkUyImQ1rlHOHfy2ti33xJxqMZDnpA2vZfNc7v4kfB5OK55FxJJTy9ZjD6QNKbhr6Lo63LgBfQ3Yq3fLPKUCGrWXW5KSljxpukFcmvi8xVQgBerrNlXDtjE1i3amh+dz+hDUdD4tWkm3UA45GVlcaS3nvYoNm43DOU9anGLmcFPOHnyxcRVhRX6j86PfYpK9jriT7L1bxr+rXyJZDBMnTuK9999n6hNP0r86m2MDrZlNJXcYqwkLmBXWQ3eENvw1EuQmoxM3hzYxJ1rCY2Y3KoIGQ2ILqDEStQyJbl9VJkFKxx0L2k8DcAMJnQlaIR4dLtKWUN0AumPDgml2D1YFDa6tnEeV3+E/2J7SdsGOG/inucfYlJncWahQZ3NxxpoetbjfLKQkO8C10YVUaWLHEvuUhjehMznemWAoxODEAsp1k5CpcVmiPXt70jmHH6mURZ2SybCr10J97W1pwckwPTwa7cL8dJvrYkvQVNGIrV9OirFjgRLyK4lhmBjpSHYwjfPsH6gWS5xY5mxxQ8GESZOYNq0OILjf++4Ya/M7miWwqyWwXQtCKkB4MrQ3aWlBTij5ghimCpg6tNLHuLb78YBexN0VSzAwajfThubvux+Rq8xlkLKXyEbpAf4RSccK+pluF292Kqvv45OPtGMgg+WRSmXidfyjTtT/ttRgrQLZ1RLeWnuW5aSK1aOYlVvAssBwFFudNcXCY1lcrLelf0YXTiv/igV2DW3iOo9n7MOGdB+nlsz5CUAQiHBGIpuh+b04vnwWxZbUwPCodiUZz2hkKuruElFD3uPz+5k4fiLvK6rlx8gzDVqYBhsMkzKP6YAsuVwlb0OviIfJFPBgegVvR4t41uzBrHSLWyLziRqyalLdLT9dZfWBA3mF+LdvrGxB74wcBuiL2aQl1ORtSwUFLI3pMaFQ1hhZOZ+ITyqDanVuje0IIdUV5d66ZUZRQ+TYkHsE0F5fnke/9Fac71nKOsLKZijfaU7E5gnvnizxW1wrZFOYyt1xTmUOx6a14QxrLuXyMdfDndCQd++qe1olvDwRL+CN9DB3xVepqtmu1UXBQNeb5AIZNf1OvrZjjdP4b7wDfcngDP9C51tShxEBDzB+4gT+96LEILxbe0jaHuDbVWNrbqdZArtaAg0CCKJgAhY8GdqLzFCIv5V+jse0FOd7pxp4Of8AXvZUcGP5fGVu81o62ZpHcZVXqCCvZBFm2+FBl8hxOdVmY1CDSUSxxmn4LchEVyCg2jZrAx9DppgxNSpVsJm0bxOyNeU7l41I8t7Vx2vBqf427J/ZiquKvlbKV34nG5sEp6UZPhUzIYFpKg5MbeoQRCOqNgKboGaoE32F0N26m4SjYQjIe3WPOi3I6TAhu0sSdYgbJtPU8OoeKq04UWW6rP9ULlTAA9M6sU8ot7bIs1suWvoq5sp3EyU8W7ZiMw4EC5NsE17O7EMk4OW4klnEbQmos/kvHfl7dkeOrPqaMrOuCJaCGLbF6Ylshuf34oiqWZSoeAXZ2sVZIXL8RTPPdmpNu0GKUovhqSefVBLfMvZlSwWdE9d5NtaVdzNiTK1ZzRPswZNp1TwcW0pCraVtx2Ns7VQogXpnl4Q4LbMDw7wrmEf1dimGxR3yYrwbL2QJC+IyTK/YdlSe4zaBxU4JbSce3r/Swz2e7twd2Mj/KFKkUWJD6BL18LDRkxd9ldyXWKWCO2V9nVqRyZmhdpxmz2Oj16lh8UtdsncUxrw8aBfwQHo5T8fXqc1BAJnz+Tv8DPLZi9VJrlS+Bsf9qXFhohX/NvM4P20Zy+PVKkBRvluxrl43biyPT3+B9955t14r0y819ub3NktgRyTQIIDgKsengnuRHgpxQvHnyu/p0zTO8rZmSLArd5greTi8msO1HM7LLKAbAWo0mxe1Eh4uW0qllWCvhJ8xLfbmyvJ5HOnP4z++tvzgjTGmYiEbItVcl92Lv+hZxDWbj/QqJlUsYn2smocy/0A06OOiDV+qzfOcYHtOC7QjHYNvPVEeqV7Ol9XFnOprzfBQgeKi36glqPZoXF42l3112aQ60AYfRR6bqYkNPFO+TJ3Se1oBRrf4gwps29fIYn8tgyLD5KHYWl6uXJ2Mq7A5UM+gf3pn9jbSFEvdV94ol276lrBtk25pnJ7Wnn/7W5GJl9VGnAnxVbxfWVS7waRmdohF41g9m67eNAdfKPNFXfyGQKpvqOLdePlmqsq0TbqaOq/n7s/HRoQLS79WgYbCaHe6mcs12T0ZynLerVhXuxbk3KPbFqcmsrkqrxePxtYwV48xK15KaTy61YC4HVlMv8QzEoMwfsJ4PvzwI5588slaeapT/lZ4OMT0/UB1O8ozAjxQs4LJWiEjgkW8zUYFyJIEu40ejgQc/qnEZlT6HtziW8MHmpDwbP2SddA15uUhu4D7/cVMtYswVaXEpMJqdA9+/gfyEgYP0YMSr6VqXFRJuKwwLcbTGE1nbkks54NAjTLHy9o8riqDof6OXGgsYLEeVQChMc4sB/A5/n0Xjde66RrhGFPrwdboE/Fzp9aVsRnFvBqT2hrJwNNk6wISnHNB/b2UmTmqOsR1dkeuyF7HF4ky9aTXgpPS23Hsbdfw8PQXeP+d9xpNEvfzz17zG5ol0DgJbBcguHEIAdPmyVBvCoLpfKxVEbA9dMJHG8vLj3YVQyvm0k4LMDnrD/wQLePT0jXk6D7+kduZJzzljC9fTL94gEdz/siz5gbSLI3KcA17p7fg0qofOELLZmh2N6aWLaMqFmOPjFwe1jYwJ1rKjFBfYkE/xxZ/Sh8zxEO5fZgTKeHDsjXsHcxhbprGW+Wr6a+35vSsLmyw48yoWK3S26bHipiYvTfzoxVsqCpnj2AOPbPyuaBmHnOjZfSNB3kipy/rvCbTi5exIlrFKekdaJmVywnlX1Fmxukd93B/3h+JWnE+qVpPPJGgSyiXS2KLqLFtrvB14F/BNrxetZrl1RXsF8yjd05rLgzPY37ECd5MvZyAJytZGMY537qnXNfVodjZNM9mT1q2Se+4wbMt9mO6p5IbNs1L8vhpHGtmMCZ3L273buDx4qWbnT7FunFSIosrsrqrIkZe3WCZz2JEzULm1JTUZkk0buk0jbtdgPDRhx/xRBIgSM/cc+qW5l2ZCb+pcUtlPh0y83imehWXGx0ZFljFd1qF4j7Y8XgMjS7VMFnvwf8ya3gsKtUft6ZonEnfJ+JnnNaF//rW8a5eoSxr9dU5aBrSdkzsp5alc3aoI3eGNvF2okhldfw7nstAuxX9tUUsCyQUMBZbyGE1aVzv7cIQ3xLmag4XQuMusaQ4qZtOlk5j4EXdmxyAoHNETYCrPJ0ZkV7Eh9GiZLBUXbRFbbnwpAWh7t/Oe+X/e1XqjDd6MCa0gdcoVVlFOQm4LL8XnUZcxCPTX+Ddd99rkhagxsm++e7fuwS2CxBcAQlAeCq0JwWBDL6kSpnmE/EE31UV84S2gQrdZqSvkD7BPE4u/YIacQcAN1sd6JPfnv8rns0fY14ey+3Ly0YZ15TPUydxKe5SY8CAWC4XtujJVYklvBPeiNcUg7pzCnwr1IdIyAEI+8X9TMntw7RAJbeX/EgskVCbVkRS/kyYlXMw7/uqGbLxaxV3IK6RPqTzqe5U7iusgRdbHMBV1lLeDhexTyKo+jTKXM7UqtVKaR8eCTKuVV+Gs4KZ5WuZEuzFPr5Mzin/mrlJPn4hhakxdFrEbF7O6svbbGJ0eLHi+89MwIuZ+zI9WMPY4gVJc74jSRcAZGo6AV3iNTan7VXKzUa5XiqTOdbuHAhA2Cvu4dn8vjzrr2L0urlgeFQe/HGJDMZk78kdgSIe27R0c0ZK25GDuGo8tsW5dgv+ndeV5SE4feNswrVb36/vc9gaQKhvJK4aEEbF/pEc/ulrzbxYBX30DE73LmG9HlPzvzMpsZLJIIF869MNrojOx1TRps61mblaMiVsODyaxrV2e4b6VvK9Ea4LWE2CHJdZtNF69WebSo38qMY4CjFDXvW9lifijDTb0dWXwVnWj1R6bWWdE2vBwTUhRmtduDJtNZ9Z5Y2uD+FEODiJvsLpuKNVIZ24DI3TqzM509+eK70rmWtJquZPLQjOj5JHo9oUV8cnKdPZNqzxAN14KVTJA/YGtV4OK9c4oWUh2bcP4eGXxcXwXhLU/GwT0dxwswR+dgk0CCDIB+AzLWVBkCDF44tnE0vazMUHKf7GrDg8lL4XvbyZVAh6SFIhpyVsTN3gpKpvaB02eTz7j5wd/ZFZiTKV8SAgQKLoW8c0nsjYm7a+dD4IRrll43cqAEjueTPUl2jIxzHFnxI0ba42W/OvvEJWhuCy8u+ZG61QAUJBE2YLQPBWM7hYYhDqiulIzEJHXxqXpxXQz0pjuLmEGTUblEXikZw+XMtyXq2Qoj6wd9THYy32Y6S+lleLV/J+xn4s9Cc4p/jLJF2sE4gpoyyI6byetz9VhkWNIdwC4te3VUnZLwMJLtg4Byt5GlHBh5qcYOHWUAGHBVso8FCbxSGxULojk+fMIu4sXaQipGsVDBaFMY3XWvyJt/xhLlv/NbbuUf041crluqzuDEssZmZkk4pLENklkorIDdJUpD+2yY12W/6Z1YVLjBW8W7ZGIjh+9sX2c7ygMQBBga8kOfDh4TRu1Dsqv3OpF07VFxLWHGbArcUYNKT/Hs1gRKwje2npnKX/QIXhZKm44NCxDLlxMRqnxvM4187nTP8KVtthBWo1xdy4eSxFUwl0k8qVojz/VhXiSp/UXNjAnHg5D1DAnGy4uXqB2g9UGW1bY69IkAl2F27NKeadaJGykDR0LO48iPle4pLcgMyt1SfZ2vy47Ug5jmHRFhzmb8lgcxErvXWxOg2ZW/eeFhEpSNWdOYEIY8xVZJsa95jtKckKkHXH0GQMwuYA4ecKHG1Mv5vvbZZAYyXQIIAgjQZMUwUpBgUglMxKKj0dzRKOeIuMBEwJ9cYOeBlZ9C1RRRKjq/9EYS7zmuwT9/J47r6cGJ7LD2a14z9XwFyMiDa5Cbgwlst/WnRjTVBjYOVcNoareDfUl/J0P8dt+iQZLAiHhYNcm78nQW+QK+xlvFO5DgEjX+YcrJjcBhXPcU7rNhzozeGqzO78UL6R1ypWcW+LvlxtLWNGpIi+ZpBHs//I1doKXq5Yo84qvWMGT+Xvxxh9HS+VLOfdrH1Z4jM5o3iOY+C0NRKa4tajSxRey/8T90dX8HbVWidrIqmEqjVn3MKkrwIik4BIDiftTJ08S1enf1EK7kHT9ZsXawlWayZGSlCXKPeshMUb6X+kIuTh/0q/JGE5LH/XGZ34R3o7Din9jEqpnJdSq8HUdLVZy3ukOp/M1/lWS4ZndudGfQ3Tylc3dt00mfu3BRBcY7R7+q5V/LZGpzDcY3Qnz9R51VfOHZ51yayXnRualTA5JZbLxUYHhgdW8o1docxGwjQqKa1uyqX8M2TClXZ7/mSnc5p3KaVW1Al4S4IUN9hys0yWneveTj/tmvpz4nB3rCMV2QFer1jDVXpH7kwr5o34erXO5Hs2bJ2uMR8Pm4U80LKaZyuXO8wJjeDd8Js2h+m5WH4vMyIbVFBkQ/glthyoyNBnwnXxtvT0ZjLEXMhGX0OhyuatZSZ07kh0Ip4R4PrwIvraQa43W/OIv5R+E2/mfy+9yHtusabdnh6101Pc3ECzBGolsF2AoAzgmo24GJ4O7kUoLcRxxbMwDV0peImQV7xuNtxERw7PbsfZ0e9YKr53yT+3IV/3scmMsl/Mz+N5+3FiZC4/JOp88/Jsrs9HeawGU7M5KBJkcou+PO4p4c6S+XwQ7Etlup9jNn1Khu4hYZvELZOchMYLGftSlOHjpI1fkGZafJbRjy/S4py36UtlwpXMghey+qqAsVEVC8mPabyeewDXm8uYES6ijyUAYR8FEKZXrkcK9vWO6zyV15fRxgaeL1nKFG8PemTk0T/6A9+HHTOpshRoOrkxeD7jDyxOsxhe/DUCCmTzF1dDC3+IdTEpEeyczl3TtRt4Jb5LuVKLTrnWBCfLYHN/qxNFbXFZPJ/TWhRwanQe30craG95mZrRh9V6nNMrvlYKKR1dgTQJ2MwxAkrllJpCK2vSwrSZkLEXBd5M/lP5LYstx8nwa7waa0FwxyhWnCNrghRqIZ4PVLDa0xDK3e1IyLZVVsleVRqTfb14LK2SxxNrSbN1unnS2WjHWGNFFCgUQCgusXvogs/j4UKWUGPHlQJ0AU3Tcy8445fvXtbVyZUhLgh0UgHIeDxcZM5XdS+k305tFp12cQ9PJwp5rnWC+0sXKoAgtS22d8m3IgWgDo+GGKy3V1aV0YEiZkdLa2mkG6t7QzGbUXZnQl4/wxMLqPH/9BvbXr/U722Ny6uE/bIld0aWc4qRRwvDy1XRxdwwZSIvvPQib8+cWRtv0dh+NqgPzTc1S2A3SGC7AEHRumoWQUvjqUBv0kIhjimdrYK5lD8wmY4lm0KfqI9J2b0JBw3eiW1QzG6ZeoA9gzmcsuFz9oknAUL4O2VBELUpz4kJ8bZgIYk0L7Mim+huBzjd255746uYUrNCWRDCIT9HF3/G/5HDf3K78H6kiCorwSWeTnzviXJ+2dfIgeARb0+6ZOQxJbqKbN3L6kQ1l3s78bE/zMjKBRxj53K5ryv3amt4P1ZCZnWMx/P6cDUrmF6xAY9RzjhtAAAgAElEQVRts0dc55m8fRmtr+Pp8hX8oUZnYv4fCQc8fBQvUUGUGT4/b9jlfFm1kYGxHAbkdeMbb4R54VI1bYW+LFZ5TUZu/B5Lc1wSW55oU0GDy9S2LV+z46Kw6RrTeDpjb6rTfXwYL6WPnUEH288lNT/wiVlGegIezPkj84IJbtn0PScmsri4ZS9mSWRDIsEBdpC2lodX7TKur1xYbznp3bD2dskrGgMQVCpsSgEl8YT5bZ0q3VSKeWcvaUESSDNjNhPNLkSCfm6tWcS/Pa05SsumzICR1nLmeqIKIOTF4WmtO1+Iab5ygSLBqqvBUNebphN/sHk6rFS7PN9syZ7+XKbZxbykFyvWTgEHijhIM8g2DZ6PFvBhW4PRJfOICfdXAwQt34MXnRsirTnAyCZhmnwSijDSXqVm0C2C1dBZEwqGjCiMtbuwMaBzfXwxptdxlzS29LQApH5Vfm4JFLBUi9LO0nkgUMzbZgl3TZ64GVFSMzhowGQ339JkJdBggBCyNCbohfgCAc6pmadOASp0KMn0Jx+qbHr7Rr0MDnWi0JOmLAtrtQSvxjfxmLmefWJe7g314jx7MQssOVk7n7dsBv8Xy1D50vlev/r4P7TKuT2ylIhmM9XTi5qAwVnV89gr7mVQsCO99TR0w2ChHWZMeDkLtIiyZuwd83JjqDttvSHKiTM2sZKeEY2TQ+3Z5LH5vGYTh+g5aAE/d1mrKakoZ1xaT0Z61zGjpkT1p3dU5+70ntzr3cTLNesVIdRBMT/npnWkhx5Sm8p6O84IVjMnVq4sF6fYuZwcaEuO4VPWjW+NCI9GV/OlXaOggRMM5Rx+6ts0GuL3dq0LwqPQJ2pwWVpXOutBijSTKYm1vGYWK4lmJeCxwF7MDyS4qmY+e8S8nB/oyD56pgqMFLm8bm7ikfg6Khu6wzbRJdxQgODKfEs51wfadmaoEggn6+XM6jTODHTgG2robQZYasTpnfDxSqCau61Vag0UxD1MsQuYkhvmiaqVJJIAwXUxqMPqznTmZ3hW+pMaFZMZhzx8rDYsZVVwDhTOi+UIETJ1psa6srCFTzFFRhQ56LZHJY/LnpBm6jwWL2CdkcBIWAS9Ps7VFmGKtk8J+G3IMGVvktiBeyjgu5DJqMRyFJv2DgAEGVdWXGNcrAPdjBA/eiJcoS+nSre5d9JEVc1x5syZ9X7nDelr8z3NEmgqEmgQQFAfu+T7m2I+1BVhkWyC4ldNDaZyQ7ECpoXfclgAhatcTg3iiBCyIjGrVugQF/q+lEv2FifK3vFRSmaD+BrlLskKkD1F3iunEwlUDFpO9H9Yh4jhBtg5PZDMCBXYJL/TLdVH8feKKb/a0NXvxYRf5QGfZan25OeJpOlTpS3FLcWjEEnSHUufApZQTjvGfyFJqqqljpXgRFu9w40lCBu6GndqylxDQMD2FkYduLAJKjmLKRbCHlUMuhaACEiQzVgRRbmEUKZsbULXLHKQk96vMzAxVUYNBQjuM6lz4K5A15S/Pdlv7/dOzIvE3UDHGpvhiVYU+tJZbljcFlvOdd7OZPr9XG4vpciO85ewj1FaZ4b71/ClXk08Sc3sAuddsV621+cd+b0LEtzCUc4K+2nuh6y2oKlzX7g9iZwgQ+MLFcHYtuCB27YAhPZhg8e17jxiFyHWir+GWnIWCygWwqVGdNxx+UGniM69FPJWKMJ4axWabaIZDjFa4y+dv5Qb/MWXz2d2GR8EhftBY4IABLdYk0uh3vjGm59olkCTkEADAMKO9POnZ2T3Jy5lfGM+8J/2QDYINz3QUXLuJy7/cqvUuycxd6N172mI2c+9Vz2bbEDFHiQDEHdkS9kRSW77Gaeq35ayVOZXFZDobNupv0+e8XYi13/Xj2JnWmwsQNiZd23v2bo149jRBaT5LJuIplPhg5NLfAzM6Mpoz3rep4wzq4Suty3/3951QEdRdeFvtiabTgmShN4EhNAU6V1EBSSASlFQKYL03ou0AKII/EGlqKg0RSyogIhSpQtID5BAgARISCBts5vd+c+9s5MedgMLbuK8czhZdmfevHffzNzv3faFqM7hHlVwJAvCQ2ZR2Bvj4/1dqqo6O9kf1TyL4U1cQIJATpj8G/3GwbwC0CHJA+M05TBZdx2BqcBATQCG667ijJCc0YG95zDDGkM1J1L1CFVX5BLbm0zR/ICw2+4BAII8TomYTnob0SZqmY2sieiepaJL/y575eNdb+VqRU0Cjwgg3OcFYDOzOyLIrEo66/GURiUH+JFXOadJNr8dYV7A4H5gIev189rN8e9ZbNT3Az2PazfIsrBxT+SUi72XqSNr4mrHuBpAkNdZw1F6UgqwfJ8EJVs5c4IKe4WmXsKMtFKo5O6DXqpwmOg4KpudJRYiv2JPrrYG+Y5HFKCyihhxzw8veJbGa5qLiEVannEWMsiX3Qv0l2i5G+mLYYg6EkEpAmarKmCRXwJ+SbmRjZU0v+vL97+cq/BCmjdGIRAzPW9jnymOc6coq+T+No3cvWdsdmyPf8YGRBSZzfF7mwWBXSm2MsyFZs2UgSoSyCIBJwCEnGonfzXpyM7dsdWRQ5Ryg4OsVoKs+juvfh0dT37KXfa1yluih7OKODZze0flNKHT/x8smcvelVzjd1cBCPK9xPK2gWDKiBEJrdl2keQOmmMKRHmdD0akh2OOthLzlQy2XoBVLRVSkuqKZLqqCuPaZQWmxEn9ZpIv3nALxCvai1yMKr/nJNN1IbkEwywVIRr0GJ12AX5mAStVVfGtnxHLkyOyFRhz9E7say2FnmY/DDPcwFkLZSM5/sTmV8cg6/NGgGD58jB8lwUg5GSTdHSsynGKBFxBAg8MEOhh8PHxRr16ddnoHhERgStXrnC988dByKJWq1CrVm2cPnWKSx9nbXYVvyiiUuXKuHfvHm7dupVt15ZzURzZ+cs7xIKXkXWFW6Bwj8FVAIIsxaz3XhbjEqsiKoz5YqoHxmjKYZM+ES9ZfHBAlYSZ4hVmFCRTt6xQCnNhnawAQbCK6JzsxZlEPdXhiNCksagyKhXm4+wqkSbic6Ea9hnM+MB4GTqrCuvSq+B4MWBqWrjdQMds7wPbQzzFEoRnLZ7oo7mEWAIqjN3sg4T7WXIUgFC43x/K6O8vgQcCCF6enhgxYgR69OyBW7dvIi0tDf4l/REVdRUDB76D6Oibj1zunp6eOHLkMFq2bImYmIJfb+XKFdi/fz9Wr/7socdqF5A89BUyO6hUqRJatGiOVatWO/Ryc+KlXbIrVwMI9gBlyVRgkVABQdBzEOwCXMNeTSKsRO+tyk1k5ChluisuDqteEWie4o556goYZL2IU+5mTtXN2dhSYoubofOeSlZjsboyluhj8bN4h0u7LzGWgdrbHe9aL8DEDoL7t6zAnQImF5mCUEprwFu4gDSKVHIAHNiGlS1uIqu1yDZFHkhOCwLFJMjWI1dcH2VMigTsSaDAAEGjUePDDz9EradqYczYsTh29DCbRg0Gd3Tr1h27d+9GZORVO9eVXQS59+tPPBGAmBgby1q2n6XwOrllAoTWiImR2Qsdp5J1JkCQxpV9fLlLF+ecc87wQflVkzPyIbuMatWqhS5dumDWe++5XAqcvZvtUfzuSgAhwxedwzeddd5UoKmzyRvdNP44rDXik/TrSFGLXD8h525WBgf2QMejkKsz+6ydqsdyVMIkawT2G4xIV4mclZS1yXFD8lPRKdULw8QAjHC7hpPqFOjTgVH3/NDQswT6qi7irppiNiQFbK/RpaimwgpTBa5lMiz9PLt+KDPJHsiQ+85rbbOCA/pM0SbLw8Kw2eZiUACCvZVRfnd1CRQIINAD2eH55xEaGoq27doiNjbuvvPz8vKCm5sbWxjInE+NXoL+/iWQmHgPvr6+MBqNuHNHqj9Qo0YNjBw5ElOnzkByUhISk5L4e3Jl6PVapKamIjExkb+TAMIRmwUhBiVKlICb3oCk5GQkJEgUrDmbVqvl44jfYO7cOdi1a1eGBaFkyRLQ6fS4e/cukmzXpfO9vb1B87BYLIiLi+O/JUuWZNfEE088AZPJhLi42yCXB/WtVqt5PkajVJmP5ujp6YHU1GQ+X24lSvhDr3dDcsZ4RWg0Uh8kIzrWZJLzMTJn4u7mBg9PT9y+fRv+JUsiOSWFZezu7s7nkDzza4XZbJ3fnFwJIMgKgwPt8oCMfP/TvWsSUc6kQrTOilg3Fe+OcwbKFRVwQMqZKK2/SK+KUCEKvxmSYRaz39fZILEoQg8VRqSXRkv4oo/2Em7BCDXUePWuB/q4BaCPcAHRlDPtYKMjqW7BSktlnDJYMNt8iTlPClLy2ZFLEUD4OCwzBsFGy+nIqcoxigRcUgIFAgi0S35v1iwEBQbirbfeum+qXL+338bwEcO5RCptdVd8ugIfLfkIer0ex44dQcLdu0g3m1GiZEnQsdHR0diyZQs0Gg0/VytXrMKiDxYxYHj77TchqCgPzIr58+djzZo12QBC9erV8b+wMKSkpHBUcv36DbLsUKQXiZ+vH7Zt28bn3Uu8Bx9fHyyYvwCfffYZBg4cyGMlEOPu5o7XXnsNZ8+eRe3atbFu3TobYZKIiRMnYs+effjtt98wYeJ4LP5wMff94osvYMSI4WjdujWDGI1Gi+bNmjPg+fyLz/l8i9WCvn364NChQ2jRogWWh32MVKORd0FPP/00RNGCX375BYGBgbBaRURGRqJLl645dpUiXnrpJQwcMACdOnXCvv37EBV1HUFBgdBpdbh+4zq6vNzlP2VZcDWAID/l93U7CQLIN0+mdro36HNOdVeYXQuyDAgMERQINKux0VIDYbpb2CDchgXpHKckgyg6hj5TZhIBgVJmgbM9qBLpaHM4RLVkcWhj9MRkVVkMtV7gKqGOQgQ6rmwKsEKohh/ckxEmXuN3CVGfO7PlBAhymqMzr6H0pUjgcUqgwABh/vx5rGTfffdd2zhzF9t56qmnsGH9enTq3AnXrl1DQMAT+PbbbzFu3Djs2bMHJ06cQJs2bXD9+nVMmDARVapUZiVN/+rXr49BgwbxTp3iC+bNm4eOHTuyVaB8+fJYu24dRo4YgWPHjmVYEHr3fh2tWrVkpenl5Y2EBMlaITV6PVgxZcoUVthvvPEG0tPTsXr1ah4L/Vu/YQPatG7N1omevXqhaZMmGDlyFP7c9Sfmh4bihx9+YGBDzWAwYPfuPZg/fwG++uorBJQOQNVqVTBu3Fh07tyZLQrTpk1jywBVU7tx4wZiY2PRr18/nk/Pnj0xadJkNGnSmJW9j48P4uPj+fuQkBD+Sy+WpUuXYveuvTzfzGZFx44vYcCAAXzugQMHsGnTJnzwwQfw8/PDn3/uQnBwHQYY/5XmqgDBnvwfZ9yKvbE8it+zmuRLWFTYaK6B7w33sMxCBYqI4ZUozACjAPiaLWhp8UQ9vR/SrCK800S0gC+mukdjl5gAtS2AMzjdgMViJSy0XMWvbvcyUh3tjZ/A1jPxAuYYnsQyXRy+xy2JOMvJAEHJYrC3EsrvhU0CBQYIgwYNRMdOnfBChw62ueb2AY4ZMwZVq1ZlRSbHDUyYMAFly5bF8OHDcfLkSTRo0IBN+X369GFl1717dwYItJvu378/9z116lQ20Y8ePVpS9aKIBQsWsiJfvPjDDIBA/ZBCLVeuPBYsWICtW7dnAwiCIPKuf+HChWxFoLZy5Urs27ePd+qkYClgkfoncz25GiZOnIAffvgR9evXy7aLJxfAzt93onYwZW9Ibfr0qaz8T58+xceyleJeIoYOHQJ/f38GJc80bAi1SoWuXbvCw8MDYcuXIzAggMe7fft2UGEVAhVRUVESwVWJ4jh16ixmz56dJ0Ag0LR//1/46KPF2LBhA3Q6Hcu1dq06SDOZ/jMBjIUVIBS2F8WDjFcGQb7pAtZba+KgRxreM13i3TsVF2LaZgCvmnzQQ+UPPVcoFaAVVQgXjJghXMVdNfM/MsyvYNJhuepJ/Ox2D8vMV2B1IG2I306CgM7xbujnWQFz1DdwAAkSmwOxzT7IxPI5RwEIThSm0pVLSKDAAKFUqZL48ccfsX79eg5WlBW3rBjJX//cc8+xmZ4UP1kC6LdPP/0UN2/exKxZs9iCQJYCUoi9e/fmnX9eAGHo0KFo1LgxevbokSEs2rUfPXoUK1asyBaDQPEF3bp1w/gJE9Cmdbss/n7JgrBi5UocPXIEH3/8cTaAcPrUaSz+aDGaNm3K31M0OY1X3pGTZSJ77EAJBht16zbIGNOAAf3Qpk1rvPrqq7bvyHSsRuXKlbHw/fcxbepUUPZBr1692EpA/VOsAsmIAj2fa9cOU6dN45fVkCFDuI8Mqmxr1uC1TAtCToBArplTp06hbr0GHL+hVkkEUUW9KQDBtVeY7mkqlf61pTrOeIqYYrrApcHZwiCKCDKqsExbGVFIw3fGG0gTAQ1UuKI147KbXFKZCrwLKGkU8JmuFk54pWNq4mlYHGCF5JRLQY1+dz3R0SMIUxCJf9QpsID6diY8yJ3FoLgYXPveVEZnXwIFBgikbGm3TDv58PAL+Omnn9j3X6NmTTaxkzI8fPgwtm7dhi1bfmIzeKNGjdD++efRtUsI4hPieaebF0Agt8N7772HyZMns+Xgn3/+YSCydu1a/ty2bTs0fLYhunfrxoGPFKTYqlUrdnecPn2asx+WLfsfXn45BOHh4RnKmsb8zDPPYNmyZdw/ARMCHzT2jRs34ptvvuFUybVrv+YAxCZNmmDYsGGYM2cOGjdpgvcXLoTZbOYYhQsXLuQCCD4+XtwXxQT8vmMHAgIC2UJy4sRxtG//PMaOHcNAqHHjxjzW4cNH4MCBvzjQcMmSJZyVQIGN5JL44osveC41a9aEn29xTJ8xwyELggwQgoPrwmhMY/OpPVIc+7eH6x+hAATXXyODxYrPTVUQ66nFWHM4ktl0IHGkjLYEoIXKF+PECJzRprHBkTMapNAlqGzMjaTKvdJVWG2thlueKoxKPYW0HHwuOSUh12MguvXJqSVRS18ME6yXuRaDrb6lBFScJELFguAkQSrduIwEHgAgSOl8tMOmWggUyEeBgdE3Y7Bu7VrODKAHxd3dgDlz5vLOOSLiEmbNmo07d+JAO33yq7/euzcH9HXo8BJatmyBcePGQ6US2KROqXy7dv3Bpn/y0VMcQkBgIM6fO4d5c+fh7r1EdgV8uWYN3hk0CGXLlMGQYUNRzM8Pv/++A0uXhuUQsPQKqFqlCoYOG4LSpUvz/0kZk2Ink/+8eaEoW7YMZ2Ys+uBDnD1zhjMTaEdPgIjK4C5ZshTHjx9HWNhy9OzZK8s1RJQrVxaTJk2Ev38p3LwZwyCHgMhHH0mBmRTH0LdvX8ycOZOV9+DBg1G8eHF2eYSFhbFVoW7duhg1ahQMBg8GRHPnhjIQkhvJtVmzpgjpEoKRo0Zi9epV2LBhI7soCCAQkCIgYjaZM1wMD0ZE4zL3p92BKADBroj+1QPoydNZLViZXBHwNmBkejjuUIqi1YoAsxqrVdVw3GDBTGM4zCqpTDj/5VFLalze5+tENf6XUhbu3gYMNp/FPSpVeZ8mAwSKdnjfXAa+OjeMT7+EO+p0zhpxNMXRUQEqAMFRSSnHFRYJFBAg0LSy5/xnMM9ly0eWdq9SXrcIa460Jkk4dEx2MWXmgUtugZxNZKY8iWI6dwU0+Rw5ySyvJci73+xH5kVvJNVst4o0JpXtc664c+mF5kQGN0GgjI6C7W+cef3CcBMrAME1V0lW6nT3qkULltwrC19fH4w2hSNGk85ZC41S3LAQ5THL7SZ2IAFGDVkVZLWe+/lXEfFTYglU9i6OweJFxKqkVGJ7TSOq8Km1EtL1GowxnUeKyorstVft9eDY7wpAcExOylGFRwIPABDkyWXyIRSe6TpnpPmbJWUAklcRJOdc214vCkCwJyHl98chASnGwMYqCitm3H0C1b2LY5wlEpFqI9zSgWFiabQTfbgE821NehZzf14VOyioUcCguz7oYCiFwforuCKm3ncqMkihoMcvLVUR5WbFpPSLsIgWZouUmvPiEBSA8DjuLOUaj1MCDwEQHucwXetazvRbOntmCkBwtkSV/h5cAvSkSCyVb9/xQVefMpiguY6TYgoCTAIW66ogAel4V7wIq0pyJ7BLQVRJJFfZogMkRd7xjh7D3MtinCEGf4tZ05lzj1K2RehFNTaZq2KXJgkLVVINBKLWlsjbFYDw4OurnFnUJaAAhAdYYQUgPIDQHtEpiovhEQnWyd12iFFhjF81THa/iX3Wu3jaqMcCVQWsU8ditfomYwGZHZV4E6TExuzuNdr1P50g4ANNVbzvdQc/W27brYVAz6qPRYPvzFXwFW7jM7c4DnykLAapPJMCEJy81Ep3RUgCLgIQClfZGFcGCEXo3nRoKgpAcEhM/+pBRMoeHKfGAkNlLPaIw49iHPqlFEMPlMBAbQQi1MaMssciJx9Kloecjb4pnyrgc1V1/OiZio9MkTZLQ/7To57Kp6rxOapgLq5ju3sSBMGaEU+kAIR/9dZQLu7iEnAZgFCsmC+KFy/BqZNSy12hsaCypIqOFy9evC8/gWN9SrsZypyoUaMmp3WeO3fesVOVox6pBBSA8EjF65TO1YKAwCQ1PlFVxI/uSfgsPQaLTWWgd9djsDWcgwZl0qXM2gTZrQcyKPeyqPGZWAU3tSKXXKZy1fezAdBbJDhRjcWaqhitisQRfapE1EQ8TzYoUrAw4PxFosQgOOV2UTpxIQm4DEDo1OklTtF75ZVXuLZBmTLlsGbNlw8lqr/++osrNVLtggdvmZkPS5cuw7PPPouDBw9nFDR68H6VM50hAQUgOEOKj7YPASI8TBqsTa+AQx4WfJ0chTBNFex1T0Wo5SrSbdaCTEWfn41OhFZU431NVVRIE/CqLhypVikfIT8bJBVYev6OBpMMVfGm5iLCbbUWHoUVUAEIj/Y+Unp//BIoEECQU+5ypxhKA5cC5PKaRP4YX+pTROfOHTMAQp06dVC2bHmu2EitTJmyXILY8SYp9YMHDuH1N97IARDs+Rxz7iek1EWqM0AVIAm8xMbGZ1RczH/e9q9DNR6IPTK3mVMeQ/Y+sgYg5heMyMZZW2pkfuvkuBxd/0gFILj6GknPotaqwypLRRi1Gvxquo23VSWxJP0qduqTYSLSKgYJtN+XYwPynpcaKvQ3FserqpLo53ENl8w2llgusCSlI2c+wVK1pXfiPfCKRxD66iMRJaQVOHXYUQkrAMFRSSnHFRYJFAgg0KQIANStU5eLC+3Zu5fnScqzRo3qOHPmDJo1bYrrN67h/PnzXJWwfr162Lf/IJISE6HRavk4UlzE3njr5i0b+s8OEKiQEVEhX7kSyeRFzZo3x8dhnyDyyhW46fUweHjg8uXLfO6TTz7JhEgynTTRMzdp8ix/R+WYySohWxAqVqiIChUqYe++fdkKEGVdLGKIdzO4M09CREQEl4qm1rx5c67S2KtXT5w8eTpbHQbaIVGktlanRYUKFXDx4iUbYVKmgq9UsSJXR6TKkrdu38ZTT9XE3LmzMW3qdKQa01hexFXxZLVq+Pv4Ua6yWK1aNZjS0hERGckvtdKln2D66QsXwqFRq9GwYUOe9z+nTmVMoXy5ciDXCq0NEVwVdZCgAITC8KqxQhC1eB8VUc2iQ4QlFd5qDcakX0CcuwCrKFsBKFrBThNFNL6nwWxdVczzuoNTyXHo7PYEglR6fGmJxgVKfRSkIkgcgiiqMCepJKp5+GGg6jLiBDMkLjNnORYyx6sABHuLp/xe2CRQYIBA5YpJURGXAFUIfPnlLvz56NEj2LN7D27eikGnTh3x5ZdfMnsiVQ0MDApCp46dGFRQpUVS7vSZds7Eirh9+1ZmKZRdDET2RLTH1AdVIqQ+rly5AjLx16tXj6s3ErETte3btmFeaCj+/OMPvPDii5g2bSr+2v8XDB4GLplMZYwpDmHu3LmoV6++rcxzA7wz8B2cz+F6oJfTe7NnonWrVrh9OxYBAaWZCIkqOhItNBFJHThwEG+/LZFJZTYrRo0aie6vvIJrUVGs2Kly4syZ78FqtWDhwvfRrHkLnDh+nMffo0dPTJs6BbVqP4UzZ84iKuoakzWNHz+eLSU1a1bHiOHDGQjNmDETLVu0ZAKm5R8vx9UrV9n1smbN5wwUqBojVagcNOhdrrJIpZupsiIBmpCQrgzEinJTAILrr65kzhfRK6UE+qsDuEDCOsNdrLJcs8UQUF1D2vlLEQj5qW65n4BUFcKEyjipt8KSakQjbTG4WYDj3hZMNp5HsopsCVIv7qIaq9PLI9VNi9Hp4Uik3zj+IDfF9sNKUgEIDytB5XxXk0CBAcLTDRrg0OFDHFC4e/cuNGvWHGaTCYePHkarlq2YD2HY0CF49bVX2RxPHAa//vorFi9ezNwJRK/ctGkzxMXFsvIeNWo0mjVrxqBCBghjx45FQEAARo4cyTTNtGum7+QSxdkAwvbtmD9/PijeYOfOPzB9+rQMxsaDBw/i9ddfBxFIkZInrgeieiYehoCAIEycOCnbepB14I03XmcrAVE0k6LfvHkz2rdvz+f9/PPPrOBzBlA+91xbHmfPnj2Y3poYH7f8/DMmTZzIrggqM93l5RDExsUxMCKZNGr0LCZPnshcDVargMaNGuH4iWNITU1BaGgol2kmMizitSCOC2KHJDk+/3x7vPPOO8wYyTIRVNj8/WYsXLgI/iX9MWz4MHR5uQtSjakciJW1VLOr3XzOGA+B1GXLljLw/Oqrr53RpdKHkyVAip3scLWTtJihq8Q7+6maqzgrpEJghU3Kmr613+gonVXA7OTSCNYX53v8mCYFN+8loL2HP4ZoruCSYIRVkLIgfNPV2CBWxT+eVkxLOY9Ujn2WEimdWWqZLR8CuGz6d99tZr6W/1pNEvurpxxR2CRQYIDg7uaGps2asftdNzwAAAfeSURBVPLv3KkTm/9NaWkMEIJrB8NsSsMLL77APA3t2rVjeaxevZqV99atv2YDCMTLcOLkP3i2YUPmY7AHEMhcThwGwcHBmRYEG0Agq8T69RvQsOEzGWsgAwSKaaDd+blz5zJM7teirmPc+AkZx9LDTAp4w4a1zNEgt23bt2OLjdSJfs8LICxatBDJyUmYNm1axnlEJ03slWSJIOrrwYMllka5NW/eDFOmTEL759rzzonaUzVroO1z7ZhKe9++/Zg5cwaPm4ifiJaaXqTjx41jNwUBGCl+AQycSDn++ecuJqSq36A+xo4Zi23bstJeF7Zb0/54CXzp9TpmAr108RIOHjpk/yTliH9JAgK8zCIap+iQolPjL10q0tXkAqCiRVyQ2aFxyVaERkk69NME4abaipWWG9BagU80VbFCdwcbrDFIV0kWhFJpAtbjSWzzNuFD02WkZRRccLaLgRhcVXwvEhnd2bPnFIDg0IoqB7myBAoMEMgScPnSJTa5k6IigJCWZsSRo0cYIJhMaejQ4XkmHZIBwqpVq/DHHwQQtmYABDKLk7/++++/Z5cB7ZKJDpmyGGhnHBQYiOEjRjDpUbFixTB69GiWI7kWiAK6b58+/H8yp9OO+9ixY3wNIlaSFacMEMi3P3HSJKZVlmIKVHDTu8GYgwhp1cqViE+4g/Hjx/HOX6fTcb80HvqbF0AgYDFx4niOL+jbt08GvTUp582bv0N8fDx69OiBkJDuGfEMNO6mTZtg+vSpGTKqW7ceFiyYz1YVAldqjRYzZ0znMZCcCUwNGDCALSVff/01x1UQ8RNdn15M9DuN2WqxonmL5lj80VK82bcv/v77uCvffw89NmWX9tAifGwdULaCTlTBKoBLHRObo9QKVgeFjtaKgMEMmNQC0lSAwSJgnVAdNzwEDE8+DaOt84pUA0Gohi+9E7HKFPUIIg8yxSffixSPRHTtSlMkUNglUGCAsGPHb1i2dBmOHjuKrb9uRes2rWE2p2Hf/v0Irl0bJpP5vgBh9549mD1rFpvip0+fgb//PsZgghRjXgBBBgzjxo1jlkdiU/zggw/Rv38/DlCcMmUqhg4dgp07d3I/3bp3x8IFC7j2ATFDknKmYMPfd+5kBjmKaahTpx7KliuLvn3ezFg/eri9vDyx688/cOz43/j1l1/YohEUVIatG5RxkJ+LwWAw4Lcd2xETE80Mk127dmVLQ9u2bREXF4c9e/YiPj4By8OWo3Zwbaxbuw70/tj03SZ2Q1SuXBlBQUEcd0Ey+OSTTxEdfQOffPIJrl+/jk2bNoGu0aFDBx4vWVDWrV+PDevX4/LlCISEdMHGjd/Aw8MAL29vHDp4EEuWLONUzP37/yrygYqF/SFUxv9gEiCgQGmMZIFTW4EFiaVQxtsXI3EZ1wQzg4FnUnT4UF0JC/Qx+MlKlRclG4SiwB9M5spZ/y0JFBgg1K9fj3f5O37bgbr16iIh4S6++moNxwuEhs6DxSJycGKbNq2wdOlS3uH2fv11XDh/nhU1Rddv3EDKzAM7duxgxW4ymVAnOBj16tdnd0TbNm3g6+eHb7/9FjqdFv37D0CVKlWwYcN63k2TeyMkJATfb96MGjVrsGWCdtSUTUHWiNatW8Pd3Z1XkpTsrVu3OI6BlG/16tVx/lw4vvn2G9y6dTvHaotsrejerTuqVqvK/v8tW7YgOSmZFe+7gwdxQKS04cmMt6Y5Uv+kqOvXr49Tp06xwk6Ij+eIamKxe+21XqhTJxjh4eEMAMglwW6alzvj5PETTIFNlovo6BhERkSyJSR0fihbQ0qVKsXggawY1MjVQvLo3bsXtFodBzju27cXHh6e6N//ba4hsX79euzdu4+tCkpTJFDUJCDbHCis0Wpz0fWN0aKXb0VMMkTjkJXSH0U0T9Jjtq4SJqojsV9IhKBSdvZF7V5Q5vPoJFBggOD4UGS2x8wz/P39OZisWbMWnMaXFcUXzFQsee3zCzOy15doo5QteAqgI6bQvI7J+7y8xknmSa7xJkc9Zdo48q0bn1l/wm6SmOPLpxypSKBQSIDueVsMT4IVS9yq43OvRKwx3eCohs4pnhisCcQQIRzntJJVoeDPfaEQhDJIRQJOl4CTAELmQyo9rFnBQSbpCtVF2L17N5o1bY7YuFinEqU4XTJKh4oEFAkUIgkITCH9lbkSYtwEjBQv8ftlgLk4OluLoZf2PG5rpHolEgBXwHQhWlxlqP+SBJwIEHLOIHeUMKUbTp40CXPmzkViYuK/NGXlsooEFAkURQlQquQiUxlUFwzopb0MmC0YKwTiaYsBXbTnkKwigEDxBwo4KIrrr8zJ+RJwIkBwdtqQ8yer9KhIQJFA0ZWAoNYgJN4N72iDMNX3DiIS4zFXXQFeUKGP6jxSybKpgIOiewMoM3O6BJwEEJw+LqVDRQKKBBQJFFACKtRIUmGhphK+90jFrynRWC5UwlkvYELaOYmjRAEIBZSpcvh/WQIKQPgvr74yd0UCRUgCVDzR16LBMmt5RLsBGxOjsEBdEct9ErEx7ZqtIJPiXihCS65M5RFLQAEIj1jASveKBBQJPEYJiGpMT/VHPUNx7DHGoYPghwHqy7ioNirGg8e4DMqlioYEFIBQNNZRmYUigf+8BMg2YBJUaJeow3RNeaSoRCQLwFuqy0hSmXOzqv/nJaYIQJHA/SXwfzo9/mWo/VsPAAAAAElFTkSuQmCC;" vertex="1" parent="1">
                    <mxGeometry x="10" y="10" width="520" height="286" as="geometry"/>
                </mxCell>
            </root>
        </mxGraphModel>
    </diagram>
</mxfile>